<svg width="21" height="17" viewBox="0 0 21 17" fill="none" xmlns="http://www.w3.org/2000/svg">
<path d="M12.4831 11.7085C12.4831 12.0933 12.1711 12.4053 11.7863 12.4053H9.21387C8.82907 12.4053 8.51711 12.0933 8.51711 11.7085C8.51711 11.3237 8.82907 11.0117 9.21387 11.0117H11.7863C12.1711 11.0117 12.4831 11.3237 12.4831 11.7085ZM21 1.28764V5.61499C21 5.99979 20.688 6.31175 20.3032 6.31175H19.8516V15.7124C19.8516 16.0972 19.5396 16.4091 19.1548 16.4091H1.84522C1.46042 16.4091 1.14846 16.0972 1.14846 15.7124V6.31181H0.696763C0.31196 6.31181 0 5.99985 0 5.61505V1.28764C0 0.902841 0.31196 0.590881 0.696763 0.590881H20.3032C20.688 0.590881 21 0.902841 21 1.28764ZM18.4581 6.31181H14.0138C13.6887 7.95446 12.2367 9.19673 10.5001 9.19673C8.76344 9.19673 7.31145 7.95446 6.98638 6.31181H2.54198V15.0156H18.4581V6.31181ZM10.5001 7.8032C11.4632 7.8032 12.283 7.17783 12.5745 6.31181H8.42558C8.7172 7.17783 9.53698 7.8032 10.5001 7.8032ZM19.6065 1.98441H1.39353V4.91822H19.6065V1.98441Z" fill="black"/>
</svg>
