<svg width="14" height="12" viewBox="0 0 14 12" fill="none" xmlns="http://www.w3.org/2000/svg">
<path fill-rule="evenodd" clip-rule="evenodd" d="M7.23438 0.634406C7.3844 0.484429 7.58784 0.400177 7.79998 0.400177C8.01211 0.400177 8.21555 0.484429 8.36558 0.634406L13.1656 5.43441C13.3156 5.58443 13.3998 5.78787 13.3998 6.00001C13.3998 6.21214 13.3156 6.41558 13.1656 6.56561L8.36558 11.3656C8.21469 11.5113 8.01261 11.592 7.80286 11.5901C7.5931 11.5883 7.39245 11.5042 7.24412 11.3559C7.09579 11.2075 7.01166 11.0069 7.00984 10.7971C7.00801 10.5874 7.08865 10.3853 7.23438 10.2344L10.6688 6.80001H1.39998C1.1878 6.80001 0.984319 6.71572 0.83429 6.56569C0.684261 6.41566 0.599976 6.21218 0.599976 6.00001C0.599976 5.78783 0.684261 5.58435 0.83429 5.43432C0.984319 5.28429 1.1878 5.20001 1.39998 5.20001H10.6688L7.23438 1.76561C7.0844 1.61558 7.00015 1.41214 7.00015 1.20001C7.00015 0.987875 7.0844 0.784428 7.23438 0.634406Z" fill="white"/>
</svg>
