<svg width="14" height="14" viewBox="0 0 14 14" fill="none" xmlns="http://www.w3.org/2000/svg">
<path d="M7.21 13.968C6.24867 13.968 5.36667 13.8093 4.564 13.492C3.76133 13.1747 3.066 12.722 2.478 12.134C1.89933 11.5553 1.44667 10.874 1.12 10.09C0.802667 9.29667 0.644 8.424 0.644 7.472C0.644 6.52 0.802667 5.652 1.12 4.868C1.44667 4.07467 1.89933 3.38867 2.478 2.81C3.066 2.23133 3.76133 1.78333 4.564 1.466C5.36667 1.14867 6.24867 0.99 7.21 0.99C8.08733 0.99 8.89 1.14867 9.618 1.466C10.346 1.78333 10.9807 2.23133 11.522 2.81C12.0633 3.38867 12.4787 4.07467 12.768 4.868C13.0573 5.652 13.202 6.52 13.202 7.472H12.18C12.18 6.66 12.054 5.918 11.802 5.246C11.5593 4.574 11.2187 3.99067 10.78 3.496C10.3413 3.00133 9.814 2.61867 9.198 2.348C8.59133 2.07733 7.92867 1.942 7.21 1.942C6.38867 1.942 5.642 2.07733 4.97 2.348C4.298 2.61867 3.71467 3.00133 3.22 3.496C2.72533 3.99067 2.34267 4.574 2.072 5.246C1.80133 5.918 1.666 6.66 1.666 7.472C1.666 8.284 1.80133 9.026 2.072 9.698C2.34267 10.37 2.72533 10.9533 3.22 11.448C3.71467 11.9427 4.298 12.3253 4.97 12.596C5.642 12.876 6.38867 13.016 7.21 13.016C7.574 13.016 7.966 12.9647 8.386 12.862C8.81533 12.7687 9.17933 12.6473 9.478 12.498L9.982 13.282C9.59 13.4873 9.13267 13.6507 8.61 13.772C8.08733 13.9027 7.62067 13.968 7.21 13.968ZM6.468 10.79C5.86133 10.79 5.32467 10.65 4.858 10.37C4.39133 10.0807 4.02267 9.684 3.752 9.18C3.49067 8.676 3.36 8.102 3.36 7.458C3.36 6.80467 3.49067 6.23067 3.752 5.736C4.02267 5.24133 4.39133 4.854 4.858 4.574C5.32467 4.28467 5.86133 4.14 6.468 4.14C7.06533 4.14 7.588 4.28467 8.036 4.574C8.49333 4.854 8.85267 5.24133 9.114 5.736C9.37533 6.23067 9.506 6.80467 9.506 7.458C9.506 8.102 9.37533 8.676 9.114 9.18C8.85267 9.684 8.49333 10.0807 8.036 10.37C7.588 10.65 7.06533 10.79 6.468 10.79ZM6.734 9.782C7.16333 9.782 7.54133 9.684 7.868 9.488C8.204 9.292 8.46533 9.01667 8.652 8.662C8.83867 8.30733 8.932 7.906 8.932 7.458C8.932 7.00067 8.83867 6.604 8.652 6.268C8.46533 5.92267 8.204 5.652 7.868 5.456C7.532 5.26 7.14933 5.162 6.72 5.162C6.28133 5.162 5.894 5.26 5.558 5.456C5.23133 5.652 4.97 5.92267 4.774 6.268C4.58733 6.604 4.494 7.00067 4.494 7.458C4.494 7.906 4.58733 8.30733 4.774 8.662C4.97 9.00733 5.236 9.28267 5.572 9.488C5.908 9.684 6.29533 9.782 6.734 9.782ZM10.542 11.21C10.1967 11.21 9.90267 11.1447 9.66 11.014C9.41733 10.8833 9.23067 10.692 9.1 10.44C8.97867 10.188 8.918 9.894 8.918 9.558L9.996 9.53C9.996 9.76333 10.052 9.95 10.164 10.09C10.276 10.2207 10.4207 10.286 10.598 10.286C10.906 10.286 11.1767 10.1647 11.41 9.922C11.6527 9.67933 11.8393 9.348 11.97 8.928C12.11 8.508 12.18 8.02267 12.18 7.472H13.202C13.202 8.2 13.09 8.844 12.866 9.404C12.642 9.964 12.3247 10.4073 11.914 10.734C11.5127 11.0513 11.0553 11.21 10.542 11.21ZM8.918 9.558L8.89 4.294H9.996V9.53L8.918 9.558Z" fill="#667085"/>
</svg>
