<svg width="13" height="14" viewBox="0 0 13 14" fill="none" xmlns="http://www.w3.org/2000/svg">
<path d="M8.88536 4.67093L5.1147 8.44227C5.05102 8.50376 5.00023 8.57733 4.96529 8.65866C4.93036 8.74 4.91196 8.82748 4.9112 8.916C4.91043 9.00452 4.92729 9.09231 4.96081 9.17424C4.99433 9.25617 5.04384 9.3306 5.10643 9.3932C5.16903 9.45579 5.24346 9.50529 5.32539 9.53881C5.40732 9.57233 5.49511 9.5892 5.58363 9.58843C5.67215 9.58766 5.75963 9.56927 5.84096 9.53433C5.9223 9.49939 5.99586 9.44861 6.05736 9.38493L9.8287 5.61427C10.2038 5.23916 10.4145 4.73041 10.4145 4.19993C10.4145 3.66945 10.2038 3.1607 9.8287 2.7856C9.45359 2.41049 8.94484 2.19976 8.41436 2.19976C7.88388 2.19976 7.37513 2.41049 7.00003 2.7856L3.2287 6.55693C2.91275 6.86502 2.66111 7.23277 2.4884 7.63886C2.31569 8.04496 2.22533 8.4813 2.22256 8.92259C2.2198 9.36387 2.30468 9.80131 2.47229 10.2095C2.63991 10.6178 2.88691 10.9886 3.19897 11.3007C3.51104 11.6127 3.88195 11.8596 4.2902 12.0272C4.69845 12.1947 5.1359 12.2796 5.57719 12.2767C6.01847 12.2739 6.4548 12.1835 6.86087 12.0107C7.26694 11.8379 7.63465 11.5863 7.9427 11.2703L11.714 7.4996L12.6567 8.44227L8.88536 12.2136C8.452 12.647 7.93752 12.9907 7.37131 13.2253C6.80509 13.4598 6.19823 13.5805 5.58536 13.5805C4.9725 13.5805 4.36563 13.4598 3.79941 13.2253C3.2332 12.9907 2.71872 12.647 2.28536 12.2136C1.852 11.7802 1.50824 11.2658 1.2737 10.6995C1.03917 10.1333 0.918457 9.52647 0.918457 8.9136C0.918457 8.30073 1.03917 7.69387 1.2737 7.12765C1.50824 6.56144 1.852 6.04696 2.28536 5.6136L6.05736 1.84293C6.68604 1.23574 7.52804 0.899758 8.40203 0.907353C9.27602 0.914947 10.1121 1.26551 10.7301 1.88354C11.3481 2.50156 11.6987 3.33761 11.7063 4.2116C11.7139 5.08559 11.3779 5.92759 10.7707 6.55627L7.00003 10.3289C6.81425 10.5147 6.59371 10.662 6.351 10.7625C6.10829 10.863 5.84816 10.9147 5.58546 10.9147C5.32276 10.9146 5.06264 10.8629 4.81996 10.7623C4.57727 10.6618 4.35676 10.5144 4.17103 10.3286C3.9853 10.1428 3.83797 9.92228 3.73747 9.67957C3.63697 9.43686 3.58526 9.17673 3.58529 8.91403C3.58532 8.65133 3.63709 8.39122 3.73765 8.14853C3.83821 7.90584 3.98559 7.68533 4.17136 7.4996L7.9427 3.72827L8.88536 4.67093Z" fill="#2A2939"/>
</svg>
