<svg width="23" height="21" viewBox="0 0 23 21" fill="none" xmlns="http://www.w3.org/2000/svg">
<path d="M19.5 5.61108H3.05556C1.9203 5.61108 1 6.53139 1 7.66664V17.9444C1 19.0797 1.9203 20 3.05556 20H19.5C20.6353 20 21.5556 19.0797 21.5556 17.9444V7.66664C21.5556 6.53139 20.6353 5.61108 19.5 5.61108Z" stroke="black" stroke-width="1.5" stroke-linecap="round" stroke-linejoin="round"/>
<path d="M15.389 20V3.55556C15.389 3.01039 15.1724 2.48755 14.7869 2.10206C14.4014 1.71657 13.8786 1.5 13.3334 1.5H9.2223C8.67714 1.5 8.1543 1.71657 7.76881 2.10206C7.38332 2.48755 7.16675 3.01039 7.16675 3.55556V20" stroke="black" stroke-width="1.5" stroke-linecap="round" stroke-linejoin="round"/>
</svg>
