<svg width="75" height="61" viewBox="0 0 75 61" fill="none" xmlns="http://www.w3.org/2000/svg">
<path d="M40.271 33.1271H34.729C34.6375 33.1271 34.5642 33.1635 34.5032 33.2181C34.4421 33.2788 34.4116 33.3577 34.4116 33.4426V45.0553C34.4116 45.1463 34.4482 45.2191 34.5032 45.2798C34.5642 45.3405 34.6436 45.3708 34.729 45.3708H40.2649C40.3564 45.3708 40.4297 45.3344 40.4907 45.2798C40.5518 45.2191 40.5823 45.1402 40.5823 45.0553V33.4426C40.5823 33.3516 40.5457 33.2788 40.4907 33.2181C40.4358 33.1514 40.3564 33.1271 40.271 33.1271ZM4.26025 8.47593H23.4802V2.99722C23.4802 2.166 23.822 1.41973 24.3652 0.879749C24.9145 0.339765 25.6714 0 26.4954 0H48.5046C49.3408 0 50.0854 0.339765 50.6348 0.879749C51.178 1.41973 51.5198 2.17814 51.5198 2.99722V8.47593H70.7397C71.9177 8.47593 72.9797 8.95524 73.7427 9.72578C74.5178 10.4963 75 11.552 75 12.7109V22.9402C70.1843 26.2226 65.2161 29.0196 60.0952 31.3009C54.9438 33.5943 49.6338 35.372 44.1406 36.5976V32.5083C44.1406 31.5739 43.7561 30.7124 43.1396 30.0935C42.5232 29.4807 41.6565 29.0985 40.7104 29.0985H34.2834C33.3435 29.0985 32.4768 29.4807 31.8542 30.0935C31.2378 30.7063 30.8533 31.5678 30.8533 32.5083V36.5066C25.5066 35.2871 20.3247 33.5397 15.3015 31.3009C10.0403 28.9589 4.94385 26.0649 0 22.6672V12.7109C0 11.5399 0.482178 10.4842 1.25732 9.72578C2.02637 8.95524 3.09448 8.47593 4.26025 8.47593ZM75 29.0075V56.7711C75 57.9421 74.5178 58.9978 73.7427 59.7562C72.9675 60.5268 71.9055 61.0061 70.7397 61.0061H4.26025C3.08228 61.0061 2.02026 60.5268 1.25732 59.7562C0.482178 58.9857 0 57.93 0 56.7711V28.7526C4.20532 31.4344 8.53271 33.7763 12.9822 35.7603C18.7256 38.3207 24.6826 40.2804 30.8594 41.5909V45.9897C30.8594 46.924 31.2439 47.7856 31.8604 48.4044C32.4768 49.0172 33.3496 49.3994 34.2896 49.3994H40.7166C41.6565 49.3994 42.5232 49.0172 43.1458 48.4044C43.7622 47.7916 44.1467 46.9301 44.1467 45.9897V41.3786L44.2139 41.6577C50.5066 40.3411 56.5735 38.3631 62.4207 35.7542C66.7297 33.837 70.9229 31.58 75 29.0075ZM46.2097 4.08325H28.8025C28.6987 4.08325 28.6133 4.11965 28.5339 4.19853C28.4729 4.2592 28.418 4.36234 28.418 4.46549V8.36065H46.5759V4.46549C46.5759 4.36234 46.5393 4.2774 46.46 4.19853C46.3989 4.13786 46.2952 4.08325 46.1914 4.08325H46.2097Z" fill="#3B63AE"/>
</svg>
