<svg width="65" height="65" viewBox="0 0 65 65" fill="none" xmlns="http://www.w3.org/2000/svg">
<path fill-rule="evenodd" clip-rule="evenodd" d="M32.5 0C41.4766 0 49.6016 3.63932 55.4785 9.52148C61.3607 15.4036 65 23.5286 65 32.5C65 41.4766 61.3607 49.6016 55.4785 55.4785C49.5964 61.3607 41.4714 65 32.5 65C23.5286 65 15.3984 61.3607 9.52148 55.4785C3.63932 49.6016 0 41.4766 0 32.5C0 23.5234 3.63932 15.3984 9.52148 9.52148C15.3984 3.63932 23.5234 0 32.5 0ZM40.6515 61.932L40.588 61.8897L44.2326 49.6757L36.7159 41.3391L27.8556 41.2598L20.8309 50.0513L24.3538 61.8579L24.2745 61.9108C26.8929 62.6408 29.6488 63.0322 32.5 63.0322C35.3247 63.0322 38.0595 62.6514 40.6515 61.932ZM6.46403 48.4591L19.3392 48.5225L26.0677 40.096L23.2853 31.569L11.9548 26.6496L1.99951 33.8965C2.23755 39.2179 3.84033 44.185 6.46403 48.4591ZM8.87085 13.1608L12.7852 24.8722L23.3541 29.4637L31.5214 23.1319V11.0767L21.4286 4.03605C17.4508 5.58594 13.8749 7.94515 10.9074 10.9127C10.1933 11.6268 9.51091 12.3779 8.87085 13.1608ZM43.217 3.89852L33.4839 10.9867V23.116L41.154 29.0458L52.1619 24.3274L55.9599 12.9598C55.3674 12.2457 54.7432 11.5633 54.0873 10.9074C51.0352 7.85523 47.3376 5.44312 43.217 3.89852ZM62.9952 34.0446L62.9846 34.0499L52.4158 26.3534L41.9369 30.8443L38.7207 40.3817L45.9835 48.4379C46.0152 48.4696 46.0311 48.5067 46.0417 48.549L58.5254 48.4908C61.1279 44.2485 62.7307 39.3237 62.9952 34.0446Z" fill="#3B63AE"/>
</svg>
