<svg width="21" height="21" viewBox="0 0 21 21" fill="none" xmlns="http://www.w3.org/2000/svg">
<path d="M5.25 3.5H12.25C13.1783 3.5 14.0685 3.86875 14.7249 4.52513C15.3813 5.1815 15.75 6.07174 15.75 7C15.75 7.92826 15.3813 8.8185 14.7249 9.47487C14.0685 10.1313 13.1783 10.5 12.25 10.5H5.25V3.5Z" stroke="#949494" stroke-width="2" stroke-linecap="round" stroke-linejoin="round"/>
<path d="M5.25 10.5H13.125C14.0533 10.5 14.9435 10.8687 15.5999 11.5251C16.2563 12.1815 16.625 13.0717 16.625 14C16.625 14.9283 16.2563 15.8185 15.5999 16.4749C14.9435 17.1312 14.0533 17.5 13.125 17.5H5.25V10.5Z" stroke="#949494" stroke-width="2" stroke-linecap="round" stroke-linejoin="round"/>
</svg>
