<svg width="18" height="18" viewBox="0 0 18 18" fill="none" xmlns="http://www.w3.org/2000/svg">
<path d="M0 8.50003C-0.00344086 9.8199 0.304932 11.1219 0.9 12.3C1.60557 13.7118 2.69025 14.8992 4.03255 15.7293C5.37485 16.5594 6.92176 16.9994 8.5 17C9.81987 17.0035 11.1219 16.6951 12.3 16.1L18 18L16.1 12.3C16.6951 11.1219 17.0034 9.8199 17 8.50003C16.9994 6.92179 16.5594 5.37488 15.7293 4.03258C14.8992 2.69028 13.7117 1.6056 12.3 0.900029C11.1219 0.30496 9.81987 -0.00341276 8.5 2.84881e-05H8C5.91565 0.11502 3.94696 0.99479 2.47086 2.47089C0.994762 3.94699 0.114992 5.91568 0 8.00003V8.50003Z" fill="white"/>
</svg>
