<svg width="24" height="16" viewBox="0 0 24 16" fill="none" xmlns="http://www.w3.org/2000/svg">
<path fill-rule="evenodd" clip-rule="evenodd" d="M22.7311 0.468794C23.0311 0.768839 23.1996 1.17573 23.1996 1.59999C23.1996 2.02426 23.0311 2.43115 22.7311 2.73119L9.93112 15.5312C9.63107 15.8311 9.22418 15.9997 8.79992 15.9997C8.37566 15.9997 7.96876 15.8311 7.66872 15.5312L1.26872 9.13119C0.977266 8.82943 0.815995 8.42527 0.819641 8.00575C0.823286 7.58624 0.991556 7.18494 1.28821 6.88828C1.58486 6.59163 1.98616 6.42336 2.40568 6.41972C2.82519 6.41607 3.22936 6.57734 3.53112 6.86879L8.79992 12.1376L20.4687 0.468794C20.7688 0.168841 21.1757 0.000335693 21.5999 0.000335693C22.0242 0.000335693 22.4311 0.168841 22.7311 0.468794Z" fill="#DF475C"/>
</svg>
