<svg width="33" height="33" viewBox="0 0 33 33" fill="none" xmlns="http://www.w3.org/2000/svg">
<path d="M30.7887 8.25023L26.9597 6.03947L24.7495 2.21106H20.3286L16.4997 0.000305176L12.6707 2.21106H8.24983L6.03907 6.04005L2.21076 8.25023V12.6711L0 16.5001L2.21076 20.3291V24.7499L6.03974 26.9607L8.2505 30.7896H12.6713L16.4998 32.9998L20.3287 30.7891H24.7496L26.9604 26.9601L30.7893 24.7493V20.3285L33.0001 16.4995L30.7893 12.6705V8.25023H30.7887ZM15.0105 23.2533C14.7028 23.5609 14.2975 23.7104 13.894 23.7048C13.4904 23.7105 13.0852 23.5609 12.7775 23.2533L7.95194 18.4277C7.34745 17.8232 7.34745 16.8425 7.95194 16.238L9.22941 14.9606C9.83391 14.3561 10.8145 14.3561 11.419 14.9606L13.894 17.4355L21.5799 9.74907C22.1844 9.14458 23.165 9.14458 23.7695 9.74907L25.047 11.0265C25.6515 11.631 25.6515 12.6117 25.047 13.2162L15.0105 23.2533Z" fill="#010002"/>
</svg>
