<svg width="79" height="60" viewBox="0 0 79 60" fill="none" xmlns="http://www.w3.org/2000/svg">
<path fill-rule="evenodd" clip-rule="evenodd" d="M57.8935 14.0347H76.4032C77.0847 14.0347 77.7384 14.3073 78.2204 14.7924C78.7023 15.2776 78.9731 15.9356 78.9731 16.6218V56.2229C78.9731 56.909 78.7023 57.5671 78.2204 58.0522C77.7384 58.5374 77.0847 58.81 76.4032 58.81H57.8935C57.2119 58.81 56.5582 58.5374 56.0763 58.0522C55.5943 57.5671 55.3236 56.909 55.3236 56.2229V16.5894C55.332 15.9089 55.6065 15.2592 56.0875 14.781C56.5686 14.3028 57.2174 14.0347 57.8935 14.0347ZM1.92743 0H68.4557C68.9644 0.00832679 69.4498 0.215422 69.8095 0.577506C70.1692 0.939591 70.3749 1.42829 70.3832 1.94028V7.01735H67.8133V4.52733C67.8133 4.06591 67.6312 3.62338 67.3071 3.29711C66.983 2.97084 66.5434 2.78754 66.085 2.78754H4.28531C3.82918 2.79095 3.39288 2.97576 3.07155 3.30166C2.75021 3.62757 2.56989 4.06814 2.5699 4.52733V40.0151C2.57158 40.4749 2.75332 40.9154 3.07568 41.2412C3.39805 41.5669 3.83501 41.7515 4.29174 41.7549H48.8924V49.2573H1.92743C1.41624 49.2573 0.925993 49.0529 0.56453 48.689C0.203068 48.3251 0 47.8316 0 47.317L0 1.94028C0.00827162 1.42829 0.213995 0.939591 0.57368 0.577506C0.933365 0.215422 1.41882 0.00832679 1.92743 0V0ZM26.3415 51.9737H44.0674C44.1124 55.0588 45.3523 57.7945 48.796 60H21.6129C24.3691 57.9886 26.3415 55.5632 26.3415 51.9737ZM73.39 24.6287H75.2339V25.6893H73.39V24.6287ZM67.1451 48.1902C67.693 48.1902 68.2287 48.3538 68.6842 48.6604C69.1397 48.967 69.4946 49.4027 69.704 49.9124C69.9134 50.4222 69.9678 50.983 69.8605 51.5239C69.7531 52.0648 69.4887 52.5615 69.1008 52.9511C68.7129 53.3407 68.2189 53.6056 67.6814 53.7125C67.1438 53.8193 66.5868 53.7631 66.081 53.5512C65.5751 53.3392 65.1431 52.9809 64.8396 52.5217C64.5361 52.0624 64.3748 51.5228 64.376 50.9712C64.3777 50.233 64.6702 49.5257 65.1893 49.0043C65.7085 48.4829 66.4118 48.1901 67.1451 48.1902ZM58.7929 22.2033H75.4973C75.637 22.2033 75.771 22.2592 75.8698 22.3586C75.9686 22.4581 76.0241 22.593 76.0241 22.7336V25.6247C76.0241 25.7659 75.9688 25.9015 75.8702 26.002C75.7716 26.1025 75.6376 26.1598 75.4973 26.1615H58.7929C58.6532 26.1615 58.5192 26.1056 58.4204 26.0061C58.3216 25.9067 58.2661 25.7718 58.2661 25.6311V22.7336C58.2661 22.593 58.3216 22.4581 58.4204 22.3586C58.5192 22.2592 58.6532 22.2033 58.7929 22.2033Z" fill="#3B63AE"/>
</svg>
