<svg xmlns="http://www.w3.org/2000/svg" xmlns:xlink="http://www.w3.org/1999/xlink" viewBox="0,0,256,256" width="64px" height="64px" fill-rule="nonzero"><g fill="#df475c" fill-rule="nonzero" stroke="none" stroke-width="1" stroke-linecap="butt" stroke-linejoin="miter" stroke-miterlimit="10" stroke-dasharray="" stroke-dashoffset="0" font-family="none" font-weight="none" font-size="none" text-anchor="none" style="mix-blend-mode: normal"><g transform="scale(3.55556,3.55556)"><path d="M33,13c-1.105,0 -2,0.895 -2,2v1h-13c-2.209,0 -4,1.791 -4,4c0,1.97365 1.43236,3.60263 3.3125,3.92969l2.39453,28.73437c0.343,4.113 3.84661,7.33594 7.97461,7.33594h18.63672c4.128,0 7.63161,-3.22194 7.97461,-7.33594l2.39453,-28.73437c1.88014,-0.32705 3.3125,-1.95604 3.3125,-3.92969c0,-2.209 -1.791,-4 -4,-4h-13v-1c0,-1.105 -0.895,-2 -2,-2z"></path></g></g></svg>