<svg width="18" height="22" viewBox="0 0 18 22" fill="none" xmlns="http://www.w3.org/2000/svg">
<path d="M15.0041 10.7954L15.3199 7.00519H15.8727C16.2909 7.00519 16.63 6.66607 16.63 6.24785V4.86578C16.63 3.56237 15.5696 2.50193 14.2662 2.50193H11.6318V2.15207C11.6318 0.965333 10.6663 0 9.47972 0H7.27083C6.08416 0 5.11883 0.965333 5.11883 2.152V2.50185H2.48446C1.18105 2.50185 0.120605 3.5623 0.120605 4.8657V6.24778C0.120605 6.666 0.459717 7.00511 0.877939 7.00511H1.43068L2.45972 19.3556C2.58327 20.8384 3.84572 22 5.33372 22H11.4166C12.8869 22 14.1362 20.8657 14.285 19.4081C16.3342 18.9855 17.8796 17.1673 17.8796 14.9948C17.8796 13.0851 16.6849 11.4503 15.0041 10.7954ZM6.63349 2.152C6.63349 1.80059 6.91942 1.51467 7.27083 1.51467H9.47972C9.8312 1.51467 10.1171 1.80059 10.1171 2.152V2.50185H6.63349V2.152ZM1.63512 5.49059V4.86578C1.63512 4.39748 2.01609 4.01652 2.48438 4.01652H14.2661C14.7344 4.01652 15.1153 4.39748 15.1153 4.86578V5.49059H1.63512ZM11.4167 20.4853H5.33379C4.62727 20.4853 4.02786 19.9339 3.9692 19.2298L2.95046 7.00519H13.8L13.5094 10.4923C13.4642 10.491 13.4191 10.4888 13.3735 10.4888C10.8888 10.4888 8.86749 12.5102 8.86749 14.9948C8.86749 17.265 10.5553 19.1474 12.7418 19.4556C12.5884 20.0481 12.0456 20.4853 11.4167 20.4853ZM13.3735 17.9862C11.724 17.9862 10.3821 16.6443 10.3821 14.9948C10.3821 13.3453 11.724 12.0034 13.3735 12.0034C15.023 12.0034 16.3649 13.3453 16.3649 14.9948C16.3649 16.6443 15.023 17.9862 13.3735 17.9862Z" fill="#FF0000"/>
</svg>
