<svg width="37" height="23" viewBox="0 0 37 23" fill="none" xmlns="http://www.w3.org/2000/svg">
<path d="M4.76309 17.1907V15.0704V14.3283V2.82568C4.76309 2.82568 4.76309 2.81811 4.77067 2.81811H18.0755H27.2837C27.2912 2.81811 27.2912 2.81811 27.2912 2.82568V6.02127C27.9046 5.68808 28.6013 5.49877 29.3434 5.49877H29.9946C30.0249 5.49877 30.0552 5.50634 30.0855 5.50634V2.83325C30.0855 1.28847 28.8285 0.0314331 27.2837 0.0314331H16.8033H4.77067C3.22588 0.0314331 1.96885 1.28847 1.96885 2.83325V14.3359V14.9492V17.0089C1.96885 17.3724 1.84011 17.7283 1.61294 18.0085L0.166595 19.7805C0.0605799 19.9168 0 20.0834 0 20.2575V21.0678C0 22.1204 0.848118 22.9685 1.90069 22.9685H20.7259V20.9012C20.7259 19.9849 21.1348 19.1217 21.839 18.5386C22.4524 18.0312 23.0734 17.592 23.6564 17.1983H4.76309V17.1907ZM19.0599 20.197C19.0599 20.727 18.6283 21.1662 18.0907 21.1662H13.9561C13.426 21.1662 12.9868 20.7346 12.9868 20.197V19.9925H19.0524V20.197H19.0599Z" fill="black"/>
<path d="M36.4843 19.7578C34.6139 18.2205 32.592 17.1983 32.1831 17.0014C32.1377 16.9787 32.1074 16.9332 32.1074 16.8802V13.9648C32.4709 13.7225 32.7132 13.306 32.7132 12.8289V9.80752C32.7132 8.30059 31.494 7.08142 29.9871 7.08142H29.6615H29.3359C27.8289 7.08142 26.6098 8.30059 26.6098 9.80752V12.8289C26.6098 13.306 26.8521 13.7149 27.2156 13.9648V16.8802C27.2156 16.9332 27.1853 16.9787 27.1398 17.0014C26.7309 17.2058 24.7091 18.2205 22.8387 19.7578C22.4979 20.0379 22.3086 20.4544 22.3086 20.8861V22.9534H29.6539H36.9992V20.8861C37.0144 20.4544 36.8175 20.0379 36.4843 19.7578Z" fill="black"/>
<path d="M15.2512 8.9291H12.9946C12.5781 8.94424 12.2373 9.28501 12.2373 9.70906V14.0027C12.2373 14.4343 12.5856 14.7826 13.0173 14.7826H19.0147C19.4463 14.7826 19.7946 14.4343 19.7946 14.0027V9.70906C19.7946 9.27743 19.4463 8.9291 19.0147 8.9291H18.992V7.98254C18.992 6.33174 17.6441 4.92325 15.9857 4.95354C14.3803 4.98383 13.0854 6.29387 13.0854 7.90681V7.99768C13.0854 8.13399 13.199 8.24758 13.3353 8.24758H14.1304C14.2667 8.24758 14.3803 8.13399 14.3803 7.99768V7.96739C14.3803 7.08141 15.0467 6.30145 15.9327 6.24087C16.8944 6.18029 17.6971 6.94511 17.6971 7.89924V8.9291H15.2512ZM16.4703 12.049C16.4097 12.0944 16.3946 12.1398 16.3946 12.208C16.3946 12.526 16.3946 12.8365 16.3946 13.1545C16.4022 13.2833 16.334 13.412 16.2204 13.4726C15.9478 13.6165 15.6676 13.4196 15.6676 13.1545C15.6676 12.8365 15.6676 12.526 15.6676 12.208C15.6676 12.1474 15.6525 12.102 15.5995 12.0565C15.3117 11.8445 15.2209 11.4886 15.3647 11.1706C15.501 10.8601 15.8418 10.6859 16.1599 10.7465C16.5158 10.8146 16.7657 11.1024 16.7657 11.4583C16.7732 11.7006 16.6672 11.9051 16.4703 12.049Z" fill="black"/>
</svg>
