<svg width="19" height="19" viewBox="0 0 19 19" fill="none" xmlns="http://www.w3.org/2000/svg">
<path d="M9.5 0.15625C7.65198 0.15625 5.84547 0.704251 4.30889 1.73096C2.77232 2.75766 1.57471 4.21695 0.867505 5.9243C0.160299 7.63165 -0.0247389 9.51037 0.335792 11.3229C0.696322 13.1354 1.58623 14.8003 2.89298 16.107C4.19972 17.4138 5.86462 18.3037 7.67713 18.6642C9.48964 19.0247 11.3684 18.8397 13.0757 18.1325C14.783 17.4253 16.2423 16.2277 17.269 14.6911C18.2958 13.1545 18.8438 11.348 18.8438 9.5C18.8409 7.02276 17.8555 4.64781 16.1039 2.89613C14.3522 1.14446 11.9772 0.159113 9.5 0.15625ZM12.7344 6.625C12.9476 6.625 13.1561 6.68823 13.3334 6.8067C13.5106 6.92516 13.6488 7.09354 13.7304 7.29054C13.812 7.48755 13.8334 7.70432 13.7918 7.91346C13.7502 8.12259 13.6475 8.3147 13.4967 8.46548C13.3459 8.61625 13.1538 8.71893 12.9447 8.76053C12.7356 8.80213 12.5188 8.78078 12.3218 8.69918C12.1248 8.61758 11.9564 8.4794 11.838 8.3021C11.7195 8.1248 11.6563 7.91636 11.6563 7.70312C11.6563 7.41719 11.7699 7.14298 11.972 6.94079C12.1742 6.73861 12.4484 6.62501 12.7344 6.625ZM6.26563 6.625C6.47886 6.625 6.68731 6.68823 6.8646 6.8067C7.0419 6.92516 7.18009 7.09354 7.26169 7.29054C7.34329 7.48755 7.36464 7.70432 7.32304 7.91346C7.28144 8.12259 7.17876 8.3147 7.02798 8.46548C6.8772 8.61625 6.6851 8.71893 6.47596 8.76053C6.26683 8.80213 6.05005 8.78078 5.85305 8.69918C5.65605 8.61758 5.48767 8.4794 5.3692 8.3021C5.25073 8.1248 5.1875 7.91636 5.1875 7.70312C5.18752 7.41719 5.30111 7.14298 5.5033 6.94079C5.70548 6.73861 5.9797 6.62501 6.26563 6.625ZM13.8579 12.0159C13.4161 12.7807 12.7808 13.4157 12.0159 13.8573C11.2509 14.2988 10.3832 14.5312 9.50002 14.5312C8.61679 14.5313 7.74912 14.2988 6.98417 13.8573C6.21922 13.4158 5.58394 12.7807 5.14214 12.0159C5.09489 11.9342 5.06419 11.844 5.05179 11.7504C5.0394 11.6569 5.04556 11.5618 5.06992 11.4706C5.09428 11.3794 5.13637 11.2939 5.19377 11.219C5.25117 11.144 5.32277 11.0811 5.40448 11.0339C5.48619 10.9866 5.5764 10.9559 5.66998 10.9435C5.76355 10.9311 5.85865 10.9373 5.94984 10.9617C6.04103 10.986 6.12653 11.0281 6.20146 11.0855C6.27639 11.1429 6.33927 11.2145 6.38653 11.2962C6.70209 11.8427 7.15594 12.2966 7.70248 12.6121C8.24901 12.9276 8.86898 13.0938 9.50006 13.0938C10.1311 13.0937 10.7511 12.9276 11.2976 12.6121C11.8442 12.2965 12.298 11.8427 12.6136 11.2962C12.6608 11.2145 12.7237 11.1429 12.7986 11.0855C12.8736 11.0281 12.9591 10.986 13.0502 10.9616C13.1414 10.9373 13.2365 10.9311 13.3301 10.9435C13.4237 10.9559 13.5139 10.9866 13.5956 11.0339C13.6773 11.0811 13.7489 11.144 13.8063 11.219C13.8637 11.2939 13.9057 11.3794 13.9301 11.4706C13.9545 11.5617 13.9606 11.6568 13.9482 11.7504C13.9358 11.844 13.9051 11.9342 13.8579 12.0159Z" fill="black"/>
</svg>
