<svg width="69" height="68" viewBox="0 0 69 68" fill="none" xmlns="http://www.w3.org/2000/svg">
<path d="M20.7 0C14.9925 0 10.35 4.57526 10.35 10.2C10.35 15.8247 14.9925 20.4 20.7 20.4C26.4074 20.4 31.05 15.8247 31.05 10.2C31.05 4.57526 26.4074 0 20.7 0ZM20.7 17C16.8889 17 13.8 13.9558 13.8 10.2C13.8 6.4442 16.8889 3.4 20.7 3.4C24.511 3.4 27.6 6.4442 27.6 10.2C27.6 13.9558 24.511 17 20.7 17Z" fill="#12544D"/>
<path d="M20.7 51H12.075C11.1251 51 10.35 50.2362 10.35 49.3V34C10.35 33.0605 9.57836 32.3 8.62502 32.3C7.67169 32.3 6.90002 33.0605 6.90002 34V49.3C6.90002 52.1118 9.2219 54.4 12.075 54.4H13.8V64.6H12.075C11.1217 64.6 10.35 65.3605 10.35 66.3C10.35 67.2395 11.1217 68 12.075 68H18.975C19.9284 68 20.7 67.2395 20.7 66.3C20.7 65.3605 19.9284 64.6 18.975 64.6H17.25V54.4H20.7C22.0881 54.4 22.4043 55.3327 22.425 56.117C22.4354 57.0463 23.2036 57.8 24.15 57.8C25.1034 57.8 25.875 57.0395 25.875 56.1C25.875 54.051 24.4973 51 20.7 51Z" fill="#12544D"/>
<path d="M60.375 34H31.05C30.0967 34 29.325 34.7605 29.325 35.7C29.325 36.6395 30.0967 37.4 31.05 37.4H32.775V40.0497L27.6 38.3497V30.6C27.6 26.851 24.5042 23.8 20.7 23.8C16.8959 23.8 13.8 26.851 13.8 30.6V44.2C13.8 45.7605 14.8776 47.1205 16.4129 47.498L28.0946 50.3767L31.1169 65.2675C31.4399 66.8565 32.8555 68 34.5 68H58.65V37.4H60.375C61.3284 37.4 62.1 36.6395 62.1 35.7C62.1 34.7605 61.3284 34 60.375 34ZM32.775 56.1L31.05 47.6L17.25 44.2V30.6C17.25 28.722 18.7945 27.2 20.7 27.2C22.6056 27.2 24.15 28.722 24.15 30.6V40.8L32.775 43.6333V56.1ZM55.2 64.6H36.225V37.4H55.2V64.6Z" fill="#12544D"/>
<path d="M53.8925 13.6498C52.9529 13.4278 52.0295 13.9751 51.8007 14.8886L48.6772 27.2H36.225C35.2717 27.2 34.5 27.9605 34.5 28.9C34.5 29.8395 35.2717 30.6 36.225 30.6H50.025C50.8162 30.6 51.5074 30.0685 51.6995 29.3115L55.1495 15.7115C55.3783 14.8013 54.8193 13.8788 53.8925 13.6498Z" fill="#12544D"/>
</svg>
