<svg width="19" height="16" viewBox="0 0 19 16" fill="none" xmlns="http://www.w3.org/2000/svg">
<path d="M18.8333 14.6725C18.8318 14.8914 18.7442 15.1008 18.5896 15.2557C18.4349 15.4105 18.2255 15.4983 18.0067 15.5H2.99333C2.77401 15.4998 2.56375 15.4125 2.40874 15.2573C2.25373 15.1022 2.16667 14.8918 2.16667 14.6725V13.8333H17.1667V4.08333L10.5 10.0833L2.16667 2.58333V1.33333C2.16667 1.11232 2.25446 0.900358 2.41074 0.744078C2.56702 0.587797 2.77899 0.5 3 0.5H18C18.221 0.5 18.433 0.587797 18.5893 0.744078C18.7455 0.900358 18.8333 1.11232 18.8333 1.33333V14.6725ZM4.195 2.16667L10.5 7.84167L16.805 2.16667H4.195ZM0.5 10.5H7.16667V12.1667H0.5V10.5ZM0.5 6.33333H4.66667V8H0.5V6.33333Z" fill="#DF475C"/>
</svg>
