<svg width="14" height="14" viewBox="0 0 14 14" fill="none" xmlns="http://www.w3.org/2000/svg">
<path fill-rule="evenodd" clip-rule="evenodd" d="M4 0C1.79086 0 0 1.79086 0 4V10C0 12.2091 1.79086 14 4 14H10C12.2091 14 14 12.2091 14 10V4C14 1.79086 12.2091 0 10 0H4ZM9.15599 4.32801H8.40399C7.812 4.32801 7.7 4.60001 7.7 5.02001V5.92801H9.10799L8.92399 7.35201H7.7V11H6.228V7.35201H5V5.92801H6.228V4.88001C6.228 3.66401 6.972 3.00001 8.05999 3.00001C8.42606 2.99946 8.79189 3.01815 9.15599 3.05601V4.32801Z" fill="#DF475C"/>
</svg>
