<svg width="38" height="38" viewBox="0 0 38 38" fill="none" xmlns="http://www.w3.org/2000/svg">
<path d="M33.844 15.5563C33.844 15.5563 32.0627 17.2188 29.0346 19.1781C28.2033 14.3687 25.8877 8.43125 21.3752 1.1875C21.3752 1.1875 19.8908 8.96562 14.9627 16.2688C12.8252 12.9437 11.8752 10.3313 11.8752 10.3313C-3.56229 25.8281 9.2627 36.8125 17.3377 36.8125C27.669 36.8125 36.7533 31.825 33.844 15.5563Z" fill="#FF9D33"/>
<path d="M27.728 29.3313C28.6187 27.3719 29.2718 24.8188 29.3905 21.6125C29.3905 21.6125 28.1437 22.6813 26.0061 24.0469C25.4124 20.8406 23.8093 16.9219 20.6624 12.0531C20.6624 12.0531 19.653 17.2188 16.2093 22.1469C14.7249 19.95 14.0718 18.1688 14.0718 18.1688C11.5187 22.2063 10.5093 25.4125 10.4499 27.9656C9.0249 27.4313 8.13428 27.0156 8.13428 27.0156C10.5687 34.2594 15.6155 35.8625 17.8718 35.8625C21.9093 35.8625 26.0061 34.675 30.0436 28.9156C30.0436 28.8563 29.153 29.0938 27.728 29.3313Z" fill="#FFCE31"/>
<path d="M13.0029 26.0656C13.0029 26.0656 14.6654 28.3219 15.9123 27.7875C15.9123 27.7875 18.2873 24.0469 21.7311 21.9688C21.7311 21.9688 21.0186 27.6687 21.8498 28.6781C22.9186 30.0437 25.8279 27.1937 25.8279 27.1937C25.8279 30.5781 22.1467 34.7937 18.8217 34.7937C15.6154 34.7937 10.9842 31.1125 13.0029 26.0656Z" fill="#FFDF85"/>
<path d="M29.5687 10.7469C30.8155 8.96563 31.6468 7.06562 31.6468 7.06562C33.7249 10.5094 32.478 12.5875 31.5874 13.2406C30.3405 14.1906 28.1437 12.825 29.5687 10.7469ZM6.8874 10.1531C5.64053 8.075 5.52178 5.4625 5.52178 5.4625C2.55303 9.91563 3.68115 12.4094 4.69053 13.1219C5.99678 14.1313 8.25303 12.5875 6.8874 10.1531ZM13.7749 5.52188C13.953 4.09688 13.3593 2.67188 13.3593 2.67188C16.1499 4.5125 16.1499 6.05625 15.7937 6.70937C15.2593 7.48125 13.5968 7.125 13.7749 5.52188Z" fill="#FF9D33"/>
</svg>
