<svg width="12" height="13" viewBox="0 0 12 13" fill="none" xmlns="http://www.w3.org/2000/svg">
<path d="M8.33342 3.58333C8.33342 4.20217 8.08758 4.79566 7.65 5.23325C7.21241 5.67083 6.61892 5.91667 6.00008 5.91667C5.38124 5.91667 4.78775 5.67083 4.35017 5.23325C3.91258 4.79566 3.66675 4.20217 3.66675 3.58333C3.66675 2.96449 3.91258 2.371 4.35017 1.93342C4.78775 1.49583 5.38124 1.25 6.00008 1.25C6.61892 1.25 7.21241 1.49583 7.65 1.93342C8.08758 2.371 8.33342 2.96449 8.33342 3.58333ZM6.00008 7.66667C4.91711 7.66667 3.8785 8.09687 3.11273 8.86265C2.34696 9.62842 1.91675 10.667 1.91675 11.75H10.0834C10.0834 10.667 9.65321 9.62842 8.88744 8.86265C8.12166 8.09687 7.08305 7.66667 6.00008 7.66667Z" stroke="#2A2939" stroke-opacity="0.5" stroke-width="2" stroke-linecap="round" stroke-linejoin="round"/>
</svg>
