<svg width="22" height="22" viewBox="0 0 22 22" fill="none" xmlns="http://www.w3.org/2000/svg">
<g clip-path="url(#clip0_640_593)">
<path d="M4.82741 8.95082C5.68228 6.36041 8.11664 4.5 11.0001 4.5C12.5501 4.5 13.9501 5.05 15.0501 5.95L18.2501 2.75C16.3001 1.05 13.8001 0 11.0001 0C6.66429 0 2.93133 2.47344 1.13672 6.09586L4.82741 8.95082Z" fill="#EA4335"/>
<path d="M14.7039 16.5115C13.7049 17.1566 12.4355 17.5 10.9999 17.5C8.12755 17.5 5.7008 15.6538 4.83717 13.0789L1.13428 15.8904C2.92666 19.5192 6.65952 22 10.9999 22C13.6884 22 16.2573 21.0443 18.1813 19.2496L14.7039 16.5115Z" fill="#34A853"/>
<path d="M18.1813 19.2496C20.1934 17.3728 21.5 14.5784 21.5 11C21.5 10.35 21.4 9.65 21.25 9H11V13.25H16.9C16.6089 14.6792 15.8274 15.7861 14.704 16.5115L18.1813 19.2496Z" fill="#4A90E2"/>
<path d="M4.83723 13.0789C4.61847 12.4266 4.5 11.7276 4.5 11C4.5 10.2834 4.6149 9.59458 4.82735 8.95082L1.13666 6.09586C0.400205 7.57206 0 9.23577 0 11C0 12.7596 0.407716 14.4193 1.13434 15.8904L4.83723 13.0789Z" fill="#FBBC05"/>
</g>
<defs>
<clipPath id="clip0_640_593">
<rect width="22" height="22" fill="white"/>
</clipPath>
</defs>
</svg>
