<svg width="64" height="78" viewBox="0 0 64 78" fill="none" xmlns="http://www.w3.org/2000/svg">
<path d="M34.0355 4.8377C34.4063 4.43496 34.647 3.93002 34.7264 3.38866C34.8057 2.84731 34.72 2.29463 34.4804 1.80264C34.2407 1.31064 33.8583 0.90214 33.3829 0.630342C32.9074 0.358545 32.3611 0.236056 31.815 0.278832C31.4468 0.229313 31.0722 0.278952 30.7297 0.42261C30.3872 0.566269 30.0894 0.798727 29.8671 1.09593C29.593 1.3207 29.3824 1.61299 29.256 1.94394C29.1296 2.27488 29.0918 2.63304 29.1464 2.98302C29.1464 3.96224 29.2633 4.16327 30.1398 4.96739C31.0163 5.77152 31.1657 5.83636 32.2695 5.71964C32.6137 5.72875 32.9549 5.65305 33.2629 5.49924C33.5709 5.34542 33.8363 5.11822 34.0355 4.8377ZM31.8539 72.7148C31.789 69.3621 31.6721 67.5658 31.5163 67.5723C31.3605 67.5788 31.328 69.3946 31.4124 72.851C31.4903 75.847 31.6332 78.0389 31.75 78C31.9125 76.2431 31.9472 74.4767 31.8539 72.7148ZM30.7761 70.0366C30.7112 68.0068 30.3995 67.6047 29.8152 68.7915C29.3931 69.641 29.5554 71.1779 30.1788 72.3257L30.5553 73.0131L30.6917 72.436C30.79 71.6402 30.8182 70.8373 30.7761 70.0366ZM33.4382 72.1701C33.7563 71.5216 33.6849 69.3167 33.3408 68.986C32.8213 68.4802 32.7304 68.7201 32.6915 70.6721C32.6915 72.0923 32.7304 72.6175 32.9317 72.6175C33.133 72.6175 33.3148 72.41 33.4382 72.1636V72.1701ZM35.2951 71.0417C36.7235 68.6294 36.1262 66.8071 33.1655 64.5569L31.7695 63.5063C31.1693 63.0302 30.6287 62.4837 30.1593 61.8786C29.5814 61.0745 29.51 60.8021 29.5749 59.6089L29.6463 58.2536L28.6789 57.6699C28.275 57.3868 27.8212 57.1822 27.3414 57.0668C26.361 57.0668 25.9194 60.0499 26.6531 61.71C27.3868 63.3701 29.497 65.0886 31.7241 65.9446C32.8863 66.3921 34.2368 67.7928 34.4381 68.772C34.5908 69.8065 34.5177 70.8617 34.2238 71.8653C34.081 72.3776 34.1069 72.4035 34.4446 72.1182C34.7713 71.779 35.0568 71.4024 35.2951 70.9963V71.0417ZM28.6724 70.8861C28.4582 69.3492 28.6724 68.3375 29.3607 67.5658C30.0489 66.7941 29.932 66.3272 29.049 66.1197C28.5361 66.003 28.3283 66.1197 27.8868 66.6515C27.4453 67.1832 27.3609 67.5075 27.4777 68.8563C27.4987 69.678 27.7217 70.482 28.127 71.1974C28.3057 71.4976 28.5241 71.7724 28.7763 72.0145C28.8072 71.6369 28.7831 71.2568 28.7049 70.8861H28.6724ZM35.386 63.422C35.9409 62.9391 36.3827 62.3403 36.68 61.6679C36.9774 60.9954 37.123 60.266 37.1066 59.5311C37.0677 57.3262 35.6717 55.478 32.7499 53.7531C31.0618 52.7609 29.4321 51.3796 28.9971 50.5755C28.738 50.0269 28.6174 49.4233 28.6457 48.8174C28.674 48.2115 28.8503 47.6217 29.1594 47.0996C29.8087 46.1463 29.8087 46.1722 27.6985 44.9077C26.283 44.0971 26.1857 44.0971 25.2637 45.8869C24.8253 46.7341 24.5757 47.6659 24.5319 48.6185C24.4882 49.5711 24.6515 50.5219 25.0105 51.4055C25.3582 52.6016 26.0516 53.6686 27.0038 54.4729C27.8591 55.3167 28.835 56.0291 29.8996 56.587C32.7629 57.9617 34.1654 59.7516 33.3732 61.0161C33.13 61.5392 33.0164 62.113 33.0421 62.6892C33.0421 64.5763 33.8992 64.8422 35.386 63.4479V63.422ZM32.1396 61.9888C32.1396 60.0953 31.9123 59.2976 31.341 59.3041C31.0358 59.3041 31.1592 62.3909 31.4838 62.7022C31.9708 63.1691 32.1331 62.994 32.1331 61.9888H32.1396ZM30.6333 59.8359C30.5294 59.4533 30.5164 59.4533 30.3606 59.8359C30.2663 60.0956 30.2663 60.3802 30.3606 60.64C30.5359 61.0161 30.5488 61.0161 30.6333 60.64C30.6819 60.3742 30.6819 60.1017 30.6333 59.8359ZM36.5223 54.2135C37.3476 53.6431 38.0209 52.8801 38.4837 51.9906C38.9465 51.1012 39.1848 50.1123 39.1778 49.1099C39.3446 48.0322 39.1138 46.9307 38.5286 46.0101C38.1862 45.3236 37.7491 44.6883 37.23 44.123C35.6195 42.9031 33.925 41.798 32.1591 40.8157C31.7111 40.6017 30.6917 40.0116 29.8866 39.5188C28.6335 38.7276 28.3608 38.4293 27.9387 37.3917C27.1531 35.4463 27.2894 34.052 28.3673 32.8134C29.0165 32.1066 28.7633 31.7434 27.2375 31.0106L25.9389 30.3621L25.1468 31.2895C23.9261 32.7421 23.5236 33.9418 23.5625 36.0753C23.4952 37.2242 23.7612 38.368 24.3287 39.3696C25.3263 41.2146 26.8431 42.7274 28.6919 43.721C31.6007 45.3487 33.9641 46.9634 34.3861 47.6119C34.6597 48.0925 34.8196 48.6294 34.8536 49.1812C34.8012 50.2657 34.3798 51.2997 33.6589 52.1124C33.0616 52.6247 33.2758 53.2148 34.3082 53.9152C35.4899 54.7063 35.6717 54.7323 36.5158 54.194L36.5223 54.2135ZM32.3604 50.7895C32.3604 47.6832 32.3604 47.6184 31.6007 47.2423L30.906 46.905L30.9449 49.285C30.9839 51.4639 31.0423 51.7363 31.5033 52.1513C31.789 52.4042 32.0941 52.5339 32.1526 52.4301C32.2996 51.8875 32.3566 51.3246 32.3214 50.7635L32.3604 50.7895ZM33.8148 50.0307C33.8148 48.7792 33.3667 48.9348 33.3148 50.1994C33.2758 51.0878 33.3148 51.2823 33.5291 51.0683C33.7231 50.7575 33.8224 50.397 33.8148 50.0307ZM30.3021 48.7338C29.958 48.4095 29.7178 49.3823 29.945 50.1215C30.1203 50.7181 30.1333 50.7117 30.3346 49.8492C30.4709 49.259 30.4579 48.8894 30.3021 48.7338ZM37.4443 41.1789C38.3602 40.5003 39.0918 39.6038 39.5726 38.5709C40.0534 37.538 40.2681 36.4015 40.1972 35.2647C40.2347 34.442 40.0698 33.6226 39.7167 32.8783C39.2752 32.0028 37.2754 29.8304 36.9508 29.8304C36.3775 29.5835 35.8239 29.293 35.2951 28.9614C33.9466 28.2485 32.5308 27.6706 31.0683 27.2364C27.9712 26.3156 25.913 25.2391 24.8676 23.994C24.3173 23.3894 24.0159 22.5997 24.0235 21.7827C23.8872 20.3365 24.0625 20.1031 24.7377 20.8229C25.6792 21.8281 27.9842 21.4714 28.9516 20.2133C29.4645 19.5648 29.4061 19.059 28.7893 18.8126C27.9371 18.4845 27.0169 18.3721 26.1106 18.4852C25.2043 18.5984 24.3402 18.9336 23.595 19.4611C22.6864 20.067 22.0452 20.998 21.8036 22.0622C21.5619 23.1264 21.7384 24.2426 22.2964 25.1807C23.3613 27.1262 24.8351 28.2156 29.8476 30.5826C34.068 32.5735 34.8276 33.0404 35.4899 34.0715C36.4054 35.4852 35.8925 37.716 34.3082 39.214C33.4252 40.044 33.3473 40.4007 33.9381 40.9065C34.5602 41.4026 35.2822 41.7587 36.0548 41.9506C36.5637 41.7645 37.0345 41.4877 37.4443 41.1335V41.1789ZM32.659 36.9637C32.7694 33.9677 32.7629 33.9353 32.2175 33.5332C31.5098 33.008 30.8605 32.8134 30.6527 33.0598C30.5484 34.1381 30.5484 35.224 30.6527 36.3023C30.841 39.2529 30.8605 39.3567 31.4254 39.6485C32.4902 40.2062 32.5162 40.1413 32.6331 36.9573L32.659 36.9637ZM34.516 38.0467C34.7994 37.6683 34.959 37.2117 34.9729 36.7393C34.9868 36.267 34.8545 35.8018 34.5939 35.4074C34.3277 34.9988 34.0095 34.7265 33.8862 34.8043C33.594 34.9923 33.6589 38.5914 33.9576 38.5914C34.081 38.5914 34.3277 38.345 34.516 38.0467ZM30.0099 36.2504C29.971 34.493 29.8996 34.0715 29.6269 34.078C29.2373 34.078 28.9451 34.5968 28.7438 35.6343C28.6566 36.2455 28.7754 36.8683 29.0815 37.4047C29.8217 39 30.0554 38.7017 30.0099 36.2504ZM37.7494 28.6112C39.9115 27.4375 41.7295 24.7203 41.8724 22.4765C41.9503 21.1796 41.8724 21.0369 41.2231 20.1939C40.7614 19.5636 40.1515 19.0564 39.4472 18.7171C38.7429 18.3779 37.9658 18.2169 37.1845 18.2484C35.6587 18.2484 34.4575 18.7348 34.3472 19.3508C34.4336 19.7843 34.6621 20.1767 34.9965 20.4662C35.5938 21.1147 35.86 21.212 37.0482 21.2768C38.2364 21.3417 38.4961 21.2768 39.1194 20.7386C39.3689 20.4929 39.6533 20.2853 39.9635 20.1225C40.1583 20.1225 39.8921 21.9707 39.6194 22.5414C38.5627 24.4198 36.8813 25.8697 34.8666 26.6398C33.6979 27.0419 33.8472 27.4764 35.425 28.2675C36.8469 28.9809 37.0871 29.0198 37.8014 28.6307L37.7494 28.6112ZM32.8473 26.5879C32.9252 25.7449 32.9772 24.1432 33.1135 18.7153C33.1979 15.4275 33.3018 12.6195 33.3473 12.4639C33.3927 12.3083 33.4252 10.9724 33.4252 9.48086V6.77019L31.815 6.66643C31.2679 6.59987 30.7162 6.58035 30.1658 6.60806C30.1268 6.64697 30.1333 11.0307 30.1658 16.3354C30.2307 23.9162 30.3086 26.0627 30.5359 26.1729C31.1497 26.4936 31.8053 26.7271 32.4837 26.8668C32.5599 26.8724 32.6353 26.8486 32.6945 26.8004C32.7537 26.7521 32.7921 26.6831 32.8019 26.6074L32.8473 26.5879ZM35.3925 25.693C36.4314 25.1937 38.0481 23.7476 38.0416 23.352C38.0244 23.2747 37.9789 23.2065 37.9141 23.1609C37.8492 23.1154 37.7697 23.0956 37.691 23.1056C37.5027 23.1056 37.3663 22.9953 37.3988 22.8462C37.4313 22.697 37.0871 22.496 36.6521 22.3857C36.0572 22.1898 35.5044 21.884 35.0224 21.4844L34.1978 20.784L34.1524 22.2366C34.1096 22.7587 34.1358 23.2842 34.2303 23.7995C34.6299 23.7925 35.0236 23.702 35.386 23.5336C36.8015 23.0213 36.6846 23.3779 35.2367 24.0913C34.0745 24.649 33.7498 25.1224 34.0355 25.8292C34.2043 26.2507 34.2498 26.2442 35.3925 25.693ZM29.7437 25.291C29.5749 24.8759 26.77 23.3455 26.2181 23.3455C25.8156 23.3455 25.848 23.4298 26.4519 24.0394C27.8868 25.479 30.1723 26.3545 29.7437 25.3364V25.291ZM29.5879 23.78C29.7437 23.0861 29.7567 20.9656 29.5879 20.972C29.2751 21.1189 28.9844 21.3088 28.7244 21.5362C28.2573 21.8916 27.7521 22.1939 27.218 22.4376L26.4389 22.7684L27.8154 23.4168C29.51 24.2469 29.458 24.2404 29.5749 23.7476L29.5879 23.78ZM43.3852 18.8061C43.8685 18.2931 44.3154 17.747 44.7227 17.1719C45.0863 16.5883 45.0798 16.5623 43.9566 15.4015C43.5506 14.9554 43.1169 14.5352 42.658 14.1435C42.2033 14.3468 41.7947 14.6403 41.4568 15.006C39.9375 16.3937 38.9896 16.7958 37.1261 16.8412C36.3984 16.87 35.6696 16.8505 34.9445 16.7828C34.4186 16.6856 34.3666 16.7439 34.3796 17.4767C34.3796 18.3651 34.3796 18.3586 36.2041 17.8853C37.0274 17.7285 37.875 17.7541 38.6873 17.9603C39.4995 18.1664 40.2565 18.5481 40.9049 19.0785C41.2474 19.4099 41.657 19.6642 42.1061 19.8242C42.6109 19.5764 43.0544 19.2198 43.4047 18.7802L43.3852 18.8061ZM22.9912 19.2146C23.4273 18.8555 23.9155 18.5647 24.4391 18.3522C25.2408 17.9483 26.1471 17.7989 27.0362 17.9242C27.6756 17.9519 28.3086 18.0631 28.9191 18.2549C29.4581 18.5337 29.6399 18.3522 29.6269 17.5545V16.906L27.731 16.9514C26.7223 17.053 25.704 16.9083 24.7637 16.5299C23.4954 15.8461 22.4125 14.8646 21.6082 13.6701C21.3615 13.268 21.2706 13.3199 20.3096 14.3964C19.8813 14.8214 19.5298 15.3172 19.2708 15.862C19.2708 16.5105 20.2642 17.9501 21.2186 18.7218C22.2899 19.6037 22.6146 19.688 23.0107 19.1952L22.9912 19.2146ZM48.573 16.1538C49.1184 15.9268 49.008 15.6804 48.125 15.1551C47.3834 14.582 46.7427 13.8894 46.2291 13.1059C45.2551 11.7052 45.0539 11.5366 44.3916 11.5495C42.7814 11.5495 42.7229 12.5482 44.2358 14.1046C45.0628 15.0954 46.1876 15.7935 47.4432 16.0954C47.8198 16.1797 48.151 16.264 48.1704 16.277C48.3098 16.2554 48.4454 16.2139 48.573 16.1538ZM28.8412 15.622C29.458 15.4859 29.5944 14.9217 29.5554 12.5806L29.5165 10.687L28.1465 10.8621L26.77 11.0243L25.7182 9.98668C24.4196 8.72862 24.3287 8.04122 25.4 7.13334C25.8804 6.74458 26.2628 6.24873 26.5165 5.68561C26.7702 5.1225 26.8882 4.50781 26.8609 3.8909C26.8983 3.49452 26.8366 3.09507 26.6813 2.72836C26.5261 2.36166 26.2821 2.03917 25.9714 1.78981C24.7962 0.544712 23.2898 -1.74328e-05 21.1342 0.123195C19.7253 0.181559 19.2383 0.330711 17.5891 1.18671C16.5373 1.73793 15.1024 2.58745 14.4011 3.07381L11.2261 5.28515C8.00203 7.63618 4.54487 9.65055 0.908999 11.2966L0 11.7246L0.649285 12.0489C2.1051 12.647 3.73846 12.647 5.19428 12.0489C7.90829 11.0243 15.0374 6.34867 15.6932 5.18788C16.2321 4.24109 16.5243 4.47454 16.5503 5.87527C16.6383 7.22043 17.2394 8.48065 18.2299 9.39634C19.2204 10.312 20.5248 10.8134 21.8744 10.7973C22.2899 10.7973 22.6276 10.8881 22.6276 11.0178C22.6268 11.0499 22.6195 11.0814 22.6062 11.1107C22.593 11.1399 22.574 11.1662 22.5504 11.188C22.5268 11.2097 22.499 11.2265 22.4688 11.2374C22.4385 11.2483 22.4064 11.253 22.3744 11.2512C21.9588 11.2512 22.3224 12.9762 22.9133 13.7674C23.764 14.7907 24.9391 15.4931 26.2441 15.7582C27.1104 15.9115 28.0008 15.8559 28.8412 15.5961V15.622ZM53.9815 15.2718C53.9815 15.1486 53.6894 14.8828 53.3323 14.6817C52.0015 13.9528 50.7633 13.0666 49.6443 12.0424C47.6965 10.1942 47.8003 10.2331 47.0082 10.7454C46.6251 10.9854 46.3135 11.3485 46.32 11.5495C46.32 12.1397 48.995 14.4353 50.3455 15.0189C51.5922 15.5572 53.988 15.7452 53.9815 15.2978V15.2718ZM17.667 15.2718C18.3413 14.8636 18.9722 14.3877 19.55 13.8517C21.29 12.2304 21.3485 11.7052 19.8162 11.4523C18.9786 11.3096 18.9072 11.3485 17.4333 12.9308C16.7645 13.6396 16.0487 14.3025 15.2907 14.9152C14.57 15.4015 14.505 15.6674 15.0764 15.8101C15.9832 15.8862 16.8911 15.6776 17.6735 15.2135L17.667 15.2718ZM38.4442 15.3237C39.1544 15.1002 39.8071 14.7244 40.3567 14.2226C40.9062 13.7208 41.3393 13.105 41.6256 12.4185C41.9243 11.582 41.9373 11.3161 41.7036 11.0372C41.4698 10.7584 41.4438 10.6935 41.4893 10.687L43.3333 10.5963C44.911 10.486 45.2162 10.3758 46.0992 9.72729C46.8312 9.2037 47.3992 8.48323 47.7372 7.64974C48.0751 6.81624 48.1691 5.90402 48.0081 5.01927C47.8133 4.2346 48.5795 4.73394 48.9431 5.62885C49.3067 6.52376 51.1831 8.1774 55.0009 10.8167C58.098 12.9438 61.8379 13.7738 63.4416 12.6909C64.2922 12.1072 64.2143 11.7441 63.1689 11.4523C60.9159 10.8038 56.5787 8.29413 51.7805 4.81176C45.5798 0.304772 43.4436 -0.518807 39.957 0.259377C39.2298 0.421499 37.8403 1.7509 37.4962 2.62635C37.1967 3.46276 37.1528 4.3692 37.3701 5.23057C37.5875 6.09193 38.0562 6.86934 38.7169 7.46407L39.6064 8.33304L39.0869 9.0788C38.7082 9.79206 38.0855 10.3456 37.3322 10.6384C36.5789 10.9313 35.7453 10.9439 34.9835 10.6741L34.3342 10.4925L34.4121 12.8271V15.1422L35.1653 15.3432C36.2329 15.6165 37.3546 15.5964 38.4117 15.2848L38.4442 15.3237ZM57.7279 14.6104C58.1175 14.4548 58.2214 13.8257 57.8578 13.8322C57.4942 13.8387 52.7804 10.7065 51.1182 9.2928C49.3392 7.76237 48.9106 7.56134 48.6834 8.19037C48.3457 9.11771 48.5925 9.71432 49.8001 10.8751C52.6115 13.5728 56.1761 15.2589 57.7279 14.6298V14.6104ZM13.7194 14.5585C14.6877 13.9832 15.6181 13.3463 16.5048 12.652L18.2644 11.2837L17.5307 10.499C17.2651 10.1855 16.9437 9.92388 16.5827 9.72729C16.0844 10.0449 15.6247 10.4192 15.2127 10.8427C13.8794 12.1285 12.3947 13.2477 10.7911 14.1759C9.62889 14.8244 9.57046 15.0838 10.5768 15.1875C11.6766 15.311 12.7862 15.067 13.7324 14.4937L13.7194 14.5585ZM9.91458 13.3588C11.1352 12.7103 16.1607 9.42898 16.1542 9.23444C15.959 8.45025 15.6366 7.70327 15.1998 7.0231C15.1024 7.0231 13.7129 8.04771 12.1027 9.29928C9.57046 11.2772 6.43441 13.1902 5.66826 13.1902C5.12286 13.1902 5.47996 13.6506 6.18768 13.8387C6.80772 14.0205 7.45859 14.0729 8.09978 13.9926C8.74096 13.9123 9.35872 13.7009 9.91458 13.3718V13.3588Z" fill="#3B63AE"/>
</svg>
