<svg width="168" height="199" viewBox="0 0 168 199" fill="none" xmlns="http://www.w3.org/2000/svg">
<circle cx="82" cy="101.503" r="82" fill="#FCEDEF"/>
<g filter="url(#filter0_d_2019_75234)">
<rect x="34.3008" y="52.7322" width="101.83" height="130.771" rx="6.49077" fill="white"/>
<rect x="45.0195" y="67.7385" width="54.697" height="7.40215" rx="3.70107" fill="#EAEAEB"/>
<rect x="45.0195" y="81.3091" width="81.4637" height="7.40215" rx="3.20196" fill="#EAEAEB"/>
<rect x="45.0195" y="108.005" width="54.697" height="7.40215" rx="3.70107" fill="#EAEAEB"/>
<rect x="45.0195" y="121.576" width="81.4637" height="7.40215" rx="3.20196" fill="#EAEAEB"/>
<rect x="45.0195" y="148.273" width="54.697" height="7.40215" rx="3.70107" fill="#EAEAEB"/>
<rect x="45.0195" y="161.843" width="81.4637" height="7.40215" rx="3.20196" fill="#EAEAEB"/>
</g>
<g filter="url(#filter1_d_2019_75234)">
<rect x="34.3008" y="12" width="101.83" height="35.3725" rx="6.49077" fill="#DF475C"/>
<rect x="46.0908" y="19.5032" width="50.3791" height="6.8178" rx="3.4089" fill="white"/>
<rect x="46.0908" y="32.0024" width="75.0327" height="6.8178" rx="2.94919" fill="white"/>
</g>
<path d="M136 135.333C121.253 135.333 109.333 147.253 109.333 162C109.333 176.747 121.253 188.667 136 188.667C150.746 188.667 162.666 176.747 162.666 162C162.666 147.253 150.746 135.333 136 135.333ZM147.466 173.467C147.22 173.714 146.927 173.91 146.604 174.044C146.281 174.178 145.936 174.246 145.586 174.246C145.237 174.246 144.891 174.178 144.569 174.044C144.246 173.91 143.953 173.714 143.706 173.467L136 165.76L128.293 173.467C127.794 173.965 127.118 174.245 126.413 174.245C125.708 174.245 125.032 173.965 124.533 173.467C124.034 172.968 123.754 172.292 123.754 171.587C123.754 171.237 123.823 170.892 123.957 170.569C124.09 170.247 124.286 169.953 124.533 169.707L132.24 162L124.533 154.293C124.034 153.795 123.754 153.118 123.754 152.413C123.754 151.708 124.034 151.032 124.533 150.533C125.032 150.035 125.708 149.755 126.413 149.755C127.118 149.755 127.794 150.035 128.293 150.533L136 158.24L143.706 150.533C143.953 150.286 144.246 150.091 144.569 149.957C144.891 149.823 145.237 149.755 145.586 149.755C145.935 149.755 146.281 149.823 146.604 149.957C146.926 150.091 147.219 150.286 147.466 150.533C147.713 150.78 147.909 151.073 148.043 151.396C148.176 151.718 148.245 152.064 148.245 152.413C148.245 152.762 148.176 153.108 148.043 153.431C147.909 153.753 147.713 154.046 147.466 154.293L139.76 162L147.466 169.707C148.48 170.72 148.48 172.427 147.466 173.467Z" fill="#DF475C"/>
<defs>
<filter id="filter0_d_2019_75234" x="21.3192" y="41.3733" width="127.793" height="156.734" filterUnits="userSpaceOnUse" color-interpolation-filters="sRGB">
<feFlood flood-opacity="0" result="BackgroundImageFix"/>
<feColorMatrix in="SourceAlpha" type="matrix" values="0 0 0 0 0 0 0 0 0 0 0 0 0 0 0 0 0 0 127 0" result="hardAlpha"/>
<feOffset dy="1.62269"/>
<feGaussianBlur stdDeviation="6.49077"/>
<feComposite in2="hardAlpha" operator="out"/>
<feColorMatrix type="matrix" values="0 0 0 0 0.0392157 0 0 0 0 0.192157 0 0 0 0 0.313726 0 0 0 0.1 0"/>
<feBlend mode="normal" in2="BackgroundImageFix" result="effect1_dropShadow_2019_75234"/>
<feBlend mode="normal" in="SourceGraphic" in2="effect1_dropShadow_2019_75234" result="shape"/>
</filter>
<filter id="filter1_d_2019_75234" x="21.3192" y="0.641153" width="127.793" height="61.3356" filterUnits="userSpaceOnUse" color-interpolation-filters="sRGB">
<feFlood flood-opacity="0" result="BackgroundImageFix"/>
<feColorMatrix in="SourceAlpha" type="matrix" values="0 0 0 0 0 0 0 0 0 0 0 0 0 0 0 0 0 0 127 0" result="hardAlpha"/>
<feOffset dy="1.62269"/>
<feGaussianBlur stdDeviation="6.49077"/>
<feComposite in2="hardAlpha" operator="out"/>
<feColorMatrix type="matrix" values="0 0 0 0 0.0392157 0 0 0 0 0.192157 0 0 0 0 0.313726 0 0 0 0.1 0"/>
<feBlend mode="normal" in2="BackgroundImageFix" result="effect1_dropShadow_2019_75234"/>
<feBlend mode="normal" in="SourceGraphic" in2="effect1_dropShadow_2019_75234" result="shape"/>
</filter>
</defs>
</svg>
