<svg width="48" height="48" viewBox="0 0 48 48" fill="none" xmlns="http://www.w3.org/2000/svg">
<path d="M38 4H10C6.6903 4.00966 4.00966 6.6903 4 10V27.72L11.76 19.96C14.1349 17.7 17.8651 17.7 20.24 19.96L25.9828 25.734L27.7578 23.959C30.1047 21.6257 33.8953 21.6257 36.2422 23.959L44 31.7168V10C43.9903 6.6903 41.3097 4.00966 38 4Z" fill="#EFA3AD"/>
<path d="M20.24 19.9596C17.8651 17.6996 14.1349 17.6996 11.76 19.9596L4 27.7196V37.9996C4.00968 41.3093 6.69032 43.99 10 43.9996H38C39.6302 43.999 41.1899 43.3346 42.32 42.1596L20.24 19.9596Z" fill="#DF475C"/>
<path d="M43.9996 31.7167L36.2418 23.9589C33.8949 21.6257 30.1044 21.6257 27.7575 23.9589L25.9824 25.7339L42.3109 42.151C43.3952 41.0415 44.0014 39.5512 43.9996 37.9999V31.7167Z" fill="#F9DADE"/>
</svg>
