<svg width="127" height="25" viewBox="0 0 127 25" fill="none" xmlns="http://www.w3.org/2000/svg">
<g clip-path="url(#clip0_425_12445)">
<path d="M16.0105 14.4896C17.2427 15.7219 18.0576 17.2936 18.364 18.9851C18.3442 18.9935 18.3179 19 18.2858 19L1.71429 19C1.68217 19 1.65589 18.9935 1.63605 18.9851C1.94244 17.2936 2.75733 15.7219 3.9896 14.4896C5.58366 12.8955 7.74568 12 10 12C12.2544 12 14.4164 12.8955 16.0105 14.4896Z" stroke="#DF475C" stroke-width="3"/>
<path fill-rule="evenodd" clip-rule="evenodd" d="M11.444 4.94446C11.444 5.74221 10.7973 6.38891 9.99952 6.38891C9.20177 6.38891 8.55506 5.74221 8.55506 4.94446C8.55506 4.1467 9.20177 3.5 9.99952 3.5C10.7973 3.5 11.444 4.1467 11.444 4.94446ZM14.444 4.94446C14.444 7.39906 12.4541 9.38891 9.99952 9.38891C8.8473 9.38891 7.79749 8.95046 7.00784 8.23129L2.74473 10.9646C2.08054 11.3904 1.1969 11.1972 0.771054 10.533C0.345209 9.86885 0.538423 8.98521 1.20261 8.55937L5.62337 5.72498C5.57848 5.47157 5.55506 5.21075 5.55506 4.94446C5.55506 2.48985 7.54491 0.5 9.99952 0.5C12.4541 0.5 14.444 2.48985 14.444 4.94446Z" fill="#DF475C"/>
</g>
<path d="M24.56 20.5V8.5H27.728V20.5H24.56ZM26.144 6.556C25.664 6.556 25.24 6.38 24.872 6.028C24.504 5.66 24.32 5.228 24.32 4.732C24.32 4.236 24.504 3.812 24.872 3.46C25.24 3.092 25.664 2.908 26.144 2.908C26.64 2.908 27.064 3.092 27.416 3.46C27.784 3.812 27.968 4.236 27.968 4.732C27.968 5.228 27.784 5.66 27.416 6.028C27.064 6.38 26.64 6.556 26.144 6.556ZM30.6493 20.5V8.5H33.6253L33.8173 10.708V20.5H30.6493ZM38.5933 20.5V14.356L41.7613 13.636V20.5H38.5933ZM38.5933 14.356C38.5933 13.54 38.4973 12.908 38.3053 12.46C38.1293 12.012 37.8733 11.692 37.5373 11.5C37.2013 11.292 36.8093 11.188 36.3613 11.188C35.5453 11.172 34.9133 11.42 34.4653 11.932C34.0333 12.444 33.8173 13.204 33.8173 14.212H32.7613C32.7613 12.932 32.9453 11.852 33.3133 10.972C33.6973 10.076 34.2253 9.396 34.8973 8.932C35.5693 8.452 36.3613 8.212 37.2733 8.212C38.7293 8.212 39.8413 8.66 40.6093 9.556C41.3933 10.436 41.7773 11.796 41.7613 13.636L38.5933 14.356ZM45.4899 20.5V7.3C45.4899 6.02 45.8179 5.028 46.4739 4.324C47.1299 3.604 48.1299 3.244 49.4739 3.244C49.9379 3.244 50.4259 3.324 50.9379 3.484C51.4659 3.644 51.9459 3.836 52.3779 4.06L51.2019 6.34C50.9459 6.212 50.7139 6.116 50.5059 6.052C50.2979 5.988 50.1059 5.956 49.9299 5.956C49.4979 5.956 49.1779 6.108 48.9699 6.412C48.7619 6.7 48.6579 7.172 48.6579 7.828V20.5H45.4899ZM43.4979 11.044V8.5H51.6099V11.044H43.4979ZM53.7118 20.5V3.7H56.8798V20.5H53.7118ZM67.538 20.5L67.346 18.292V8.5H70.514V20.5H67.538ZM59.402 15.364V8.5H62.57V14.644L59.402 15.364ZM62.57 14.644C62.57 15.444 62.658 16.076 62.834 16.54C63.026 16.988 63.29 17.316 63.626 17.524C63.978 17.716 64.37 17.812 64.802 17.812C65.634 17.828 66.266 17.58 66.698 17.068C67.13 16.54 67.346 15.78 67.346 14.788H68.426C68.426 16.068 68.234 17.156 67.85 18.052C67.482 18.932 66.954 19.612 66.266 20.092C65.594 20.556 64.802 20.788 63.89 20.788C62.45 20.788 61.338 20.348 60.554 19.468C59.786 18.572 59.402 17.204 59.402 15.364L62.57 14.644ZM78.6826 20.788C77.4986 20.788 76.4506 20.524 75.5386 19.996C74.6266 19.452 73.9066 18.708 73.3786 17.764C72.8666 16.82 72.6106 15.732 72.6106 14.5C72.6106 13.268 72.8746 12.18 73.4026 11.236C73.9466 10.292 74.6826 9.556 75.6106 9.028C76.5546 8.484 77.6346 8.212 78.8506 8.212C79.8906 8.212 80.8506 8.492 81.7306 9.052C82.6266 9.596 83.3466 10.404 83.8906 11.476C84.4346 12.532 84.7066 13.82 84.7066 15.34H81.4906C81.5066 14.284 81.3946 13.444 81.1546 12.82C80.9306 12.18 80.6106 11.724 80.1946 11.452C79.7786 11.164 79.2906 11.02 78.7306 11.02C78.1066 11.02 77.5786 11.148 77.1466 11.404C76.7146 11.66 76.3866 12.052 76.1626 12.58C75.9546 13.092 75.8506 13.764 75.8506 14.596C75.8506 15.316 75.9946 15.916 76.2826 16.396C76.5706 16.876 76.9546 17.244 77.4346 17.5C77.9146 17.74 78.4426 17.86 79.0186 17.86C79.6426 17.86 80.1466 17.724 80.5306 17.452C80.9306 17.18 81.2346 16.828 81.4426 16.396L84.4186 17.548C84.0826 18.22 83.6426 18.804 83.0986 19.3C82.5706 19.78 81.9386 20.148 81.2026 20.404C80.4666 20.66 79.6266 20.788 78.6826 20.788ZM74.6746 15.34L74.6986 12.868H83.1466V15.34H74.6746ZM86.5477 20.5V8.5H89.5237L89.7157 10.708V20.5H86.5477ZM94.4917 20.5V14.356L97.6597 13.636V20.5H94.4917ZM94.4917 14.356C94.4917 13.54 94.3957 12.908 94.2037 12.46C94.0277 12.012 93.7717 11.692 93.4357 11.5C93.0997 11.292 92.7077 11.188 92.2597 11.188C91.4437 11.172 90.8117 11.42 90.3637 11.932C89.9317 12.444 89.7157 13.204 89.7157 14.212H88.6597C88.6597 12.932 88.8437 11.852 89.2117 10.972C89.5957 10.076 90.1237 9.396 90.7957 8.932C91.4677 8.452 92.2597 8.212 93.1717 8.212C94.6277 8.212 95.7397 8.66 96.5077 9.556C97.2917 10.436 97.6757 11.796 97.6597 13.636L94.4917 14.356ZM101.628 20.116L99.5883 18.196L107.508 8.812L109.476 10.78L101.628 20.116ZM99.5883 20.5V18.196L101.484 17.908H109.5V20.5H99.5883ZM99.5883 11.116V8.5H109.476V10.78L107.508 11.116H99.5883Z" fill="#2A2939"/>
<path d="M111.818 20.5V8.5H114.986V20.5H111.818ZM113.402 6.556C112.922 6.556 112.498 6.38 112.13 6.028C111.762 5.66 111.578 5.228 111.578 4.732C111.578 4.236 111.762 3.812 112.13 3.46C112.498 3.092 112.922 2.908 113.402 2.908C113.898 2.908 114.322 3.092 114.674 3.46C115.042 3.812 115.226 4.236 115.226 4.732C115.226 5.228 115.042 5.66 114.674 6.028C114.322 6.38 113.898 6.556 113.402 6.556ZM122.851 20.788C121.523 20.788 120.515 20.46 119.827 19.804C119.155 19.148 118.819 18.212 118.819 16.996V4.756H121.987V16.3C121.987 16.812 122.099 17.204 122.323 17.476C122.547 17.732 122.875 17.86 123.307 17.86C123.467 17.86 123.643 17.828 123.835 17.764C124.027 17.684 124.227 17.572 124.435 17.428L125.539 19.804C125.155 20.092 124.723 20.324 124.243 20.5C123.779 20.692 123.315 20.788 122.851 20.788ZM116.875 11.188V8.5H124.987V11.188H116.875Z" fill="#DF475C"/>
<defs>
<clipPath id="clip0_425_12445">
<rect width="20" height="20" fill="white" transform="translate(0 0.5)"/>
</clipPath>
</defs>
</svg>
