<svg width="156" height="28" viewBox="0 0 156 28" fill="none" xmlns="http://www.w3.org/2000/svg">
<path d="M0.632 2.758C0.632 1.98733 0.904 1.364 1.448 0.888C1.992 0.389333 2.706 0.139999 3.59 0.139999C4.474 0.139999 5.188 0.389333 5.732 0.888C6.276 1.364 6.548 1.98733 6.548 2.758C6.548 3.506 6.276 4.12933 5.732 4.628C5.188 5.104 4.474 5.342 3.59 5.342C2.706 5.342 1.992 5.104 1.448 4.628C0.904 4.12933 0.632 3.506 0.632 2.758ZM5.97 8.164V27H1.176V8.164H5.97ZM21.5269 7.892C23.7029 7.892 25.4369 8.606 26.7289 10.034C28.0209 11.462 28.6669 13.468 28.6669 16.052V27H23.9069V16.596C23.9069 15.1 23.5215 13.944 22.7509 13.128C21.9802 12.2893 20.9262 11.87 19.5889 11.87C18.2289 11.87 17.1409 12.312 16.3249 13.196C15.5089 14.08 15.1009 15.3493 15.1009 17.004V27H10.3069V8.164H15.1009V11.938C15.5995 10.6687 16.4155 9.68267 17.5489 8.98C18.7049 8.25467 20.0309 7.892 21.5269 7.892ZM42.201 4.9C40.7957 4.80933 39.8097 5.01333 39.243 5.512C38.6763 6.01067 38.393 6.88333 38.393 8.13V8.164H42.201V12.21H38.393V27H33.599V12.21H31.185V8.164H33.599V7.722C33.599 5.478 34.2337 3.75533 35.503 2.554C36.795 1.33 38.699 0.717998 41.215 0.717998C41.6457 0.717998 41.9743 0.729332 42.201 0.751999V4.9ZM49.8645 1.84V27H45.0705V1.84H49.8645ZM72.2214 8.164V27H67.4274V23.192C66.9287 24.4613 66.1014 25.4587 64.9454 26.184C63.8121 26.8867 62.4974 27.238 61.0014 27.238C58.8254 27.238 57.0914 26.524 55.7994 25.096C54.5074 23.668 53.8614 21.6733 53.8614 19.112V8.164H58.6214V18.568C58.6214 20.064 59.0067 21.2313 59.7774 22.07C60.5481 22.886 61.5907 23.294 62.9054 23.294C64.2881 23.294 65.3874 22.852 66.2034 21.968C67.0194 21.084 67.4274 19.8147 67.4274 18.16V8.164H72.2214ZM94.2943 16.868C94.2943 17.344 94.2376 17.888 94.1243 18.5H80.3203C80.3883 20.1773 80.8416 21.4127 81.6803 22.206C82.519 22.9993 83.5616 23.396 84.8083 23.396C85.919 23.396 86.837 23.124 87.5623 22.58C88.3103 22.036 88.7863 21.2993 88.9903 20.37H94.0563C93.807 21.6847 93.2743 22.8633 92.4583 23.906C91.6423 24.9487 90.5883 25.7647 89.2963 26.354C88.027 26.9433 86.6103 27.238 85.0463 27.238C83.2103 27.238 81.5783 26.8527 80.1503 26.082C78.7223 25.2887 77.6116 24.1667 76.8183 22.716C76.025 21.2653 75.6283 19.554 75.6283 17.582C75.6283 15.61 76.025 13.8987 76.8183 12.448C77.6116 10.9747 78.7223 9.85267 80.1503 9.082C81.5783 8.31133 83.2103 7.926 85.0463 7.926C86.905 7.926 88.5256 8.31133 89.9083 9.082C91.3136 9.85267 92.3903 10.918 93.1383 12.278C93.909 13.6153 94.2943 15.1453 94.2943 16.868ZM89.4663 16.392C89.5343 14.8507 89.1263 13.6833 88.2423 12.89C87.381 12.0967 86.3156 11.7 85.0463 11.7C83.7543 11.7 82.6663 12.0967 81.7823 12.89C80.8983 13.6833 80.411 14.8507 80.3203 16.392H89.4663ZM108.917 7.892C111.093 7.892 112.827 8.606 114.119 10.034C115.411 11.462 116.057 13.468 116.057 16.052V27H111.297V16.596C111.297 15.1 110.912 13.944 110.141 13.128C109.371 12.2893 108.317 11.87 106.979 11.87C105.619 11.87 104.531 12.312 103.715 13.196C102.899 14.08 102.491 15.3493 102.491 17.004V27H97.6975V8.164H102.491V11.938C102.99 10.6687 103.806 9.68267 104.939 8.98C106.095 8.25467 107.421 7.892 108.917 7.892ZM124.152 22.988H133.4V27H118.916V23.192L127.586 12.142H119.12V8.164H133.06V11.938L124.152 22.988ZM135.835 2.758C135.835 1.98733 136.107 1.364 136.651 0.888C137.195 0.389333 137.909 0.139999 138.793 0.139999C139.677 0.139999 140.391 0.389333 140.935 0.888C141.479 1.364 141.751 1.98733 141.751 2.758C141.751 3.506 141.479 4.12933 140.935 4.628C140.391 5.104 139.677 5.342 138.793 5.342C137.909 5.342 137.195 5.104 136.651 4.628C136.107 4.12933 135.835 3.506 135.835 2.758ZM141.173 8.164V27H136.379V8.164H141.173ZM155.574 22.886V27H153.058C150.95 27 149.329 26.49 148.196 25.47C147.085 24.45 146.53 22.75 146.53 20.37V12.21H143.912V8.164H146.53V3.506H151.324V8.164H155.54V12.21H151.324V20.438C151.324 21.3447 151.505 21.9793 151.868 22.342C152.231 22.7047 152.843 22.886 153.704 22.886H155.574Z" fill="white"/>
</svg>
