<svg width="17" height="17" viewBox="0 0 17 17" fill="none" xmlns="http://www.w3.org/2000/svg">
<path fill-rule="evenodd" clip-rule="evenodd" d="M5.49414 0.708984H11.4941C14.2551 0.708984 16.4941 2.94798 16.4941 5.70898V11.709C16.4941 14.47 14.2551 16.709 11.4941 16.709H5.49414C2.73314 16.709 0.494141 14.47 0.494141 11.709V5.70898C0.494141 2.94798 2.73314 0.708984 5.49414 0.708984ZM11.4941 15.209C13.4241 15.209 14.9941 13.639 14.9941 11.709V5.70898C14.9941 3.77898 13.4241 2.20898 11.4941 2.20898H5.49414C3.56414 2.20898 1.99414 3.77898 1.99414 5.70898V11.709C1.99414 13.639 3.56414 15.209 5.49414 15.209H11.4941Z" fill="#1E2833"/>
<path fill-rule="evenodd" clip-rule="evenodd" d="M4.49414 8.70898C4.49414 6.49998 6.28514 4.70898 8.49414 4.70898C10.7031 4.70898 12.4941 6.49998 12.4941 8.70898C12.4941 10.918 10.7031 12.709 8.49414 12.709C6.28514 12.709 4.49414 10.918 4.49414 8.70898ZM5.99414 8.70898C5.99414 10.087 7.11614 11.209 8.49414 11.209C9.87214 11.209 10.9941 10.087 10.9941 8.70898C10.9941 7.32998 9.87214 6.20898 8.49414 6.20898C7.11614 6.20898 5.99414 7.32998 5.99414 8.70898Z" fill="#1E2833"/>
<circle cx="12.7937" cy="4.40898" r="0.533" fill="#1E2833"/>
</svg>
