<svg width="210" height="210" viewBox="0 0 210 210" fill="none" xmlns="http://www.w3.org/2000/svg">
<path d="M36.6996 168.916C74.6802 188.433 136.24 188.433 174.229 168.916C212.218 149.398 212.209 117.751 174.229 98.2297C136.248 78.7081 74.6886 78.7123 36.6996 98.2297C-1.2894 117.747 -1.26 149.398 36.6996 168.916Z" fill="#F5F5F5"/>
<path d="M171.154 116.63C171.2 114.021 173.93 107.201 176.698 103.857C179.466 100.514 183.763 98.1161 186.778 99.2039C189.58 100.216 189.21 103.904 185.749 106.293C182.288 108.683 177.097 111.669 175.522 115.874L172.28 121.014L171.154 116.63Z" fill="#508780"/>
<path opacity="0.1" d="M171.154 116.63C171.2 114.021 173.93 107.201 176.698 103.857C179.466 100.514 183.763 98.1161 186.778 99.2039C189.58 100.216 189.21 103.904 185.749 106.293C182.288 108.683 177.097 111.669 175.522 115.874L172.28 121.014L171.154 116.63Z" fill="black"/>
<path d="M171.65 118.746C171.691 118.744 171.729 118.728 171.76 118.702C171.791 118.675 171.813 118.639 171.822 118.599C173.725 109.721 181.062 102.606 185.396 101.081C185.42 101.073 185.442 101.06 185.461 101.044C185.48 101.027 185.496 101.007 185.507 100.984C185.518 100.961 185.524 100.937 185.525 100.912C185.526 100.886 185.523 100.861 185.514 100.838C185.506 100.814 185.493 100.792 185.476 100.774C185.459 100.756 185.439 100.741 185.416 100.73C185.393 100.72 185.369 100.714 185.344 100.713C185.319 100.712 185.294 100.716 185.27 100.724C180.848 102.278 173.38 109.506 171.448 118.52C171.439 118.569 171.45 118.62 171.477 118.662C171.504 118.704 171.546 118.734 171.595 118.746H171.65Z" fill="white"/>
<path d="M172.876 124.471C173.321 123.014 175.157 120.624 178.088 118.675C181.331 116.521 185.405 115.576 186.371 113.866C187.53 111.821 185.821 109.834 182.524 110.187C179.227 110.54 173.355 114.929 172.313 121.678L172.876 124.471Z" fill="#508780"/>
<path d="M172.267 122.921C172.304 122.919 172.339 122.906 172.368 122.884C172.398 122.863 172.421 122.833 172.435 122.8C175.3 115.219 181.167 112.64 183.868 112.337C183.892 112.335 183.917 112.327 183.938 112.315C183.96 112.303 183.98 112.287 183.995 112.267C184.011 112.248 184.023 112.225 184.03 112.201C184.036 112.177 184.038 112.152 184.036 112.127C184.033 112.102 184.026 112.078 184.015 112.056C184.003 112.033 183.986 112.014 183.967 111.998C183.947 111.982 183.924 111.971 183.9 111.964C183.876 111.957 183.85 111.956 183.826 111.959C180.839 112.291 175.006 114.925 172.066 122.665C172.048 122.712 172.049 122.764 172.07 122.81C172.09 122.855 172.128 122.891 172.175 122.909C172.203 122.924 172.236 122.928 172.267 122.921Z" fill="white"/>
<path d="M43.743 141.301L46.9224 139.482C46.9224 139.482 48.447 131.082 47.3088 123.858C45.7044 113.702 38.7912 110.2 36.2796 111.212C33.768 112.224 33.1758 115.227 37.7118 121.094C40.3872 124.559 43.8312 131.88 43.743 141.301Z" fill="#508780"/>
<g opacity="0.1">
<path d="M43.743 141.301L46.9224 139.482C46.9224 139.482 48.447 131.082 47.3088 123.858C45.7044 113.702 38.7912 110.2 36.2796 111.212C33.768 112.224 33.1758 115.227 37.7118 121.094C40.3872 124.559 43.8312 131.88 43.743 141.301Z" fill="black"/>
</g>
<path d="M44.8938 137.268H44.8644C44.8347 137.265 44.806 137.255 44.78 137.24C44.754 137.225 44.7313 137.205 44.7133 137.182C44.6953 137.158 44.6822 137.13 44.675 137.101C44.6678 137.072 44.6665 137.042 44.6712 137.012C45.9858 127.508 42.1512 117.092 37.8672 112.892C37.8459 112.871 37.8289 112.846 37.8174 112.819C37.8058 112.791 37.7998 112.762 37.7998 112.732C37.7998 112.702 37.8058 112.673 37.8174 112.645C37.8289 112.618 37.8459 112.593 37.8672 112.572C37.9097 112.53 37.9671 112.507 38.0268 112.507C38.0866 112.507 38.144 112.53 38.1864 112.572C42.5628 116.848 46.4562 127.432 45.1248 137.08C45.1149 137.133 45.0862 137.182 45.044 137.216C45.0017 137.251 44.9485 137.269 44.8938 137.268Z" fill="white"/>
<path d="M34.923 146.395C34.4232 146.685 33.3858 146.055 32.991 145.786C32.3109 145.324 31.7612 144.695 31.395 143.959C30.9783 143.124 30.8315 142.181 30.975 141.259C31.0546 140.774 31.1683 140.295 31.3152 139.826L31.7352 138.432C31.8973 137.983 31.9659 137.506 31.9368 137.029C31.815 136.076 30.9708 135.408 30.2022 134.833C29.3622 134.194 28.4676 133.354 28.4718 132.208C28.5346 131.319 28.8889 130.476 29.4798 129.809C30.03 129.116 30.681 128.503 31.1598 127.768C31.5542 127.264 31.7647 126.64 31.7562 126C31.7053 125.606 31.5738 125.227 31.3698 124.887C30.9029 124.177 30.4955 123.43 30.1518 122.653C29.8704 121.85 29.9124 120.855 30.5382 120.28C30.8181 120.071 31.1368 119.92 31.4758 119.835C31.8147 119.751 32.167 119.735 32.5122 119.788C33.1621 119.869 33.7868 120.09 34.3434 120.435C36.1662 121.447 37.2036 123.602 39.1356 124.383C39.9031 124.621 40.6843 124.811 41.475 124.954C41.8704 125.028 42.2461 125.183 42.5781 125.41C42.9101 125.637 43.191 125.931 43.4028 126.273C44.1126 127.688 42.7938 129.436 43.2936 130.939C43.7136 132.271 45.0282 132.779 45.7548 133.976C46.0492 134.506 46.1683 135.116 46.095 135.719C46.0303 136.735 45.7812 137.731 45.36 138.659C44.8868 139.581 44.3463 140.466 43.743 141.309C43.7136 141.33 34.9986 146.353 34.923 146.395Z" fill="#508780"/>
<path d="M40.0848 143.64C40.0551 143.639 40.0258 143.632 39.9987 143.62C39.9716 143.607 39.9472 143.59 39.9269 143.568C39.9066 143.546 39.8908 143.52 39.8804 143.492C39.8701 143.464 39.8653 143.435 39.8664 143.405C40.2402 134.408 35.9982 124.471 32.9154 121.586C32.8744 121.543 32.8514 121.486 32.8514 121.426C32.8514 121.367 32.8744 121.31 32.9154 121.267C32.9579 121.225 33.0153 121.201 33.075 121.201C33.1348 121.201 33.1922 121.225 33.2346 121.267C36.3804 124.207 40.7064 134.312 40.3284 143.438C40.3221 143.497 40.2931 143.551 40.2476 143.589C40.2021 143.626 40.1437 143.645 40.0848 143.64Z" fill="white"/>
<path d="M38.7366 133.014H38.6694C36.5373 132.426 34.3473 132.072 32.1384 131.96C32.1086 131.959 32.0793 131.952 32.0522 131.939C32.0251 131.927 32.0007 131.909 31.9804 131.887C31.9601 131.866 31.9443 131.84 31.934 131.812C31.9236 131.784 31.9188 131.754 31.92 131.725C31.9205 131.695 31.927 131.665 31.9393 131.638C31.9515 131.61 31.9691 131.586 31.9911 131.565C32.013 131.545 32.0389 131.529 32.0671 131.519C32.0953 131.509 32.1252 131.505 32.1552 131.506C34.4036 131.624 36.6328 131.984 38.8038 132.581C38.8539 132.599 38.8963 132.633 38.9237 132.679C38.9511 132.724 38.9617 132.777 38.9537 132.83C38.9458 132.882 38.9197 132.93 38.88 132.965C38.8403 133.001 38.7896 133.021 38.7366 133.022V133.014Z" fill="white"/>
<path d="M36.0319 143.056L81.8665 169.516C82.4301 169.802 83.0531 169.951 83.6851 169.951C84.3171 169.951 84.9401 169.802 85.5037 169.516L172.288 119.406C173.292 118.826 173.292 117.886 172.288 117.306L126.45 90.8461C125.886 90.5601 125.263 90.4111 124.631 90.4111C123.999 90.4111 123.376 90.5601 122.812 90.8461L36.0319 140.956C35.0281 141.54 35.0281 142.477 36.0319 143.056Z" fill="#37474F"/>
<path d="M60.8035 155.35C61.5846 155.745 62.4479 155.952 63.3235 155.952C64.1991 155.952 65.0624 155.745 65.8435 155.35C67.2379 154.543 67.2379 153.25 65.8435 152.435C65.0624 152.039 64.1991 151.833 63.3235 151.833C62.4479 151.833 61.5846 152.039 60.8035 152.435C59.4091 153.241 59.4091 154.56 60.8035 155.35Z" fill="#263238"/>
<path d="M81.8665 169.521L36.0319 143.061C35.1331 142.544 35.0407 141.738 35.7463 141.158C35.2983 141.513 34.9302 141.958 34.6661 142.464C34.4019 142.971 34.2476 143.528 34.2133 144.098V145.807C34.2471 146.438 34.4294 147.053 34.7454 147.6C35.0614 148.147 35.5022 148.612 36.0319 148.957L81.8665 175.417C82.4273 175.709 83.0531 175.854 83.6851 175.837V169.953C83.052 169.966 82.4261 169.817 81.8665 169.521Z" fill="#455A64"/>
<path d="M172.288 125.316C172.817 124.97 173.258 124.505 173.574 123.958C173.89 123.41 174.072 122.796 174.107 122.166V120.456C174.071 119.886 173.916 119.329 173.651 118.822C173.387 118.316 173.018 117.871 172.57 117.516C173.279 118.096 173.187 118.902 172.288 119.423L85.5037 169.521C84.9432 169.813 84.3172 169.958 83.6851 169.941V175.854C84.3172 175.871 84.9432 175.727 85.5037 175.434L172.288 125.316Z" fill="#263238"/>
<path d="M89.4222 164.035L46.1622 139.054C45.5574 138.705 45.5574 138.142 46.1622 137.794L117.319 96.6883C117.657 96.5164 118.031 96.4268 118.411 96.4268C118.79 96.4268 119.164 96.5164 119.503 96.6883L162.784 121.666C163.388 122.01 163.388 122.577 162.784 122.926L91.602 164.035C91.2644 164.207 90.8909 164.297 90.5121 164.297C90.1333 164.297 89.7598 164.207 89.4222 164.035Z" fill="#FAFAFA"/>
<path d="M78.1704 130.423L103.761 145.194L87.6078 154.522C87.3254 154.663 87.0142 154.736 86.6986 154.736C86.3829 154.736 86.0717 154.663 85.7892 154.522L62.0173 140.797C61.9075 140.759 61.8123 140.689 61.7448 140.595C61.6773 140.5 61.641 140.387 61.641 140.272C61.641 140.156 61.6773 140.043 61.7448 139.949C61.8123 139.854 61.9075 139.784 62.0173 139.747L78.1704 130.423Z" fill="#508780"/>
<path d="M103.74 145.194L100.724 133.207C100.656 132.921 100.497 132.665 100.271 132.476C100.042 132.282 99.7591 132.163 99.4603 132.136L78.1537 130.423L103.74 145.194Z" fill="#508780"/>
<path d="M103.74 145.194L80.8374 144.249C80.5631 144.238 80.3017 144.13 80.1001 143.943C79.8984 143.757 79.7697 143.505 79.737 143.233L78.1494 130.418L103.74 145.194Z" fill="#508780"/>
<path d="M103.74 145.194L80.8374 144.249C80.5631 144.238 80.3017 144.13 80.1001 143.943C79.8984 143.757 79.7697 143.505 79.737 143.233L78.1494 130.418L80.976 143.018C81.0015 143.131 81.062 143.232 81.1489 143.307C81.2357 143.383 81.3443 143.429 81.459 143.438L103.74 145.194Z" fill="#FAFAFA"/>
<path d="M83.286 144.211L86.7006 155.047L87.6078 154.522L83.286 144.211Z" fill="#FAFAFA"/>
<path d="M61.1101 140.272L62.0173 139.747L79.8757 142.241L61.1101 140.272Z" fill="#FAFAFA"/>
<path d="M92.7277 125.034L113.085 136.794C113.367 136.937 113.678 137.011 113.994 137.011C114.31 137.011 114.622 136.937 114.904 136.794L143.795 120.12C143.905 120.083 144 120.012 144.068 119.918C144.135 119.824 144.172 119.711 144.172 119.595C144.172 119.479 144.135 119.366 144.068 119.272C144 119.178 143.905 119.107 143.795 119.07L123.438 107.31C123.156 107.167 122.845 107.093 122.529 107.093C122.213 107.093 121.901 107.167 121.62 107.31L92.7277 123.984C92.618 124.021 92.5227 124.092 92.4552 124.186C92.3877 124.28 92.3514 124.393 92.3514 124.509C92.3514 124.625 92.3877 124.738 92.4552 124.832C92.5227 124.926 92.618 124.997 92.7277 125.034Z" fill="#E6E6E6"/>
<path d="M108.914 123.48C108.672 123.103 108.528 122.671 108.497 122.224C108.465 121.777 108.547 121.33 108.734 120.922C109.112 120.082 109.935 119.276 111.199 118.549C112.585 117.734 114.115 117.194 115.706 116.958C117.257 116.734 118.836 116.791 120.368 117.126C121.947 117.469 123.463 118.06 124.858 118.877C126.207 119.653 127.126 120.453 127.613 121.279C127.851 121.631 127.993 122.039 128.025 122.462C128.058 122.886 127.979 123.31 127.798 123.694C127.428 124.48 126.651 125.215 125.475 125.895C124.348 126.576 123.079 126.99 121.766 127.105C120.674 127.211 119.575 126.986 118.612 126.458C118.44 126.383 118.285 126.273 118.158 126.134C118.032 125.995 117.936 125.83 117.877 125.652C117.849 125.497 117.863 125.338 117.917 125.19C117.971 125.042 118.063 124.912 118.184 124.812C117.507 124.867 116.826 124.82 116.164 124.673C115.514 124.533 114.891 124.292 114.316 123.959C113.347 123.399 112.84 122.791 112.795 122.136C112.75 121.481 113.214 120.879 114.185 120.33C115.358 119.643 116.699 119.298 118.058 119.335C119.445 119.366 120.802 119.752 121.997 120.456C122.492 120.732 122.933 121.095 123.299 121.527C123.59 121.847 123.78 122.246 123.845 122.674L120.065 124.866C119.759 125.043 119.591 125.198 119.566 125.332C119.54 125.467 119.65 125.61 119.889 125.752C120.412 126.006 121.011 126.057 121.569 125.895C122.392 125.703 123.178 125.381 123.9 124.942C124.849 124.396 125.45 123.808 125.702 123.19C125.828 122.891 125.876 122.564 125.842 122.241C125.807 121.918 125.691 121.608 125.504 121.342C124.998 120.618 124.323 120.028 123.539 119.62C121.927 118.667 120.105 118.126 118.234 118.045C116.336 117.992 114.463 118.485 112.837 119.465C111.804 120.061 111.14 120.691 110.846 121.355C110.699 121.664 110.634 122.006 110.658 122.347C110.681 122.688 110.793 123.018 110.981 123.304C111.49 124.053 112.177 124.663 112.98 125.08C113.514 125.386 114.077 125.638 114.66 125.832C115.204 126.02 115.768 126.147 116.34 126.21C116.401 126.215 116.461 126.231 116.516 126.256C116.546 126.256 116.546 126.311 116.516 126.366L115.962 127.143C115.939 127.173 115.912 127.199 115.882 127.222C115.801 127.25 115.712 127.25 115.63 127.222C114.938 127.135 114.256 126.974 113.597 126.744C112.909 126.515 112.245 126.218 111.615 125.857C110.313 125.16 109.414 124.341 108.914 123.48ZM117.671 123.846C118.251 123.919 118.838 123.809 119.351 123.531L121.548 122.271C121.288 121.829 120.904 121.475 120.443 121.25C119.742 120.839 118.946 120.617 118.133 120.607C117.324 120.593 116.526 120.803 115.828 121.212C115.214 121.565 114.916 121.914 114.933 122.258C114.933 122.602 115.277 122.959 115.92 123.329C116.459 123.628 117.057 123.806 117.671 123.85V123.846Z" fill="#508780"/>
<path d="M145.849 106.218C146.022 106.307 146.213 106.354 146.408 106.354C146.602 106.354 146.794 106.307 146.966 106.218C147.033 106.195 147.091 106.151 147.132 106.094C147.173 106.036 147.195 105.967 147.195 105.897C147.195 105.826 147.173 105.757 147.132 105.7C147.091 105.642 147.033 105.599 146.966 105.575C146.793 105.49 146.602 105.445 146.408 105.445C146.214 105.445 146.023 105.49 145.849 105.575C145.783 105.599 145.725 105.642 145.684 105.7C145.643 105.757 145.621 105.826 145.621 105.897C145.621 105.967 145.643 106.036 145.684 106.094C145.725 106.151 145.783 106.195 145.849 106.218Z" fill="#263238"/>
<path d="M147.63 111.275C147.975 111.451 148.358 111.543 148.745 111.543C149.133 111.543 149.515 111.451 149.86 111.275C150.478 110.922 150.478 110.343 149.86 109.99C149.515 109.814 149.133 109.722 148.745 109.722C148.358 109.722 147.975 109.814 147.63 109.99C147 110.343 147 110.922 147.63 111.275Z" fill="#263238"/>
<path d="M146.059 109.036C146.479 108.797 146.45 108.402 146.009 108.15L138.676 103.912C138.44 103.786 138.177 103.718 137.91 103.714C137.643 103.709 137.378 103.769 137.138 103.887C136.718 104.122 136.752 104.521 137.189 104.773L144.522 109.007C144.758 109.132 145.02 109.199 145.287 109.204C145.554 109.209 145.819 109.152 146.059 109.036Z" fill="#263238"/>
<path d="M50.9796 55.6247C51.0028 55.1737 51.1325 54.7345 51.3581 54.3432C51.5837 53.952 51.8987 53.6196 52.2774 53.3735L118.734 15.0065C119.137 14.8015 119.582 14.6946 120.034 14.6946C120.486 14.6946 120.931 14.8015 121.334 15.0065L122.795 15.8465C123.174 16.0922 123.488 16.4239 123.714 16.8144C123.939 17.2049 124.069 17.6432 124.093 18.0935V69.0395C124.067 69.49 123.937 69.9281 123.711 70.319C123.486 70.7099 123.172 71.0426 122.795 71.2907L56.3388 109.658C55.9363 109.861 55.4918 109.967 55.041 109.967C54.5902 109.967 54.1457 109.861 53.7432 109.658L52.2774 108.818C51.9006 108.57 51.587 108.237 51.3616 107.846C51.1363 107.455 51.0055 107.017 50.9796 106.567V55.6247Z" fill="#508780"/>
<path opacity="0.4" d="M51.3577 54.3436L55.0453 56.4688L123.715 16.8208C123.496 16.4256 123.182 16.092 122.8 15.8506L121.33 15.0106C120.928 14.8056 120.483 14.6987 120.032 14.6987C119.581 14.6987 119.136 14.8056 118.734 15.0106L52.2817 53.3734C51.8943 53.6107 51.5758 53.9452 51.3577 54.3436Z" fill="white"/>
<path opacity="0.1" d="M50.9796 55.6204V106.558C51.0036 107.009 51.1341 107.449 51.3604 107.84C51.5867 108.231 51.9024 108.563 52.2816 108.809L53.7432 109.649C53.8562 109.715 53.9759 109.768 54.1002 109.809C54.2738 109.866 54.4524 109.907 54.6336 109.931C54.975 109.975 55.3213 109.962 55.6584 109.893C55.7437 109.875 55.8278 109.853 55.9104 109.826C55.964 109.811 56.0161 109.791 56.0658 109.767C55.9676 109.809 55.8619 109.831 55.755 109.831C55.6482 109.831 55.5424 109.809 55.4442 109.767C55.3081 109.676 55.1991 109.55 55.1289 109.402C55.0587 109.254 55.0297 109.09 55.0452 108.927V57.9598C55.0323 57.7288 55.0901 57.4993 55.2109 57.302C55.3317 57.1046 55.5098 56.9488 55.7214 56.8552L55.0452 56.4604L51.3576 54.3352C51.1248 54.7247 50.9948 55.1669 50.9796 55.6204Z" fill="black"/>
<path opacity="0.2" d="M55.0452 56.4689L85.8228 67.9685C86.8873 68.3644 88.0548 68.3864 89.1334 68.0307C90.2119 67.6749 91.1374 66.9628 91.7575 66.0113L96.7009 58.4513L123.959 16.6865L97.6837 58.7243L124.093 69.0605C124.066 69.5219 123.922 69.9687 123.673 70.3583L97.6123 58.8419L91.8666 68.0399C91.2293 69.0608 90.2451 69.8174 89.0946 70.1707C87.9442 70.5241 86.705 70.4505 85.6045 69.9635L81.5179 68.1575L55.4401 109.763C55.3039 109.672 55.195 109.546 55.1247 109.398C55.0545 109.25 55.0256 109.086 55.0411 108.923V108.083L81.3877 68.1239L55.0452 56.4689Z" fill="black"/>
<path d="M62.6598 44.5746L58.1154 41.958L58.0734 41.9328C56.0574 40.7946 53.2938 40.9668 50.232 42.7308C44.0706 46.2882 39.0768 54.9402 39.0768 62.0508C39.0768 65.5998 40.3368 68.0988 42.3318 69.2664L46.4646 71.6226L47.4516 69.972C48.576 69.7163 49.6551 69.2915 50.652 68.712C56.8134 65.1546 61.8072 56.5026 61.8072 49.392C61.8067 48.4322 61.6897 47.476 61.4586 46.5444L62.6598 44.5746Z" fill="#37474F"/>
<path d="M54.5412 45.213C48.3756 48.7704 43.3818 57.4223 43.3818 64.5329C43.3818 71.6435 48.3756 74.5332 54.537 70.9758C60.6984 67.4184 65.6964 58.7621 65.6964 51.6557C65.6964 44.5493 60.7026 41.6514 54.5412 45.213Z" fill="#FF0000"/>
<path d="M51.072 58.9427C51.0323 58.9016 51.0035 58.8513 50.9881 58.7963C50.9727 58.7413 50.9712 58.6834 50.9838 58.6277C51.005 58.4761 51.0626 58.332 51.1518 58.2077L54.6 53.0879C54.6882 52.9661 54.7722 52.8443 54.8646 52.7267C54.9415 52.6168 55.0401 52.5239 55.1544 52.4537L56.4144 51.7397C56.4562 51.7086 56.5062 51.6906 56.5582 51.6879C56.6101 51.6851 56.6618 51.6978 56.7066 51.7242C56.7514 51.7507 56.7875 51.7897 56.8102 51.8366C56.8329 51.8834 56.8413 51.9359 56.8344 51.9875V63.8063C56.8277 63.9551 56.7829 64.0998 56.7042 64.2263C56.6347 64.3571 56.5318 64.4672 56.406 64.5455L55.1208 65.2847C55.078 65.3171 55.0271 65.337 54.9737 65.3422C54.9204 65.3474 54.8666 65.3377 54.8184 65.3141C54.7744 65.2835 54.7395 65.2416 54.7173 65.1928C54.6952 65.144 54.6865 65.0902 54.6924 65.0369V56.0027L52.4454 59.3333C52.3711 59.4551 52.2632 59.5528 52.1346 59.6147C52.088 59.6381 52.0359 59.6482 51.984 59.6437C51.9321 59.6393 51.8825 59.6205 51.8406 59.5895L51.072 58.9427Z" fill="#FAFAFA"/>
<path d="M153.976 99.6786V98.9268H154.161C154.44 98.4161 154.864 97.9995 155.379 97.7298C156.43 97.1977 157.591 96.9204 158.768 96.9204C159.946 96.9204 161.107 97.1977 162.158 97.7298C162.673 97.9995 163.097 98.4161 163.376 98.9268H163.561V99.6534C163.561 100.372 163.107 101.094 162.158 101.644C161.11 102.172 159.952 102.447 158.778 102.446C157.605 102.446 156.448 102.169 155.4 101.64C154.438 101.102 153.972 100.38 153.976 99.6786Z" fill="#263238"/>
<path d="M162.158 96.9697C161.108 96.4356 159.946 96.1572 158.768 96.1572C157.59 96.1572 156.429 96.4356 155.379 96.9697C153.506 98.0491 153.506 99.8005 155.379 100.884C156.43 101.416 157.591 101.694 158.768 101.694C159.946 101.694 161.107 101.416 162.158 100.884C164.031 99.8005 164.031 98.0491 162.158 96.9697Z" fill="#455A64"/>
<path d="M160.02 70.1401V98.6077C160.01 98.7163 159.971 98.8202 159.908 98.9088C159.844 98.9973 159.758 99.0674 159.659 99.1117C159.388 99.2503 159.089 99.3226 158.785 99.3226C158.481 99.3226 158.182 99.2503 157.912 99.1117C157.812 99.0674 157.726 98.9973 157.663 98.9088C157.599 98.8202 157.56 98.7163 157.55 98.6077V70.1401H160.02Z" fill="#37474F"/>
<path d="M157.534 73.2397V74.1301L160.003 75.5539V74.6677L157.534 73.2397Z" fill="#263238"/>
<path d="M173.288 62.6011L173.078 63.0211L170.818 67.5487L169.747 69.7201L166.118 76.9987L165.719 77.8009H165.648C165.502 77.8058 165.357 77.7725 165.228 77.7043L149.054 68.3551C148.933 68.2788 148.832 68.1752 148.759 68.0526C148.686 67.93 148.643 67.7919 148.634 67.6495V61.3999C148.634 58.2835 150.688 54.5707 153.22 53.1091C154.421 52.4161 155.509 52.3615 156.328 52.8193L173.288 62.6011Z" fill="#455A64"/>
<path d="M170.234 62.9329C169.21 63.3109 165.493 66.3811 165.493 71.2195C165.493 75.2851 165.493 77.3935 165.493 77.7757H165.644H165.715L166.114 76.9735L169.747 69.7201L170.818 67.5697L171.066 67.0783L170.234 62.9329Z" fill="#37474F"/>
<path d="M174.619 72.6602C174.579 72.7287 174.521 72.7852 174.451 72.824L174.409 72.8492L166.055 77.7002C165.952 77.7554 165.837 77.7869 165.719 77.7926H165.648V71.2196C165.669 70.0304 165.915 68.8559 166.375 67.7588L166.795 67.994L169.756 69.7034L174.35 72.362L174.586 72.4964C174.611 72.5142 174.629 72.5412 174.635 72.5716C174.641 72.6021 174.636 72.6338 174.619 72.6602Z" fill="#37474F"/>
<path d="M173.288 62.601C172.477 62.181 171.406 62.2524 170.234 62.9328C168.796 63.8366 167.634 65.118 166.874 66.6372C166.682 67.0013 166.509 67.3757 166.358 67.7586C165.899 68.8558 165.652 70.0302 165.631 71.2194V77.7882H165.703C165.82 77.7826 165.935 77.751 166.039 77.6958L174.388 72.87L174.43 72.8448C174.496 72.8014 174.553 72.7458 174.598 72.681C174.716 72.5338 174.784 72.3528 174.791 72.1644V65.94C174.812 64.26 174.224 63.0966 173.288 62.601ZM174.22 72.429L166.24 77.049C166.173 77.0868 166.118 77.049 166.118 76.9776V71.2194C166.14 70.1122 166.366 69.0185 166.786 67.9938C166.791 67.9715 166.799 67.9502 166.811 67.9308C166.972 67.5252 167.157 67.1297 167.366 66.7464C168.073 65.3512 169.146 64.174 170.47 63.3402C170.982 63.0148 171.572 62.8308 172.179 62.8068C172.492 62.8033 172.801 62.8784 173.078 63.0252C173.876 63.4452 174.338 64.4826 174.338 65.9232V72.2232C174.336 72.2643 174.324 72.3043 174.303 72.34C174.283 72.3758 174.254 72.4062 174.22 72.429Z" fill="#455A64"/>
<path d="M174.342 65.9401V72.3787L166.782 68.0107C166.787 67.9884 166.795 67.967 166.807 67.9477C167.618 65.9233 168.983 64.2055 170.465 63.3571C170.978 63.0316 171.568 62.8476 172.175 62.8237C173.515 62.8069 174.342 64.0039 174.342 65.9401Z" fill="#263238"/>
<path d="M160.507 69.1322L161.175 68.7458C161.317 68.6814 161.474 68.6556 161.63 68.6711C161.785 68.6866 161.934 68.7428 162.061 68.834C162.428 69.0735 162.733 69.396 162.952 69.7755C163.171 70.1549 163.297 70.5806 163.321 71.018C163.336 71.1716 163.311 71.3266 163.248 71.4673C163.184 71.6081 163.085 71.7298 162.96 71.8202L162.343 72.1772L162.229 71.9882C162.103 71.9603 161.981 71.9136 161.868 71.8496C161.501 71.6101 161.196 71.2876 160.977 70.9081C160.758 70.5287 160.632 70.103 160.608 69.6656C160.609 69.5567 160.622 69.4483 160.646 69.3422L160.507 69.1322Z" fill="#E0E0E0"/>
<path d="M161.427 69.2034C161.793 69.4423 162.099 69.7641 162.317 70.1428C162.536 70.5215 162.663 70.9464 162.687 71.3832C162.687 72.1896 162.12 72.513 161.427 72.114C161.06 71.8743 160.755 71.5517 160.537 71.1723C160.318 70.7929 160.191 70.3674 160.167 69.93C160.163 69.1278 160.73 68.8002 161.427 69.2034Z" fill="#FAFAFA"/>
<path d="M161.427 71.0052C161.33 71.0052 161.237 70.9667 161.169 70.8982C161.1 70.8297 161.062 70.7367 161.062 70.6398V60.3036C161.062 60.2067 161.1 60.1138 161.169 60.0453C161.237 59.9767 161.33 59.9382 161.427 59.9382C161.524 59.9382 161.617 59.9767 161.685 60.0453C161.754 60.1138 161.792 60.2067 161.792 60.3036V70.6398C161.792 70.7367 161.754 70.8297 161.685 70.8982C161.617 70.9667 161.524 71.0052 161.427 71.0052Z" fill="#EBEBEB"/>
<path d="M161.062 61.3243L157.399 59.2117L158.546 61.4167L157.399 62.2987L161.062 64.4155V61.3243Z" fill="#508780"/>
<path d="M172.435 68.0401C172.433 67.984 172.417 67.9292 172.389 67.8803C172.361 67.8314 172.323 67.7898 172.276 67.7587L163.993 62.9791C163.943 62.9543 163.888 62.9414 163.832 62.9414C163.775 62.9414 163.72 62.9543 163.67 62.9791L163.485 63.0841C163.438 63.1152 163.399 63.1568 163.372 63.2057C163.344 63.2546 163.328 63.3094 163.325 63.3655V69.7201C163.329 69.7761 163.345 69.8305 163.373 69.8792C163.4 69.928 163.439 69.9698 163.485 70.0015L171.78 74.7601C171.83 74.7849 171.886 74.7979 171.942 74.7979C171.998 74.7979 172.053 74.7849 172.103 74.7601L172.288 74.6551C172.335 74.6241 172.374 74.5824 172.402 74.5335C172.429 74.4846 172.445 74.4299 172.448 74.3737L172.435 68.0401Z" fill="#F0F0F0"/>
<path d="M172.389 67.8722L171.931 68.1368L163.38 63.1976C163.408 63.1486 163.446 63.1068 163.493 63.0758L163.678 62.9708C163.728 62.944 163.783 62.9299 163.84 62.9299C163.896 62.9299 163.952 62.944 164.002 62.9708L172.284 67.7504C172.328 67.7824 172.364 67.8241 172.389 67.8722Z" fill="#FAFAFA"/>
<path d="M172.435 68.0403V74.3865C172.433 74.4427 172.417 74.4974 172.389 74.5463C172.361 74.5952 172.323 74.6369 172.276 74.6679L172.091 74.7729L172.049 74.7939H171.982C171.939 74.8023 171.894 74.8023 171.851 74.7939H171.822H171.801C171.813 74.8002 171.827 74.8035 171.841 74.8035C171.855 74.8035 171.868 74.8002 171.881 74.7939C171.898 74.7826 171.912 74.7669 171.921 74.7484C171.929 74.7299 171.933 74.7093 171.931 74.6889V68.3217C171.932 68.2929 171.924 68.2645 171.909 68.2404C171.893 68.2163 171.87 68.1978 171.843 68.1873L171.931 68.1369L172.389 67.8723C172.419 67.9232 172.435 67.9812 172.435 68.0403Z" fill="#E0E0E0"/>
<path d="M171.931 68.1367L168.092 69.5689C167.96 69.6177 167.815 69.6202 167.68 69.576C167.546 69.5318 167.431 69.4434 167.353 69.3253L166.74 68.3845L163.342 63.1765L166.614 68.4181L163.325 69.7201C163.329 69.7767 163.346 69.8316 163.376 69.8797L166.627 68.4433L167.341 69.5899C167.42 69.7175 167.543 69.812 167.686 69.856C167.83 69.9 167.985 69.8905 168.122 69.8293L168.63 69.6067L171.881 74.7601C171.898 74.7488 171.912 74.7331 171.921 74.7146C171.929 74.6961 171.933 74.6755 171.931 74.6551V74.5501L168.647 69.5689L171.931 68.1367Z" fill="#E0E0E0"/>
<path d="M178.844 69.0564L177.164 70.9758L177.131 71.0178L175.56 72.8364C175.466 72.9391 175.359 73.0281 175.241 73.101L166.421 78.183C166.391 78.2004 166.358 78.2118 166.324 78.2166H166.32L169.495 74.55L169.68 74.34C172.021 71.785 174.707 69.5685 177.66 67.7544C178.815 67.0866 179.554 66.8472 179.836 66.9858C180.18 67.1748 179.861 67.8846 178.844 69.0564Z" fill="#37474F"/>
</svg>
