<svg width="21" height="17" viewBox="0 0 21 17" fill="none" xmlns="http://www.w3.org/2000/svg">
<path d="M6.72939 15.1539L12.9586 1.25805C13.1209 0.895824 13.5462 0.733815 13.9084 0.896192C14.2405 1.04504 14.4043 1.41479 14.3042 1.75439L14.2703 1.84607L8.04112 15.7419C7.87874 16.1041 7.45347 16.2661 7.09124 16.1038C6.75921 15.9549 6.5954 15.5852 6.69548 15.2456L6.72939 15.1539L12.9586 1.25805L6.72939 15.1539ZM1.12702 7.99174L5.19994 3.91882C5.48063 3.63814 5.93571 3.63814 6.2164 3.91882C6.47158 4.174 6.49477 4.5733 6.286 4.85468L6.2164 4.93529L2.65172 8.49997L6.2164 12.0647C6.49709 12.3453 6.49709 12.8004 6.2164 13.0811C5.96123 13.3363 5.56193 13.3595 5.28055 13.1507L5.19994 13.0811L1.12702 9.00821C0.871849 8.75303 0.848651 8.35373 1.05743 8.07235L1.12702 7.99174L5.19994 3.91882L1.12702 7.99174ZM14.7833 3.91882C15.0384 3.66365 15.4377 3.64046 15.7191 3.84923L15.7997 3.91882L19.8727 7.99174C20.1278 8.24691 20.151 8.64622 19.9422 8.92759L19.8727 9.00821L15.7997 13.0811C15.519 13.3618 15.064 13.3618 14.7833 13.0811C14.5281 12.826 14.5049 12.4266 14.7137 12.1453L14.7833 12.0647L18.348 8.49997L14.7833 4.93529C14.5026 4.6546 14.5026 4.19951 14.7833 3.91882Z" fill="#949494"/>
</svg>
