<svg width="71" height="64" viewBox="0 0 71 64" fill="none" xmlns="http://www.w3.org/2000/svg">
<path d="M3.65169 0V3.60743H10.7124V0H14.3641V8.63H56.6301V0H60.2818V3.60743H67.3425V0H70.9942V64H67.3425V59.83H60.2818V64H56.6301V54.9756H14.3699V64H10.7182V59.83H3.65169V64H0V0H3.65169ZM42.5145 35.2681C43.0518 35.1754 43.5603 35.1927 44.0052 35.2971V24.7996L32.9346 27.9895V40.1805C32.9403 40.2443 32.9461 40.3139 32.9461 40.3835C32.9461 42.0248 31.2301 43.6546 29.1153 44.0199C27.0006 44.3853 25.2845 43.353 25.2845 41.7116C25.2845 40.0703 27.0006 38.4406 29.1153 38.0752C29.9127 37.936 30.6523 37.9998 31.2647 38.2144V23.2047H31.3572L45.6808 19.9105V36.8167C45.7039 36.9385 45.7213 37.0661 45.7213 37.1937C45.7213 38.5624 44.2883 39.9253 42.5203 40.2327C40.7522 40.5401 39.3193 39.6759 39.3193 38.3014C39.3135 36.9327 40.7464 35.5697 42.5145 35.2681ZM56.6301 12.2954H14.3699V51.3102H56.6359V12.2954H56.6301ZM67.3483 56.1646V49.3209H60.2876V56.1646H67.3483ZM67.3483 45.6555V38.8118H60.2876V45.6555H67.3483ZM67.3483 35.1406V28.2969H60.2876V35.1406H67.3483ZM67.3483 24.6314V17.7878H60.2876V24.6314H67.3483ZM67.3483 14.1223V7.27866H60.2876V14.1223H67.3483ZM10.7124 56.1646V49.3209H3.65169V56.1646H10.7124ZM10.7124 45.6555V38.8118H3.65169V45.6555H10.7124ZM10.7124 35.1406V28.2969H3.65169V35.1406H10.7124ZM10.7124 24.6314V17.7878H3.65169V24.6314H10.7124ZM10.7124 14.1223V7.27866H3.65169V14.1223H10.7124Z" fill="#3B63AE"/>
</svg>
