<svg width="32" height="32" viewBox="0 0 32 32" fill="none" xmlns="http://www.w3.org/2000/svg">
<path d="M26.3875 0.6875H5.6125C2.9 0.6875 0.6875 2.9 0.6875 5.6125V11.35C0.6875 13.0438 1.56875 14.6062 2.9625 15.5C2.79375 16.0938 2.7 16.7125 2.7 17.35C2.7 17.4563 0.8625 16.8813 0.6875 18.625V30.0375C0.6875 30.7437 1.25625 31.3125 1.9625 31.3125H17.5C18.2062 31.3125 18.775 30.7437 18.775 30.0375V18.625C18.6125 16.9125 16.7625 17.4375 16.7625 17.35C16.7625 16.9875 16.7312 16.625 16.675 16.275H26.3875C29.1 16.275 31.3125 14.0625 31.3125 11.35V5.6125C31.3125 2.9 29.1 0.6875 26.3875 0.6875ZM16.225 28.7625H3.2375V19.9H16.225V28.7625ZM5.25625 17.35C5.325 14.9313 7.30625 12.9875 9.7375 12.9875C12.1688 12.9875 14.15 14.9313 14.2188 17.35H5.25625ZM28.7625 11.35C28.7625 12.6562 27.7 13.725 26.3875 13.725H15.6875C14.4375 11.7688 12.2188 10.4375 9.73125 10.4375C7.46875 10.4375 5.425 11.5312 4.13125 13.2063C3.58125 12.7625 3.2375 12.0813 3.2375 11.35V5.6125C3.2375 4.30625 4.3 3.2375 5.6125 3.2375H26.3875C27.6938 3.2375 28.7625 4.3 28.7625 5.6125V11.35Z" fill="black"/>
<path d="M7.30625 7.20624H6.86875C6.1625 7.20624 5.59375 7.77499 5.59375 8.48124C5.59375 9.18749 6.1625 9.75624 6.86875 9.75624H7.30625C8.0125 9.75624 8.58125 9.18749 8.58125 8.48124C8.58125 7.77499 8.0125 7.20624 7.30625 7.20624Z" fill="black"/>
<path d="M13.2496 7.20624H12.8121C12.1059 7.20624 11.5371 7.77499 11.5371 8.48124C11.5371 9.18749 12.1059 9.75624 12.8121 9.75624H13.2496C13.9559 9.75624 14.5246 9.18749 14.5246 8.48124C14.5246 7.77499 13.9559 7.20624 13.2496 7.20624Z" fill="black"/>
<path d="M19.1871 7.20624H18.7496C18.0434 7.20624 17.4746 7.77499 17.4746 8.48124C17.4746 9.18749 18.0434 9.75624 18.7496 9.75624H19.1871C19.8934 9.75624 20.4621 9.18749 20.4621 8.48124C20.4621 7.77499 19.8934 7.20624 19.1871 7.20624Z" fill="black"/>
<path d="M25.1314 7.20624H24.6939C23.9877 7.20624 23.4189 7.77499 23.4189 8.48124C23.4189 9.18749 23.9877 9.75624 24.6939 9.75624H25.1314C25.8377 9.75624 26.4064 9.18749 26.4064 8.48124C26.4064 7.77499 25.8377 7.20624 25.1314 7.20624Z" fill="black"/>
</svg>
