<svg width="75" height="65" viewBox="0 0 75 65" fill="none" xmlns="http://www.w3.org/2000/svg">
<path d="M53.7875 41.5543C53.1094 43.9006 52.1409 46.1542 50.904 48.2634H56.9203C57.1805 48.4207 57.4555 48.5523 57.7415 48.6563C58.4152 48.9043 59.141 48.979 59.8515 48.8733C60.562 48.7676 61.2341 48.4851 61.8051 48.0519L63.4597 46.9337C62.7272 48.5449 61.8625 50.0934 60.8744 51.5636C58.6755 54.8061 55.8662 57.5954 52.6013 59.7778C50.9506 60.88 49.199 61.825 47.3697 62.6004C45.4963 63.4 43.5457 64.0075 41.5481 64.4137C37.4772 65.2116 33.2885 65.2116 29.2175 64.4137C27.2548 64.0199 25.3371 63.4307 23.4933 62.6548L23.396 62.6186C21.5673 61.8419 19.8158 60.8968 18.1644 59.7959C16.5343 58.7079 15.0145 57.465 13.6264 56.0847C13.0181 55.4803 12.4462 54.8759 11.8927 54.211C12.7712 53.4607 13.6934 52.7624 14.6544 52.1197C15.1127 52.6475 15.5872 53.1553 16.0779 53.6428C17.3022 54.8653 18.645 55.9646 20.0867 56.9249C21.5649 57.9041 23.1309 58.7458 24.7647 59.4393L24.8437 59.4756C26.4699 60.1577 28.1616 60.6741 29.8928 61.0168C30.3247 61.1015 30.7688 61.18 31.2128 61.2405C27.5249 58.2038 24.2527 54.7006 21.4798 50.8202H16.6132C18.4382 49.6718 20.4699 48.5536 22.4835 47.5019C22.6356 47.7618 22.7937 48.0156 22.958 48.2695H34.0658V42.0802L34.9175 41.7235C35.3204 42.4919 35.9598 43.1124 36.7424 43.4945V48.2634H47.7955C50.4356 44.1473 51.8591 40.0009 52.0538 35.8304L53.8057 41.5543H53.7875ZM31.2372 31.7022C31.6508 30.3906 32.8005 29.3389 34.4673 28.2751L28.7735 21.6626C28.3902 21.3302 28.4876 21.0582 28.8465 20.8225L30.7383 20.0186C30.8907 19.9707 31.0517 19.9562 31.2103 19.976C31.3688 19.9959 31.5212 20.0496 31.6569 20.1334L39.9239 24.2738L49.657 18.6828L36.201 2.0611C35.8543 1.68031 35.903 1.38414 36.4444 1.19073L39.4859 -0.0181274L59.7064 12.971L67.0062 9.44719C69.7862 8.23834 72.183 8.04492 73.6977 8.94551C74.0517 9.09011 74.3488 9.34521 74.5442 9.6723C74.7395 9.9994 74.8224 10.3807 74.7805 10.7588C74.8109 12.5721 73.284 14.5304 70.5892 16.1986L63.0035 19.1361L62.3952 43.0291L59.6821 44.8424C59.2137 45.1748 58.9399 45.0539 58.8183 44.5523L52.5404 24.1771L42.418 29.0125L41.2014 38.0789C41.193 38.2416 41.149 38.4007 41.0722 38.5447C40.9955 38.6888 40.8881 38.8145 40.7573 38.913L39.0358 40.013C38.6404 40.1702 38.3606 40.0976 38.3058 39.596L36.0185 31.1944C34.1936 31.9681 32.6606 32.3187 31.3345 31.9077C31.2128 31.8714 31.2007 31.817 31.2372 31.7022ZM28.6822 27.5135C20.6403 31.7445 9.88523 38.6168 5.93117 42.6241C-7.00165 55.855 3.09033 66.1665 18.2009 61.6515C13.4682 60.9564 9.76357 60.0074 7.70745 58.6656C-1.07056 52.9357 27.1736 40.5691 33.7799 37.8613L33.2629 35.9573C32.2236 36.051 31.176 35.9422 30.1787 35.637L29.8076 35.4738C29.3165 35.2932 28.8698 35.0105 28.4973 34.6447C28.1249 34.2788 27.8354 33.8382 27.6481 33.3522L27.569 33.1407C27.2427 32.3156 27.2276 31.4011 27.5264 30.5658C27.8331 29.5789 28.3311 28.661 28.9925 27.8641L28.6944 27.5135H28.6822ZM4.86661 38.1453C4.72656 36.9193 4.6575 35.6862 4.65978 34.4523C4.65788 32.3944 4.86165 30.3413 5.2681 28.3234C5.65948 26.3727 6.25059 24.4669 7.03222 22.6358L7.06872 22.5451C7.85491 20.7272 8.8079 18.9852 9.91564 17.341C11.0071 15.7222 12.2561 14.2139 13.6446 12.838C15.0327 11.4578 16.5525 10.2149 18.1827 9.12684C19.8341 8.02589 21.5856 7.08088 23.4142 6.30417C25.288 5.50551 27.2385 4.89797 29.2358 4.49089C30.4155 4.25771 31.6078 4.09223 32.8066 3.99526C32.9428 4.20656 33.0932 4.40849 33.2568 4.59969L36.7363 8.90925V18.0482H42.9533L39.7962 19.8615L34.0658 16.9965V8.89112C30.8357 11.6426 27.8928 14.7105 25.2817 18.0482H26.0908C25.4428 18.6021 24.982 19.3407 24.7707 20.1637C24.7241 20.322 24.6895 20.4837 24.6673 20.6472V20.7016H23.4081C21.9465 22.9126 20.7732 25.299 19.9164 27.8036C18.8153 28.4624 17.7082 29.1334 16.6132 29.8224C17.3259 26.5986 18.5585 23.5104 20.2631 20.6774H11.8866C11.28 21.7155 10.7376 22.7894 10.2624 23.893L10.2259 23.9715C9.53462 25.594 9.01476 27.2833 8.67468 29.0125C8.40238 30.3718 8.23561 31.7499 8.17586 33.1347H11.5581C9.24017 34.6885 7.00655 36.3631 4.86661 38.1514V38.1453ZM52.0173 35.7881H45.4414L45.8003 33.1286H51.2143L52.0233 35.7881H52.0173ZM49.2738 50.8141C46.4981 54.6941 43.2263 58.199 39.5407 61.2405C39.9848 61.174 40.4227 61.0954 40.8607 61.0108C42.6174 60.6587 44.3336 60.1301 45.9828 59.4332C47.6172 58.7411 49.1833 57.8993 50.6607 56.9188C52.1025 55.9586 53.4452 54.8592 54.6695 53.6368C55.575 52.7579 56.4147 51.8145 57.1819 50.8141H49.2738ZM36.7303 60.1404C40.1729 57.3981 43.284 54.2685 46.001 50.8141H36.7303V60.1404ZM34.0658 50.8141H24.789C27.5096 54.2674 30.6225 57.3969 34.0658 60.1404V50.8141ZM21.9968 18.0482C24.7376 14.2296 27.9138 10.739 31.4622 7.646C30.9391 7.71853 30.422 7.80315 29.911 7.9059C28.1506 8.25136 26.4318 8.78013 24.7829 9.48345C23.1491 10.1769 21.5832 11.0186 20.105 11.9979C18.6632 12.9581 17.3204 14.0574 16.0961 15.2799C15.2209 16.1428 14.4078 17.0659 13.6629 18.0421L21.9968 18.0482Z" fill="#3B63AE"/>
</svg>
