<svg width="19" height="21" viewBox="0 0 19 21" fill="none" xmlns="http://www.w3.org/2000/svg">
<path d="M7.14682 2.52115L8.41319 1.36089C9.00211 0.821289 9.99718 0.821289 10.5861 1.36089L11.8525 2.52115C11.9442 2.60519 12.0598 2.64667 12.1751 2.64667C12.3045 2.64667 12.4334 2.59449 12.5276 2.49162C12.7058 2.29709 12.6926 1.99482 12.4981 1.81655L11.2317 0.656296C10.2766 -0.218789 8.72268 -0.218742 7.76761 0.656296L6.50123 1.81655C6.30666 1.99477 6.29343 2.29709 6.4717 2.49162C6.64998 2.68623 6.9522 2.69947 7.14682 2.52115Z" fill="black"/>
<path d="M7.47245 7.48952H11.5271C11.791 7.48952 12.0049 7.27555 12.0049 7.0117C12.0049 6.74784 11.791 6.53387 11.5271 6.53387H7.47245C7.20855 6.53387 6.99463 6.74784 6.99463 7.0117C6.99463 7.27555 7.20855 7.48952 7.47245 7.48952Z" fill="black"/>
<path d="M7.47245 9.40078H11.5271C11.791 9.40078 12.0049 9.18681 12.0049 8.92295C12.0049 8.6591 11.791 8.44513 11.5271 8.44513H7.47245C7.20855 8.44513 6.99463 8.6591 6.99463 8.92295C6.99463 9.18681 7.20855 9.40078 7.47245 9.40078Z" fill="black"/>
<path d="M18.8964 20.7983C18.9011 20.7917 18.9055 20.785 18.9099 20.7782C18.9141 20.7716 18.9181 20.7651 18.9219 20.7584C18.9258 20.7517 18.9293 20.7448 18.9329 20.7379C18.9364 20.7309 18.9399 20.7238 18.9431 20.7167C18.9463 20.7097 18.9491 20.7025 18.9519 20.6953C18.9547 20.688 18.9575 20.6807 18.96 20.6733C18.9624 20.666 18.9646 20.6586 18.9667 20.6511C18.9688 20.6435 18.9708 20.6359 18.9725 20.6283C18.9742 20.6209 18.9756 20.6134 18.977 20.6059C18.9784 20.5978 18.9797 20.5897 18.9807 20.5816C18.9816 20.5744 18.9823 20.5671 18.9829 20.5598C18.9836 20.5511 18.984 20.5425 18.9842 20.5338C18.9843 20.5299 18.9848 20.5261 18.9848 20.5222V7.96964C18.9848 7.96587 18.9843 7.96219 18.9842 7.95841C18.984 7.94914 18.9835 7.93992 18.9828 7.9307C18.9822 7.92401 18.9816 7.91737 18.9808 7.91073C18.9796 7.90117 18.978 7.89171 18.9763 7.8822C18.9751 7.87613 18.974 7.87001 18.9726 7.86399C18.9704 7.85396 18.9676 7.84407 18.9647 7.83413C18.9631 7.82883 18.9616 7.82347 18.9599 7.81822C18.9565 7.8079 18.9525 7.79777 18.9483 7.78764C18.9464 7.78291 18.9446 7.77813 18.9425 7.77349C18.938 7.76356 18.9329 7.75386 18.9277 7.74416C18.9252 7.73947 18.9229 7.73474 18.9202 7.73015C18.9151 7.72136 18.9094 7.71281 18.9037 7.7043C18.9002 7.6991 18.8969 7.69384 18.8933 7.68878C18.8879 7.68142 18.8819 7.67435 18.8761 7.66718C18.8714 7.66149 18.8669 7.65566 18.862 7.65017C18.8611 7.64912 18.8602 7.64792 18.8592 7.64682C18.8537 7.6408 18.8477 7.6355 18.842 7.62981C18.8378 7.6257 18.8341 7.62131 18.8297 7.61734L18.3519 7.17956C18.1573 7.00128 17.8551 7.01452 17.6768 7.20904C17.4985 7.40361 17.5117 7.70588 17.7064 7.88416L17.7997 7.96964L17.0735 8.63496V3.60234C17.0735 3.33848 16.8596 3.12451 16.5957 3.12451H2.40435C2.14045 3.12451 1.92653 3.33848 1.92653 3.60234V8.63491L1.20023 7.96964L1.29355 7.88416C1.48812 7.70593 1.50136 7.40361 1.32308 7.20904C1.14485 7.01452 0.842583 7.00119 0.648014 7.17956L0.17019 7.61734C0.16589 7.62131 0.162067 7.6257 0.15791 7.62981C0.152176 7.6355 0.146156 7.6408 0.140661 7.64682C0.139658 7.64787 0.138893 7.64907 0.13789 7.65017C0.132968 7.65566 0.128476 7.66149 0.123841 7.66718C0.117964 7.6743 0.112039 7.68137 0.10664 7.68878C0.102961 7.69384 0.0997115 7.6991 0.0962234 7.7043C0.0904895 7.71281 0.0848033 7.72136 0.0796906 7.73015C0.0770148 7.73474 0.0747213 7.73952 0.0721888 7.74416C0.0669806 7.75386 0.0619156 7.76356 0.0574241 7.77349C0.0553217 7.77813 0.0535537 7.78295 0.0515947 7.78764C0.0474376 7.79777 0.0434239 7.8079 0.0399836 7.81822C0.0382156 7.82347 0.0367821 7.82878 0.0352053 7.83413C0.0322906 7.84402 0.0295192 7.85396 0.0272734 7.86399C0.0258877 7.87001 0.0247887 7.87613 0.0236419 7.8822C0.021874 7.89171 0.0202972 7.90117 0.0191504 7.91073C0.0183381 7.91737 0.017717 7.92401 0.0171436 7.9307C0.0163791 7.93992 0.0159013 7.94914 0.0157102 7.95841C0.0156146 7.96219 0.0151367 7.96587 0.0151367 7.96964V20.5222C0.0151367 20.5261 0.0156146 20.5299 0.0157102 20.5339C0.0159013 20.5425 0.0163313 20.5511 0.0170002 20.5598C0.0175736 20.5672 0.0182904 20.5745 0.0191983 20.5817C0.0202017 20.5898 0.021444 20.5978 0.0228775 20.6058C0.0242154 20.6134 0.0256489 20.6209 0.027369 20.6284C0.0290892 20.636 0.031096 20.6436 0.0331985 20.6511C0.0353009 20.6586 0.0374511 20.666 0.0399358 20.6734C0.0423727 20.6808 0.045144 20.6881 0.0479632 20.6954C0.0507823 20.7026 0.0536493 20.7097 0.0567551 20.7168C0.0599566 20.7239 0.0633969 20.731 0.0669806 20.738C0.0704687 20.7449 0.0740524 20.7517 0.0779227 20.7584C0.0817453 20.7651 0.0858068 20.7717 0.0900116 20.7783C0.094312 20.7851 0.0987558 20.7918 0.103438 20.7983C0.107739 20.8044 0.11223 20.8104 0.116865 20.8163C0.122121 20.823 0.127521 20.8295 0.133111 20.8359C0.135739 20.839 0.137985 20.8422 0.140709 20.8451C0.142907 20.8475 0.145344 20.8495 0.147589 20.8519C0.154088 20.8587 0.160825 20.8652 0.167706 20.8716C0.172962 20.8765 0.17817 20.8814 0.183617 20.8861C0.190259 20.8917 0.197187 20.897 0.204116 20.9023C0.210136 20.9069 0.216061 20.9115 0.222225 20.9158C0.229202 20.9206 0.236512 20.925 0.243775 20.9294C0.25013 20.9333 0.256342 20.9374 0.26284 20.941C0.271298 20.9457 0.28009 20.9497 0.288882 20.9538C0.294424 20.9564 0.299776 20.9594 0.305414 20.9618C0.318841 20.9675 0.33265 20.9726 0.346698 20.9771C0.34775 20.9774 0.348801 20.9779 0.349852 20.9782C0.395054 20.9924 0.443171 21.0001 0.493056 21.0001H18.507C18.5569 21.0001 18.605 20.9924 18.6502 20.9782C18.6515 20.9778 18.6527 20.9772 18.654 20.9769C18.6678 20.9724 18.6814 20.9674 18.6947 20.9618C18.7002 20.9594 18.7054 20.9565 18.7108 20.954C18.7197 20.9498 18.7287 20.9457 18.7373 20.9409C18.7436 20.9374 18.7497 20.9334 18.7559 20.9296C18.7633 20.9251 18.7708 20.9206 18.7779 20.9157C18.7839 20.9115 18.7897 20.9069 18.7955 20.9025C18.8027 20.8971 18.8097 20.8917 18.8165 20.8859C18.8218 20.8814 18.8269 20.8766 18.8321 20.8718C18.8391 20.8653 18.846 20.8586 18.8526 20.8517C18.8548 20.8494 18.8571 20.8474 18.8593 20.8451C18.8619 20.8422 18.8641 20.839 18.8667 20.8361C18.8724 20.8296 18.8779 20.8229 18.8832 20.8162C18.8877 20.8102 18.8921 20.8043 18.8964 20.7983ZM16.0317 17.6064C15.8371 17.4281 15.5348 17.4413 15.3566 17.6359C15.1783 17.8304 15.1915 18.1327 15.3861 18.311L17.2781 20.0443H1.72178L3.6647 18.2642C3.85927 18.086 3.87251 17.7837 3.69423 17.5891C3.516 17.3946 3.21373 17.3813 3.01916 17.5596L0.970783 19.4363V9.05545L6.636 14.2459L4.22237 16.4573C4.0278 16.6355 4.01457 16.9378 4.19284 17.1323C4.28707 17.2352 4.41594 17.2874 4.54528 17.2874C4.66058 17.2874 4.77622 17.2459 4.86791 17.1619L7.34327 14.8939L7.76782 15.2829C8.24536 15.7204 8.87259 15.9392 9.49988 15.9392C10.1272 15.9392 10.7544 15.7204 11.2319 15.2829L11.6565 14.8939L14.1829 17.2086C14.2746 17.2926 14.3902 17.3341 14.5055 17.3341C14.6349 17.3341 14.7637 17.2819 14.858 17.1791C15.0362 16.9845 15.023 16.6823 14.8284 16.504L12.3638 14.2459L18.029 9.05545V19.4364L16.0317 17.6064ZM10.5864 14.5783C9.99744 15.1179 9.00232 15.1179 8.41341 14.5783L6.48348 12.8101H12.5162L10.5864 14.5783ZM2.88203 4.08016H16.1177V9.51048L13.5593 11.8545H5.44049L2.88208 9.51048V4.08016H2.88203Z" fill="black"/>
</svg>
