<svg width="16" height="17" viewBox="0 0 16 17" fill="none" xmlns="http://www.w3.org/2000/svg">
    <path fill-rule="evenodd" clip-rule="evenodd"
        d="M8.23438 3.13438C8.3844 2.9844 8.58784 2.90015 8.79998 2.90015C9.01211 2.90015 9.21555 2.9844 9.36558 3.13438L14.1656 7.93438C14.3156 8.0844 14.3998 8.28784 14.3998 8.49998C14.3998 8.71211 14.3156 8.91555 14.1656 9.06558L9.36558 13.8656C9.21469 14.0113 9.01261 14.0919 8.80286 14.0901C8.5931 14.0883 8.39245 14.0042 8.24412 13.8558C8.09579 13.7075 8.01166 13.5069 8.00984 13.2971C8.00801 13.0873 8.08865 12.8853 8.23438 12.7344L11.6688 9.29998H2.39998C2.1878 9.29998 1.98432 9.21569 1.83429 9.06566C1.68426 8.91563 1.59998 8.71215 1.59998 8.49998C1.59998 8.2878 1.68426 8.08432 1.83429 7.93429C1.98432 7.78426 2.1878 7.69998 2.39998 7.69998H11.6688L8.23438 4.26558C8.0844 4.11555 8.00015 3.91211 8.00015 3.69998C8.00015 3.48784 8.0844 3.2844 8.23438 3.13438Z"
        fill="white" />
</svg>
    