<svg width="17" height="16" viewBox="0 0 17 16" fill="none" xmlns="http://www.w3.org/2000/svg">
<path fill-rule="evenodd" clip-rule="evenodd" d="M10.5 2C11.5609 2 12.5783 2.42143 13.3284 3.17158C14.0786 3.92172 14.5 4.93914 14.5 6C14.5 7.06087 14.0786 8.07829 13.3284 8.82843C12.5783 9.57858 11.5609 10 10.5 10C9.43913 10 8.42172 9.57858 7.67157 8.82843C6.92143 8.07829 6.5 7.06087 6.5 6C6.5 4.93914 6.92143 3.92172 7.67157 3.17158C8.42172 2.42143 9.43913 2 10.5 2ZM16.5 6C16.5001 5.05571 16.2774 4.12472 15.8498 3.28274C15.4223 2.44077 14.8021 1.7116 14.0396 1.15453C13.2771 0.597457 12.3939 0.228216 11.4619 0.0768364C10.5298 -0.0745427 9.57512 -0.00378543 8.67554 0.283354C7.77596 0.570493 6.95685 1.06591 6.28483 1.7293C5.61282 2.39269 5.10687 3.20534 4.80815 4.10114C4.50942 4.99693 4.42634 5.9506 4.56567 6.88456C4.70501 7.81852 5.06282 8.7064 5.61 9.476L0.792999 14.293C0.610841 14.4816 0.510047 14.7342 0.512325 14.9964C0.514604 15.2586 0.619774 15.5094 0.805182 15.6948C0.990589 15.8802 1.2414 15.9854 1.5036 15.9877C1.7658 15.99 2.0184 15.8892 2.207 15.707L7.023 10.891C7.92064 11.5293 8.97665 11.9082 10.0753 11.9861C11.174 12.0641 12.2729 11.8381 13.2517 11.333C14.2305 10.8278 15.0513 10.063 15.6243 9.12235C16.1972 8.18168 16.5002 7.10144 16.5 6Z" fill="white"/>
</svg>
