<svg width="29" height="29" viewBox="0 0 29 29" fill="none" xmlns="http://www.w3.org/2000/svg">
<g clip-path="url(#clip0_855_46)">
<path d="M27.2288 6.40454H7.51524C6.9469 6.40454 6.44054 6.67398 6.11621 7.09142L15.8307 14.2198C16.7382 14.8858 18.0057 14.8858 18.9133 14.2198L28.6278 7.09148C28.3036 6.67392 27.7972 6.40454 27.2288 6.40454Z" fill="black"/>
<path d="M19.679 15.2628C19.0001 15.7609 18.1861 16.0102 17.3725 16.0102C16.5586 16.0102 15.745 15.7611 15.066 15.2628L5.74459 8.42279V17.6168H4.45109H3.72399C3.18823 17.6168 2.75391 18.0511 2.75391 18.5869C2.75391 19.1226 3.18828 19.5569 3.72399 19.5569H4.4512H5.74459V20.8242C5.74459 21.8009 6.53909 22.5954 7.51575 22.5954H27.2293C28.2059 22.5954 29.0004 21.8008 29.0004 20.8242V8.42273L19.679 15.2628Z" fill="black"/>
<path d="M4.45066 14.2474C4.27286 14.0458 4.01339 13.918 3.72345 13.918H0.970086C0.434378 13.918 0 14.3523 0 14.8881C0 15.4238 0.434378 15.8581 0.970086 15.8581H3.72356C4.01351 15.8581 4.27298 15.7303 4.45077 15.5287C4.60155 15.3577 4.6937 15.1339 4.6937 14.8881C4.69365 14.6422 4.60144 14.4184 4.45066 14.2474Z" fill="black"/>
</g>
<defs>
<clipPath id="clip0_855_46">
<rect width="29" height="29" fill="white"/>
</clipPath>
</defs>
</svg>
