<svg width="22" height="22" viewBox="0 0 22 22" fill="none" xmlns="http://www.w3.org/2000/svg">
<path d="M21.0702 8.2175H19.3544C19.2152 7.84469 19.076 7.47189 18.8918 7.14849L20.1 5.94024C20.4728 5.57193 20.4728 5.01496 20.1 4.64216L17.4051 1.94718C17.0368 1.57438 16.4798 1.57438 16.107 1.94718L14.8538 3.20035C14.5304 3.06111 14.1576 2.92186 13.8342 2.78262V1.01741C13.8342 0.505368 13.4165 0.0876465 12.9045 0.0876465H9.09555C8.5835 0.0876465 8.16578 0.505368 8.16578 1.01741V2.68381C7.79747 2.82305 7.46958 2.96229 7.14618 3.10153L5.89302 1.84837C5.5247 1.47556 4.96774 1.47556 4.59494 1.84837L1.89996 4.54334C1.52715 4.91166 1.52715 5.46862 1.89996 5.84142L3.10821 7.04967C2.92405 7.42248 2.78481 7.74587 2.64557 8.11868H0.929767C0.417722 8.11868 0 8.5364 0 9.04845V12.8573C0 13.3694 0.417722 13.7871 0.929767 13.7871H2.50633C2.64557 14.1599 2.78481 14.5282 2.96897 14.901L1.81013 16.0599C1.62597 16.244 1.2891 16.792 1.81013 17.358L4.5051 20.0529C4.87342 20.4257 5.43038 20.4257 5.80318 20.0529L6.91711 18.939C7.28542 19.1726 7.65823 19.3118 8.07595 19.4511V20.9827C8.07595 21.4948 8.49367 21.9125 9.00572 21.9125H12.8146C13.3267 21.9125 13.7444 21.4948 13.6995 21.0815V19.5499C14.0678 19.4106 14.4855 19.222 14.8583 19.0378L15.9722 20.1518C16.3405 20.5246 16.8975 20.5246 17.2703 20.1518L19.9653 17.4568C20.3381 17.0885 20.3381 16.5315 19.9653 16.1587L18.8065 14.9999C18.9906 14.6271 19.1299 14.2587 19.2691 13.8859H21.0702C21.5823 13.8859 22 13.4682 22 12.9562V9.14726C22 8.63522 21.5823 8.2175 21.0702 8.2175ZM20.0147 11.9815H18.6223C18.2046 11.9815 17.8363 12.26 17.7419 12.6777C17.5533 13.3739 17.3242 14.0252 16.9514 14.6271C16.7178 14.9999 16.8122 15.4625 17.0907 15.741L18.0653 16.7157L16.6729 18.1081L15.7432 17.1783C15.4647 16.8549 15.002 16.8055 14.6292 17.0391C13.978 17.4119 13.3267 17.6903 12.6305 17.8745C12.2127 17.9643 11.9343 18.3371 11.9343 18.7549V20.1023H9.93548V20.0979H9.89057V18.7504C9.89057 18.3326 9.61209 17.9643 9.19437 17.87C8.49367 17.6859 7.79747 17.4074 7.19559 17.0346C6.82278 16.801 6.36015 16.8953 6.08167 17.1738L5.1519 18.1036L3.75949 16.7112L4.73418 15.7365C5.01266 15.4131 5.10698 14.9954 4.87342 14.6226C4.50061 14.0207 4.22213 13.3694 4.08289 12.6732C3.99306 12.2555 3.62025 11.977 3.20253 11.977H1.81013V9.97821H3.29686C3.71458 9.97821 4.08289 9.69973 4.17722 9.28201C4.31646 8.63073 4.59494 8.02436 4.96774 7.42248C5.20131 7.04967 5.10698 6.58703 4.8285 6.30855L3.75949 5.23955L5.1519 3.84714L6.22091 4.91615C6.5443 5.19463 6.96203 5.28895 7.33483 5.05539C7.9412 4.73199 8.54308 4.45351 9.19437 4.31427C9.61209 4.22444 9.89057 3.85163 9.89057 3.43391V1.90226H11.8893V3.48332C11.8893 3.90104 12.1678 4.26935 12.5855 4.36368C13.2368 4.50292 13.8881 4.7814 14.4451 5.1048C14.8179 5.33836 15.2805 5.24404 15.559 4.96556L16.6729 3.85163L18.0653 5.24404L16.9963 6.31305C16.6729 6.59153 16.6235 7.05416 16.8571 7.42697C17.185 7.98842 17.4635 8.63522 17.6476 9.2865C17.7374 9.70423 18.1103 9.98271 18.528 9.98271H20.0147V11.9815Z" fill="black"/>
<path d="M10.9102 5.94019C8.1254 5.94019 5.84814 8.21744 5.84814 11.0023C5.84814 13.7871 8.1254 16.0643 10.9102 16.0643C13.6995 16.0643 15.9723 13.7871 15.9723 11.0023C15.9723 8.21744 13.695 5.94019 10.9102 5.94019ZM10.9102 14.2542C9.145 14.2542 7.65827 12.8124 7.65827 11.0023C7.65827 9.23704 9.10008 7.75031 10.9102 7.75031C12.7203 7.75031 14.1622 9.19213 14.1622 11.0023C14.1622 12.7675 12.6754 14.2542 10.9102 14.2542Z" fill="black"/>
</svg>
