<svg width="12" height="14" viewBox="0 0 12 14" fill="none" xmlns="http://www.w3.org/2000/svg">
<path d="M10 9.72007C9.49333 9.72007 9.04 9.92007 8.69333 10.2334L3.94 7.46674C3.97333 7.3134 4 7.16007 4 7.00007C4 6.84007 3.97333 6.68674 3.94 6.5334L8.64 3.7934C9 4.12674 9.47333 4.3334 10 4.3334C11.1067 4.3334 12 3.44007 12 2.3334C12 1.22674 11.1067 0.333405 10 0.333405C8.89333 0.333405 8 1.22674 8 2.3334C8 2.4934 8.02667 2.64674 8.06 2.80007L3.36 5.54007C3 5.20674 2.52667 5.00007 2 5.00007C0.893333 5.00007 0 5.8934 0 7.00007C0 8.10674 0.893333 9.00007 2 9.00007C2.52667 9.00007 3 8.7934 3.36 8.46007L8.10667 11.2267C8.07333 11.3667 8.05333 11.5134 8.05333 11.6667C8.05333 12.7401 8.92667 13.6067 10 13.6067C11.0733 13.6067 11.9467 12.7401 11.9467 11.6667C11.9467 10.5934 11.0733 9.72007 10 9.72007ZM10 1.66674C10.3667 1.66674 10.6667 1.96674 10.6667 2.3334C10.6667 2.70007 10.3667 3.00007 10 3.00007C9.63333 3.00007 9.33333 2.70007 9.33333 2.3334C9.33333 1.96674 9.63333 1.66674 10 1.66674ZM2 7.66674C1.63333 7.66674 1.33333 7.36674 1.33333 7.00007C1.33333 6.6334 1.63333 6.3334 2 6.3334C2.36667 6.3334 2.66667 6.6334 2.66667 7.00007C2.66667 7.36674 2.36667 7.66674 2 7.66674ZM10 12.3334C9.63333 12.3334 9.33333 12.0334 9.33333 11.6667C9.33333 11.3001 9.63333 11.0001 10 11.0001C10.3667 11.0001 10.6667 11.3001 10.6667 11.6667C10.6667 12.0334 10.3667 12.3334 10 12.3334Z" fill="#555461"/>
</svg>
