<svg width="71" height="66" viewBox="0 0 71 66" fill="none" xmlns="http://www.w3.org/2000/svg">
<g clip-path="url(#clip0_159_2)">
<path fill-rule="evenodd" clip-rule="evenodd" d="M61.2988 27.3112C60.5765 26.9639 58.7969 26.493 58.2364 25.9279C57.7489 25.427 57.3362 24.8558 57.0115 24.2328C56.6868 24.8558 56.2741 25.427 55.7866 25.9279C54.5501 27.1817 51.742 27.9645 49.841 27.9645C47.94 27.9645 45.1319 27.1817 43.9128 25.9279C43.4253 25.427 43.0125 24.8558 42.6878 24.2328C42.3631 24.8558 41.9504 25.427 41.4629 25.9279C40.2264 27.1817 37.4183 27.9645 35.5173 27.9645C33.6164 27.9645 30.8083 27.1817 29.5718 25.9279C29.072 25.4294 28.6475 24.8581 28.3122 24.2328C27.9875 24.8558 27.5748 25.427 27.0873 25.9279C25.8508 27.1817 23.0427 27.9645 21.1417 27.9645C19.2407 27.9645 16.4326 27.1817 15.1961 25.9279C14.7086 25.427 14.2959 24.8558 13.9712 24.2328C13.6465 24.8558 13.2338 25.427 12.7463 25.9279C11.9316 26.752 9.78794 27.3759 8.65545 27.6937C6.37314 27.9763 3.6806 27.6408 1.98765 25.9279C1.35571 25.2831 0.854873 24.5175 0.513804 23.6752C0.172735 22.8328 -0.00186115 21.9302 1.49605e-05 21.019V18.2879C0.0017703 18.1522 0.0354557 18.019 0.0982409 17.8994L4.90553 2.21315C5.29844 0.924106 6.26336 0.0941764 8.12965 0H62.4948C64.1704 0.182467 65.2625 0.900562 65.7131 2.20137L70.9133 17.87C70.9794 17.9825 71.0171 18.1099 71.0231 18.2408C71.0258 18.2682 71.0258 18.2958 71.0231 18.3232V21.019C71.0227 21.9314 70.8454 22.8348 70.5013 23.6772C70.1573 24.5196 69.6532 25.2845 69.0182 25.9279C67.0074 27.9763 63.9451 27.9233 61.3219 27.3112H61.2988ZM11.9547 62.8333V37.9237C11.9608 36.4051 12.5556 34.9505 13.6097 33.8767C14.6638 32.8029 16.0917 32.1969 17.5825 32.1907H52.8687C54.3594 32.1969 55.7873 32.8029 56.8414 33.8767C57.8955 34.9505 58.4903 36.4051 58.4964 37.9237V62.8333H62.4312C62.6044 62.8333 62.7705 62.7632 62.8929 62.6385C63.0154 62.5138 63.0842 62.3446 63.0842 62.1682V31.0782C64.1203 31.1734 65.1639 31.1417 66.1927 30.984V62.18C66.1912 63.1957 65.7944 64.1695 65.0893 64.8877C64.3842 65.606 63.4284 66.0102 62.4312 66.0118H8.56878C8.07455 66.0108 7.58537 65.9105 7.12927 65.7166C6.67318 65.5226 6.25914 65.2389 5.9109 64.8817C5.56099 64.5266 5.28337 64.1047 5.09398 63.64C4.90459 63.1754 4.80717 62.6772 4.80731 62.1741V31.0194C5.83065 31.2068 6.87151 31.276 7.91009 31.2254V62.1682C7.9107 62.256 7.92837 62.3428 7.96209 62.4236C7.99581 62.5045 8.0449 62.5777 8.10654 62.6391C8.16757 62.7 8.23983 62.748 8.31917 62.7803C8.39851 62.8127 8.48334 62.8287 8.56878 62.8274L11.9547 62.8333ZM50.517 41.1139C49.3413 40.6914 48.2436 40.0706 47.2698 39.2774C47.7147 40.8314 46.4551 44.3806 44.739 48.4655C43.5834 45.293 42.1967 41.9909 42.2372 39.2774C41.7954 39.7093 41.2906 40.0687 40.7407 40.3428L38.961 41.1433C38.4352 41.3729 38.2388 41.9674 38.2041 42.7384C37.5794 47.2518 37.2378 51.8011 37.1814 56.3587H39.7988L40.1629 47.771C40.3377 48.3169 40.471 48.8758 40.5615 49.4426C40.729 50.4893 40.729 51.5567 40.5615 52.6034L40.446 56.3469H44.0168V62.8215H26.105V58.2716C26.287 58.1845 26.4593 58.078 26.6192 57.9538C27.1148 58.1894 27.6691 58.2654 28.2082 58.1716C28.6941 58.0662 29.1338 57.804 29.462 57.4241C29.7781 57.5645 30.1244 57.6192 30.4674 57.583C30.6839 57.5579 30.8925 57.4854 31.0789 57.3706C31.2654 57.2558 31.4254 57.1014 31.5479 56.9179C32.8884 55.0696 31.5016 51.4262 30.6003 49.8546C29.8691 48.6443 28.9656 47.5514 27.9193 46.6114C27.8218 46.5255 27.7363 46.4265 27.6651 46.3171C27.6116 46.2335 27.5707 46.1423 27.5437 46.0464C27.5178 45.9044 27.5178 45.7587 27.5437 45.6167C27.5719 45.4491 27.6184 45.2852 27.6824 45.1282L28.2602 43.7861L28.5375 43.1563C28.6461 42.9394 28.7027 42.6994 28.7027 42.4559C28.7027 42.2124 28.6461 41.9724 28.5375 41.7555C28.4063 41.4948 28.2062 41.2766 27.9597 41.1257C27.896 41.0888 27.8305 41.0554 27.7633 41.0256V39.4952C27.7633 39.4016 27.7268 39.3117 27.6617 39.2455C27.5967 39.1793 27.5085 39.1421 27.4166 39.1421C27.3247 39.1421 27.2365 39.1793 27.1715 39.2455C27.1064 39.3117 27.0699 39.4016 27.0699 39.4952V40.8902C26.4251 40.8932 25.8055 41.1457 25.3365 41.5965C25.1217 41.378 24.8668 41.2046 24.5862 41.0865C24.3056 40.9683 24.0049 40.9076 23.7013 40.9079V39.4952C23.7013 39.4016 23.6648 39.3117 23.5998 39.2455C23.5348 39.1793 23.4466 39.1421 23.3547 39.1421C23.2627 39.1421 23.1745 39.1793 23.1095 39.2455C23.0445 39.3117 23.008 39.4016 23.008 39.4952V41.0491C22.9322 41.0784 22.8587 41.1139 22.7884 41.1551C22.5004 41.2967 22.2564 41.5167 22.0835 41.7908C21.9535 42.0106 21.8772 42.2589 21.8611 42.515C21.845 42.7711 21.8896 43.0274 21.9911 43.2623L22.228 43.8509L22.6613 44.9457V44.981C23.1409 45.9345 22.8058 46.2524 22.28 46.7468C22.1297 46.894 21.968 47.047 21.7946 47.2353C21.3345 47.7207 20.9151 48.2444 20.5408 48.801C19.2634 50.6467 18.5498 52.8357 18.4896 55.0932C18.4896 55.2639 18.4896 55.3698 18.4896 55.4699C18.4607 56.341 18.4376 56.9355 19.5816 57.3358C19.8323 57.4237 20.0968 57.4636 20.3617 57.4535C20.5559 57.4428 20.749 57.4172 20.9395 57.377C21.335 57.7799 21.8439 58.0474 22.3955 58.1422C22.893 58.2109 23.3991 58.116 23.84 57.8714C24.1136 58.096 24.4277 58.2639 24.7645 58.3658V62.8333H14.5663V37.9237C14.5694 37.1097 14.8881 36.33 15.4531 35.7545C16.0181 35.179 16.7835 34.8543 17.5825 34.8512H52.8629C53.6628 34.8512 54.43 35.1749 54.9956 35.7511C55.5612 36.3273 55.879 37.1088 55.879 37.9237V62.8333H45.4786V56.3587H49.0552L48.9512 52.6093C48.8184 51.6064 48.8301 50.5892 48.9858 49.5898C49.0783 48.9972 49.1996 48.391 49.3499 47.771L49.6908 56.3881H52.3082C52.2742 51.8964 51.9363 47.4124 51.297 42.968C51.297 41.932 51.0602 41.314 50.517 41.108V41.1139ZM46.9924 44.3571H49.0263C49.0308 44.3571 49.0354 44.358 49.0396 44.3598C49.0438 44.3615 49.0476 44.3641 49.0508 44.3674C49.054 44.3707 49.0566 44.3746 49.0583 44.3789C49.0601 44.3832 49.061 44.3878 49.061 44.3924V44.8515C49.0557 44.8546 49.0497 44.8562 49.0436 44.8562C49.0375 44.8562 49.0316 44.8546 49.0263 44.8515H46.9924C46.9872 44.8546 46.9812 44.8562 46.9751 44.8562C46.969 44.8562 46.963 44.8546 46.9578 44.8515V44.3924C46.9578 44.3924 46.9578 44.3571 46.9924 44.3571ZM44.7506 48.8069C44.8111 48.8069 44.8704 48.8252 44.9207 48.8595C44.9711 48.8938 45.0103 48.9425 45.0335 48.9995C45.0567 49.0565 45.0627 49.1192 45.0509 49.1797C45.0391 49.2403 45.0099 49.2958 44.9671 49.3395C44.9243 49.3831 44.8697 49.4128 44.8103 49.4248C44.7509 49.4369 44.6893 49.4307 44.6334 49.4071C44.5774 49.3835 44.5296 49.3435 44.496 49.2922C44.4623 49.2409 44.4443 49.1806 44.4443 49.1189C44.4443 49.0361 44.4766 48.9568 44.534 48.8983C44.5915 48.8398 44.6694 48.8069 44.7506 48.8069Z" fill="#12544D"/>
</g>
<defs>
<clipPath id="clip0_159_2">
<rect width="71" height="66" fill="white"/>
</clipPath>
</defs>
</svg>
