<svg width="67" height="61" viewBox="0 0 67 61" fill="none" xmlns="http://www.w3.org/2000/svg">
<path d="M67 23.7323C67 23.6647 67 23.597 67 23.597L64.6313 4.24142C64.3606 2.21112 62.601 0.722229 60.5707 0.722229H6.49697C4.46667 0.722229 2.77475 2.21112 2.43636 4.24142L0 23.5293C0 23.597 0 23.6647 0 23.7323C0 26.9808 2.30101 29.7556 5.41414 30.3647V49.4495H5.34646C3.72222 49.4495 2.16566 50.4646 1.62424 51.9535L0.473737 54.6606C-0.0676768 55.8788 0.0676768 57.3 0.812121 58.4505C1.55657 59.601 2.84242 60.2778 4.19596 60.2778H62.804C64.1576 60.2778 65.4434 59.601 66.1879 58.5182C66.9323 57.4354 67.1354 56.0141 66.5939 54.6606L65.5111 52.0212C64.9697 50.6677 63.6838 49.7202 62.2626 49.5172V30.1616C65.0374 29.2818 67 26.7101 67 23.7323ZM62.9394 53.104L64.0899 55.7434C64.2929 56.1495 64.2253 56.5556 63.9545 56.9616C63.6838 57.3677 63.2778 57.5707 62.804 57.5707H4.19596C3.72222 57.5707 3.31616 57.3677 3.04545 56.9616C2.77475 56.5556 2.77475 56.1495 2.9101 55.7434L4.06061 53.0364C4.26364 52.5626 4.80505 52.2242 5.27879 52.2242H61.6535C62.1949 52.2242 62.7364 52.5626 62.9394 53.104ZM20.303 41.3283H21.6566V49.4495H8.12121V30.5H8.79798C11.0313 30.5 12.9939 29.4172 14.2121 27.7929C15.4303 29.4172 17.3929 30.5 19.6263 30.5H21.6566V38.6212H20.303C19.5586 38.6212 18.9495 39.2303 18.9495 39.9748C18.9495 40.7192 19.5586 41.3283 20.303 41.3283ZM43.3131 41.3283V49.4495H24.3636V41.3283H43.3131ZM24.3636 38.6212V29.8909C25.4465 29.4172 26.3939 28.7404 27.0707 27.7929C28.2889 29.4172 30.2515 30.5 32.4848 30.5H34.5151C36.7485 30.5 38.7111 29.4172 39.9293 27.7929C40.7414 28.9434 41.9596 29.7556 43.3131 30.1616V38.6212H24.3636ZM53.4646 38.6212H46.0202V30.5H47.3737C49.6071 30.5 51.5697 29.4172 52.7879 27.7929C54.0061 29.4172 55.9687 30.5 58.202 30.5H59.5556V49.4495H46.0202V41.3283H53.4646C54.2091 41.3283 54.8182 40.7192 54.8182 39.9748C54.8182 39.2303 54.2091 38.6212 53.4646 38.6212ZM60.2323 27.7929H58.202C55.9687 27.7929 54.1414 25.9657 54.1414 23.7323C54.1414 22.9879 53.5323 22.3788 52.7879 22.3788C52.0434 22.3788 51.4343 22.9879 51.4343 23.7323C51.4343 25.9657 49.6071 27.7929 47.3737 27.7929H45.3434C43.1101 27.7929 41.2828 25.9657 41.2828 23.7323C41.2828 22.9879 40.6737 22.3788 39.9293 22.3788C39.1848 22.3788 38.5758 22.9879 38.5758 23.7323C38.5758 25.9657 36.7485 27.7929 34.5151 27.7929H32.4848C30.2515 27.7929 28.4242 25.9657 28.4242 23.7323C28.4242 22.9879 27.8152 22.3788 27.0707 22.3788C26.3263 22.3788 25.7172 22.9879 25.7172 23.7323C25.7172 25.9657 23.8899 27.7929 21.6566 27.7929H19.6263C17.3929 27.7929 15.5657 25.9657 15.5657 23.7323C15.5657 22.9879 14.9566 22.3788 14.2121 22.3788C13.4677 22.3788 12.8586 22.9879 12.8586 23.7323C12.8586 25.9657 11.0313 27.7929 8.79798 27.7929H6.76768C4.53434 27.7929 2.77475 26.0333 2.70707 23.8L5.14343 4.64748C5.27879 3.97071 5.8202 3.4293 6.49697 3.4293H60.5707C61.2475 3.4293 61.8566 3.97071 61.9242 4.5798L64.2929 23.8C64.2253 26.0333 62.4657 27.7929 60.2323 27.7929Z" fill="#12544D"/>
<path d="M14.8888 38.6212H12.8585C12.1141 38.6212 11.505 39.2303 11.505 39.9748C11.505 40.7192 12.1141 41.3283 12.8585 41.3283H14.8888C15.6333 41.3283 16.2424 40.7192 16.2424 39.9748C16.2424 39.2303 15.6333 38.6212 14.8888 38.6212Z" fill="#12544D"/>
</svg>
