<svg width="78" height="78" viewBox="0 0 78 78" fill="none" xmlns="http://www.w3.org/2000/svg">
<path d="M16.575 21.45C19.2673 21.45 21.45 19.2674 21.45 16.575C21.45 13.8826 19.2673 11.7 16.575 11.7C13.8826 11.7 11.7 13.8826 11.7 16.575C11.7 19.2674 13.8826 21.45 16.575 21.45Z" stroke="#12544D" stroke-width="2" stroke-miterlimit="10" stroke-linecap="round" stroke-linejoin="round"/>
<path d="M16.575 66.3C19.2673 66.3 21.45 64.1174 21.45 61.425C21.45 58.7326 19.2673 56.55 16.575 56.55C13.8826 56.55 11.7 58.7326 11.7 61.425C11.7 64.1174 13.8826 66.3 16.575 66.3Z" stroke="#12544D" stroke-width="2" stroke-miterlimit="10" stroke-linecap="round" stroke-linejoin="round"/>
<path d="M61.4249 66.3C64.1173 66.3 66.2999 64.1174 66.2999 61.425C66.2999 58.7326 64.1173 56.55 61.4249 56.55C58.7325 56.55 56.5499 58.7326 56.5499 61.425C56.5499 64.1174 58.7325 66.3 61.4249 66.3Z" stroke="#12544D" stroke-width="2" stroke-miterlimit="10" stroke-linecap="round" stroke-linejoin="round"/>
<path d="M61.4249 21.45C64.1173 21.45 66.2999 19.2674 66.2999 16.575C66.2999 13.8826 64.1173 11.7 61.4249 11.7C58.7325 11.7 56.5499 13.8826 56.5499 16.575C56.5499 19.2674 58.7325 21.45 61.4249 21.45Z" stroke="#12544D" stroke-width="2" stroke-miterlimit="10" stroke-linecap="round" stroke-linejoin="round"/>
<path d="M30.4688 30.7125C27.0563 30.7125 24.375 33.6375 24.375 37.05C24.375 40.4625 27.0563 43.3875 30.4688 43.3875C35.8313 43.3875 41.1938 44.6062 46.0688 47.0437L50.9438 49.4812V35.3437V24.375L46.0688 26.8125C41.4375 29.25 36.075 30.7125 30.4688 30.7125Z" stroke="#12544D" stroke-width="2" stroke-miterlimit="10" stroke-linecap="round" stroke-linejoin="round"/>
<path d="M26.8125 41.925L32.6625 53.625H38.7562V30.7125" stroke="#12544D" stroke-width="2" stroke-miterlimit="10" stroke-linecap="round" stroke-linejoin="round"/>
<path d="M13.4062 57.7688C9.50625 52.4063 7.3125 46.0688 7.3125 39C7.3125 31.9313 9.50625 25.5938 13.4062 20.2313" stroke="#12544D" stroke-width="2" stroke-miterlimit="10" stroke-linecap="round" stroke-linejoin="round"/>
<path d="M57.7687 64.5938C52.4062 68.4938 46.0687 70.6875 39 70.6875C31.9312 70.6875 25.5937 68.4938 20.2312 64.5938" stroke="#12544D" stroke-width="2" stroke-miterlimit="10" stroke-linecap="round" stroke-linejoin="round"/>
<path d="M64.8375 20.475C68.4938 25.5937 70.6875 32.175 70.6875 39C70.6875 46.0687 68.4938 52.4062 64.5938 57.7687" stroke="#12544D" stroke-width="2" stroke-miterlimit="10" stroke-linecap="round" stroke-linejoin="round"/>
<path d="M20.2312 13.4062C25.5937 9.50625 31.9312 7.3125 39 7.3125C46.0687 7.3125 52.4062 9.50625 57.7687 13.4062" stroke="#12544D" stroke-width="2" stroke-miterlimit="10" stroke-linecap="round" stroke-linejoin="round"/>
</svg>
