<svg width="22" height="21" viewBox="0 0 22 21" fill="none" xmlns="http://www.w3.org/2000/svg">
<path d="M21.9668 8.0882C21.887 7.85388 21.6748 7.68308 21.4194 7.64769L14.6399 6.70694L11.6082 0.84315C11.4939 0.622204 11.2582 0.4823 11.0002 0.4823C10.742 0.4823 10.5063 0.622204 10.392 0.84315L7.36033 6.70694L0.580685 7.64769C0.325167 7.68317 0.112958 7.85397 0.0332103 8.0882C-0.0465376 8.32253 0.019919 8.57972 0.204822 8.75173L5.11058 13.3162L3.95261 19.7609C3.90903 20.0038 4.01355 20.2492 4.22232 20.394C4.43109 20.5388 4.70795 20.5579 4.93644 20.4432L11.0002 17.4006L17.0638 20.4432C17.163 20.493 17.2714 20.5176 17.3793 20.5176C17.3799 20.5176 17.3805 20.5176 17.3812 20.5176C17.3812 20.5176 17.3812 20.5176 17.3813 20.5176C17.7558 20.5176 18.0594 20.2277 18.0594 19.8703C18.0594 19.816 18.0523 19.7632 18.0392 19.7128L16.8897 13.316L21.7952 8.75165C21.98 8.57981 22.0466 8.32253 21.9668 8.0882ZM15.6877 12.6267C15.5279 12.7754 15.4549 12.9897 15.4927 13.1997L16.4788 18.6872L11.3158 16.0964C11.1182 15.9972 10.8823 15.9972 10.6848 16.0964L5.5217 18.6872L6.50779 13.1997C6.54559 12.9897 6.47262 12.7755 6.31276 12.6267L2.13559 8.74017L7.90844 7.93915C8.12933 7.90851 8.32029 7.77612 8.41903 7.58503L11.0004 2.59225L13.5818 7.58503C13.6806 7.77603 13.8715 7.90851 14.0923 7.93915L19.8649 8.74017L15.6877 12.6267Z" fill="black"/>
</svg>
