<svg width="12" height="12" viewBox="0 0 12 12" fill="none" xmlns="http://www.w3.org/2000/svg">
<path d="M5.23879 0.841602C5.47879 0.104801 6.52119 0.104801 6.76039 0.841602L7.61639 3.4752C7.66869 3.63559 7.77035 3.77535 7.90685 3.87449C8.04334 3.97363 8.20769 4.02708 8.37639 4.0272H11.146C11.9212 4.0272 12.2428 5.0192 11.6164 5.4752L9.37639 7.1024C9.23961 7.20163 9.13777 7.34161 9.08545 7.50228C9.03314 7.66296 9.03305 7.83607 9.08519 7.9968L9.94119 10.6304C10.1812 11.3672 9.33719 11.9808 8.70919 11.5248L6.46919 9.8976C6.33255 9.79841 6.16804 9.74498 5.99919 9.74498C5.83034 9.74498 5.66582 9.79841 5.52919 9.8976L3.28919 11.5248C2.66199 11.9808 1.81879 11.3672 2.05799 10.6304L2.91399 7.9968C2.96613 7.83607 2.96603 7.66296 2.91372 7.50228C2.86141 7.34161 2.75956 7.20163 2.62279 7.1024L0.383589 5.476C-0.242811 5.02 0.0795887 4.028 0.853989 4.028H3.62279C3.79163 4.02805 3.95615 3.97467 4.09281 3.87552C4.22947 3.77637 4.33125 3.63652 4.38359 3.476L5.23959 0.842402L5.23879 0.841602Z" fill="#DF475C"/>
</svg>
