<svg width="83" height="83" viewBox="0 0 83 83" fill="none" xmlns="http://www.w3.org/2000/svg">
<path fill-rule="evenodd" clip-rule="evenodd" d="M45.8743 0.503321C44.3264 0.326709 42.7524 0.235962 41.1573 0.235962C38.8938 0.235962 36.673 0.418684 34.5088 0.770184L81.7804 48.0418C82.1319 45.8776 82.3146 43.6568 82.3146 41.3933C82.3146 39.7981 82.2239 38.2242 82.0472 36.6763L45.8743 0.503321ZM81.524 33.3246L49.2259 1.02655C65.484 4.25816 78.2924 17.0665 81.524 33.3246ZM81.3232 50.413L32.1375 1.22738C28.0153 2.14905 24.1265 3.68909 20.5735 5.74505L76.8055 61.9771C78.8615 58.4241 80.4015 54.5353 81.3232 50.413ZM75.7311 63.7311L18.8195 6.81944C16.0514 8.61153 13.5123 10.727 11.2554 13.1124L69.4382 71.2951C71.8236 69.0383 73.939 66.4991 75.7311 63.7311ZM67.9506 72.6359L9.91463 14.6C7.74784 17.1243 5.8817 19.9141 4.37173 22.9141L59.6365 78.1788C62.6364 76.6689 65.4263 74.8027 67.9506 72.6359ZM57.714 79.0848L3.46578 24.8365C1.84877 28.5124 0.753715 32.4696 0.274453 36.6145L45.936 82.2761C50.0809 81.7969 54.0382 80.7018 57.714 79.0848ZM43.3259 82.4944L0.0561525 39.2247C0.0188718 39.9428 0 40.6658 0 41.3933C0 48.331 1.71656 54.8677 4.74813 60.602L21.9485 77.8024C27.6828 80.834 34.2196 82.5506 41.1573 82.5506C41.8847 82.5506 42.6078 82.5317 43.3259 82.4944Z" fill="#E9FAF8"/>
</svg>
