<svg width="12" height="12" viewBox="0 0 12 12" fill="none" xmlns="http://www.w3.org/2000/svg">
<path d="M10.6667 0.166992C10.8214 0.166992 10.9697 0.22845 11.0791 0.337847C11.1885 0.447243 11.25 0.595616 11.25 0.750326V11.2503C11.25 11.405 11.1885 11.5534 11.0791 11.6628C10.9697 11.7722 10.8214 11.8337 10.6667 11.8337H7.45833C7.45833 11.4469 7.30469 11.076 7.0312 10.8025C6.75771 10.529 6.38677 10.3753 6 10.3753C5.61323 10.3753 5.24229 10.529 4.9688 10.8025C4.69531 11.076 4.54167 11.4469 4.54167 11.8337H1.33333C1.17862 11.8337 1.03025 11.7722 0.920855 11.6628C0.811458 11.5534 0.75 11.405 0.75 11.2503V0.750326C0.75 0.595616 0.811458 0.447243 0.920855 0.337847C1.03025 0.22845 1.17862 0.166992 1.33333 0.166992L10.6667 0.166992ZM1.91667 3.71658C2.08758 3.7767 2.23562 3.8884 2.34034 4.03625C2.44506 4.1841 2.5013 4.36081 2.5013 4.54199C2.5013 4.72317 2.44506 4.89989 2.34034 5.04774C2.23562 5.19559 2.08758 5.30728 1.91667 5.36741V10.667H3.648C3.86517 10.2288 4.20045 9.85997 4.61602 9.60211C5.03159 9.34426 5.51093 9.20763 6 9.20763C6.48907 9.20763 6.96841 9.34426 7.38398 9.60211C7.79955 9.85997 8.13483 10.2288 8.352 10.667H10.0833V5.36741C9.91242 5.30728 9.76438 5.19559 9.65966 5.04774C9.55494 4.89989 9.4987 4.72317 9.4987 4.54199C9.4987 4.36081 9.55494 4.1841 9.65966 4.03625C9.76438 3.8884 9.91242 3.7767 10.0833 3.71658V1.33366L1.91667 1.33366V3.71658ZM6.58333 4.54199C6.58333 4.30993 6.67552 4.08737 6.83961 3.92327C7.00371 3.75918 7.22627 3.66699 7.45833 3.66699C7.6904 3.66699 7.91296 3.75918 8.07705 3.92327C8.24115 4.08737 8.33333 4.30993 8.33333 4.54199C8.33333 4.77406 8.24115 4.99662 8.07705 5.16071C7.91296 5.3248 7.6904 5.41699 7.45833 5.41699C7.22627 5.41699 7.00371 5.3248 6.83961 5.16071C6.67552 4.99662 6.58333 4.77406 6.58333 4.54199ZM3.66667 4.54199C3.66667 4.30993 3.75885 4.08737 3.92295 3.92327C4.08704 3.75918 4.3096 3.66699 4.54167 3.66699C4.77373 3.66699 4.99629 3.75918 5.16039 3.92327C5.32448 4.08737 5.41667 4.30993 5.41667 4.54199C5.41667 4.77406 5.32448 4.99662 5.16039 5.16071C4.99629 5.3248 4.77373 5.41699 4.54167 5.41699C4.3096 5.41699 4.08704 5.3248 3.92295 5.16071C3.75885 4.99662 3.66667 4.77406 3.66667 4.54199Z" fill="#DF475C"/>
</svg>
