<svg width="14" height="14" viewBox="0 0 14 14" fill="none" xmlns="http://www.w3.org/2000/svg">
<path fill-rule="evenodd" clip-rule="evenodd" d="M4 0C1.79086 0 0 1.79086 0 4V10C0 12.2091 1.79086 14 4 14H10C12.2091 14 14 12.2091 14 10V4C14 1.79086 12.2091 0 10 0H4ZM9.05778 3C9.05765 3.46108 9.22508 3.9065 9.52889 4.25333C10.1333 4.95111 10.9689 4.91111 10.9689 4.91111V6.28444C10.2833 6.28562 9.61467 6.07104 9.05778 5.67111V8.46667C9.05778 9.86667 7.92444 11 6.52889 11C5.22667 11 4 9.94667 4 8.46667C4 6.94667 5.34222 5.75556 6.87556 5.96V7.36444C6.11556 7.12889 5.37778 7.70222 5.37778 8.46667C5.37778 9.10667 5.90222 9.62222 6.53333 9.62222C6.83175 9.62218 7.11852 9.50634 7.33323 9.29908C7.54794 9.09183 7.67385 8.80934 7.68444 8.51111V3H9.05778Z" fill="#DF475C"/>
</svg>
