<svg width="21" height="17" viewBox="0 0 21 17" fill="none" xmlns="http://www.w3.org/2000/svg">
<path d="M20.494 2.58998C19.7668 2.90898 18.9919 3.12043 18.184 3.2231C19.0151 2.72687 19.6495 1.9471 19.9477 1.00721C19.1728 1.46921 18.3173 1.79554 17.4055 1.97765C16.6697 1.19421 15.621 0.708984 14.477 0.708984C12.2575 0.708984 10.4706 2.51054 10.4706 4.7191C10.4706 5.03687 10.4975 5.34243 10.5635 5.63332C7.23048 5.47076 4.28125 3.87332 2.30003 1.43987C1.95414 2.03998 1.75125 2.72687 1.75125 3.46632C1.75125 4.85476 2.46625 6.08554 3.53203 6.7981C2.88792 6.78587 2.25603 6.59887 1.7207 6.30432C1.7207 6.31654 1.7207 6.33243 1.7207 6.34832C1.7207 8.29654 3.11037 9.91476 4.9327 10.2875C4.60637 10.3768 4.2507 10.4195 3.88159 10.4195C3.62492 10.4195 3.36581 10.4049 3.12259 10.3511C3.64203 11.9388 5.11603 13.106 6.8687 13.1439C5.5047 14.2109 3.77281 14.8538 1.89792 14.8538C1.56914 14.8538 1.25381 14.8391 0.938477 14.7988C2.71437 15.944 4.81903 16.5979 7.0887 16.5979C14.466 16.5979 18.4994 10.4868 18.4994 5.18965C18.4994 5.01243 18.4933 4.84132 18.4847 4.67143C19.2804 4.10676 19.9489 3.40154 20.494 2.58998Z" fill="#1E2833"/>
</svg>
