<svg width="14" height="14" viewBox="0 0 14 14" fill="none" xmlns="http://www.w3.org/2000/svg">
<path fill-rule="evenodd" clip-rule="evenodd" d="M4 0C1.79086 0 0 1.79086 0 4V10C0 12.2091 1.79086 14 4 14H10C12.2091 14 14 12.2091 14 10V4C14 1.79086 12.2091 0 10 0H4ZM10.0574 5.02791C10.3827 4.98939 10.7005 4.90233 11 4.76963C10.7797 5.09935 10.5023 5.38705 10.1808 5.61916C10.1839 5.6897 10.1856 5.76066 10.1856 5.83172C10.1856 8.00036 8.53475 10.5012 5.51585 10.5012C4.62385 10.502 3.75045 10.2461 3 9.76393C3.12851 9.7792 3.25911 9.78689 3.39157 9.78689C4.13061 9.78799 4.84854 9.54052 5.42993 9.08427C4.71173 9.07097 4.10562 8.59629 3.8968 7.94437C4.14278 7.99135 4.39623 7.98176 4.63796 7.91632C3.88724 7.76536 3.32155 7.10201 3.32155 6.30703C3.32155 6.29996 3.32155 6.29321 3.32175 6.28635C3.54966 6.41298 3.80451 6.48337 4.0651 6.49164C3.8403 6.34169 3.65603 6.13852 3.52865 5.9002C3.40127 5.66189 3.33473 5.39579 3.33495 5.12557C3.33451 4.83565 3.41121 4.55084 3.55717 4.30035C4.3667 5.29346 5.576 5.94694 6.94011 6.0154C6.91206 5.8952 6.89751 5.7698 6.89751 5.64129C6.89751 4.73473 7.63244 4 8.5388 4C8.76332 3.99976 8.9855 4.04563 9.19157 4.13477C9.39764 4.22391 9.58321 4.35442 9.73678 4.51821C10.1043 4.44597 10.4568 4.31132 10.7789 4.1201C10.6565 4.50022 10.4001 4.82287 10.0574 5.02791Z" fill="#DF475C"/>
</svg>
