<svg width="17" height="15" viewBox="0 0 17 15" fill="none" xmlns="http://www.w3.org/2000/svg">
<path fill-rule="evenodd" clip-rule="evenodd" d="M4.66647 0.983341C4.66647 0.559927 4.32322 0.216675 3.8998 0.216675C3.47639 0.216675 3.13314 0.559927 3.13314 0.983341V6.88672H0.83306C0.494316 6.88672 0.219727 7.16133 0.219727 7.50005C0.219727 7.83878 0.494316 8.11339 0.83306 8.11339H3.13314V9.11001C3.13314 12.0739 5.53587 14.4767 8.4998 14.4767C11.4637 14.4767 13.8664 12.0739 13.8664 9.11001V8.11339H16.1664C16.5051 8.11339 16.7798 7.83878 16.7798 7.50005C16.7798 7.16133 16.5051 6.88672 16.1664 6.88672H13.8664V0.983341C13.8664 0.559927 13.5233 0.216675 13.0998 0.216675C12.6764 0.216675 12.3331 0.559927 12.3331 0.983341V6.88672H4.66647V0.983341ZM4.66647 8.11339V9.11001C4.66647 11.2271 6.38272 12.9433 8.4998 12.9433C10.6169 12.9433 12.3331 11.2271 12.3331 9.11001V8.11339H4.66647Z" fill="#949494"/>
</svg>
