<svg width="21" height="21" viewBox="0 0 21 21" fill="none" xmlns="http://www.w3.org/2000/svg">
<path d="M10.5 21C4.70085 21 0 16.2991 0 10.5C0 4.70085 4.70085 0 10.5 0C16.2991 0 21 4.70085 21 10.5C21 16.2991 16.2991 21 10.5 21ZM5.26365 17.0688C6.74998 18.2571 8.59706 18.903 10.5 18.9C12.5685 18.9 14.4616 18.1524 15.9253 16.9134C15.2415 16.2117 14.4239 15.6543 13.5209 15.2741C12.6179 14.894 11.6478 14.6987 10.668 14.7C9.65222 14.6988 8.64728 14.9088 7.71694 15.3166C6.7866 15.7244 5.95117 16.321 5.26365 17.0688ZM3.7968 15.561C4.67928 14.6245 5.7442 13.8786 6.92595 13.3694C8.10769 12.8601 9.3812 12.5983 10.668 12.6C11.9087 12.5984 13.1376 12.8419 14.2839 13.3165C15.4303 13.7911 16.4716 14.4875 17.3481 15.3657C18.247 14.1006 18.7778 12.6112 18.8817 11.0627C18.9856 9.51425 18.6585 7.96728 17.9366 6.59343C17.2148 5.21958 16.1264 4.07255 14.7924 3.27962C13.4583 2.48668 11.9306 2.07883 10.3788 2.10131C8.82706 2.1238 7.31184 2.57574 6.0013 3.40699C4.69075 4.23825 3.63611 5.41632 2.95438 6.81051C2.27265 8.2047 1.99048 9.7605 2.13918 11.3053C2.28788 12.8501 2.86164 14.3235 3.7968 15.562V15.561ZM10.5 11.55C9.38609 11.55 8.3178 11.1075 7.53015 10.3198C6.7425 9.5322 6.3 8.46391 6.3 7.35C6.3 6.23609 6.7425 5.1678 7.53015 4.38015C8.3178 3.5925 9.38609 3.15 10.5 3.15C11.6139 3.15 12.6822 3.5925 13.4698 4.38015C14.2575 5.1678 14.7 6.23609 14.7 7.35C14.7 8.46391 14.2575 9.5322 13.4698 10.3198C12.6822 11.1075 11.6139 11.55 10.5 11.55ZM10.5 9.45C11.057 9.45 11.5911 9.22875 11.9849 8.83492C12.3787 8.4411 12.6 7.90695 12.6 7.35C12.6 6.79305 12.3787 6.2589 11.9849 5.86508C11.5911 5.47125 11.057 5.25 10.5 5.25C9.94304 5.25 9.4089 5.47125 9.01508 5.86508C8.62125 6.2589 8.4 6.79305 8.4 7.35C8.4 7.90695 8.62125 8.4411 9.01508 8.83492C9.4089 9.22875 9.94304 9.45 10.5 9.45Z" fill="black"/>
</svg>
