<svg width="22" height="19" viewBox="0 0 22 19" fill="none" xmlns="http://www.w3.org/2000/svg">
<path d="M14.6368 17.909V16.0908C14.6368 15.1264 14.2537 14.2015 13.5717 13.5195C12.8898 12.8376 11.9648 12.4545 11.0004 12.4545H4.63683C3.67241 12.4545 2.74749 12.8376 2.06555 13.5195C1.3836 14.2015 1.00049 15.1264 1.00049 16.0908V17.909" stroke="black" stroke-width="1.5" stroke-linecap="round" stroke-linejoin="round"/>
<path d="M7.81847 8.81822C9.82677 8.81822 11.4548 7.19017 11.4548 5.18187C11.4548 3.17358 9.82677 1.54553 7.81847 1.54553C5.81017 1.54553 4.18213 3.17358 4.18213 5.18187C4.18213 7.19017 5.81017 8.81822 7.81847 8.81822Z" stroke="black" stroke-width="1.5" stroke-linecap="round" stroke-linejoin="round"/>
<path d="M15.5459 8.81823L17.3641 10.6364L21.0004 7.00006" stroke="black" stroke-width="1.5" stroke-linecap="round" stroke-linejoin="round"/>
</svg>
