<svg width="22" height="20" viewBox="0 0 22 20" fill="none" xmlns="http://www.w3.org/2000/svg">
<path d="M20.8528 8.58199V7.73231C20.8528 6.17856 19.7866 4.87246 18.3484 4.49822L18.3458 3.09728C18.3458 1.73006 17.2332 0.617432 15.8654 0.617432H15.7342L4.12586 4.21855C3.86148 4.23383 3.61064 4.29496 3.37508 4.38693H3.3448C1.50071 4.38693 0 5.88764 0 7.73231V16.0371C0 17.8815 1.50042 19.3825 3.3448 19.3825H17.508C19.3521 19.3825 20.8528 17.8818 20.8528 16.0371V14.9325C21.5225 14.6733 22 14.024 22 13.2635V10.2505C21.9997 9.49049 21.5225 8.84119 20.8528 8.58199ZM20.2698 13.2632C20.2698 13.2972 20.243 13.324 20.209 13.324H15.5263C15.4923 13.324 15.4658 13.2972 15.4658 13.2632V10.2505C15.4658 10.2173 15.4929 10.1902 15.5263 10.1902H20.209C20.2424 10.1902 20.2698 10.2173 20.2698 10.2505V13.2632ZM15.9724 2.35514C16.3359 2.40704 16.6159 2.72015 16.6159 3.09872L16.6182 4.38722H9.42202L15.9724 2.35514ZM17.508 17.6523H3.34509C2.45332 17.6523 1.73021 16.9289 1.73021 16.0368V7.73231C1.73021 6.83996 2.45332 6.11685 3.34509 6.11685H17.508C18.4 6.11685 19.1228 6.83996 19.1228 7.73231V8.46032H15.5263C14.5391 8.46032 13.7359 9.2633 13.7359 10.2505V13.2632C13.7359 14.2507 14.5391 15.0539 15.5263 15.0539H19.1228V16.0371C19.1228 16.9289 18.4 17.6523 17.508 17.6523Z" fill="black"/>
</svg>
