<svg width="402" height="402" viewBox="0 0 402 402" fill="none" xmlns="http://www.w3.org/2000/svg">
<path d="M402 307.45H0V307.651H402V307.45Z" fill="#EBEBEB"/>
<path d="M361.72 320.386H335.091V320.587H361.72V320.386Z" fill="#EBEBEB"/>
<path d="M266.301 322.573H259.314V322.774H266.301V322.573Z" fill="#EBEBEB"/>
<path d="M334.287 312.925H318.858V313.126H334.287V312.925Z" fill="#EBEBEB"/>
<path d="M76.9025 314.276H42.1777V314.477H76.9025V314.276Z" fill="#EBEBEB"/>
<path d="M89.1557 314.276H84.0664V314.477H89.1557V314.276Z" fill="#EBEBEB"/>
<path d="M181.02 317.668H105.702V317.869H181.02V317.668Z" fill="#EBEBEB"/>
<path d="M190.548 271.591H35.3035C34.0873 271.589 32.9217 271.104 32.0625 270.244C31.2033 269.383 30.7207 268.216 30.7207 267V48.7706C30.7313 47.5614 31.2185 46.4052 32.0766 45.5532C32.9347 44.7011 34.0943 44.222 35.3035 44.22H190.548C191.765 44.22 192.933 44.7036 193.794 45.5646C194.655 46.4255 195.139 47.5932 195.139 48.8108V267C195.139 268.218 194.655 269.386 193.794 270.247C192.933 271.107 191.765 271.591 190.548 271.591ZM35.3035 44.3808C34.1406 44.3829 33.0261 44.8463 32.2046 45.6694C31.3831 46.4924 30.9217 47.6077 30.9217 48.7706V267C30.9217 268.163 31.3831 269.279 32.2046 270.102C33.0261 270.925 34.1406 271.388 35.3035 271.39H190.548C191.711 271.388 192.827 270.925 193.65 270.102C194.472 269.279 194.936 268.164 194.938 267V48.7706C194.936 47.607 194.472 46.4917 193.65 45.6689C192.827 44.8461 191.711 44.3829 190.548 44.3808H35.3035Z" fill="#EBEBEB"/>
<path d="M364.461 271.591H209.209C207.992 271.589 206.826 271.105 205.965 270.244C205.105 269.384 204.62 268.217 204.618 267V48.7706C204.631 47.5607 205.12 46.4045 205.979 45.5527C206.839 44.7009 207.999 44.222 209.209 44.22H364.461C365.669 44.2242 366.827 44.7042 367.683 45.556C368.539 46.4078 369.026 47.5628 369.036 48.7706V267C369.036 268.215 368.555 269.38 367.697 270.241C366.84 271.101 365.676 271.587 364.461 271.591ZM209.209 44.3808C208.045 44.3829 206.93 44.8461 206.107 45.6689C205.284 46.4917 204.821 47.607 204.819 48.7706V267C204.821 268.164 205.284 269.279 206.107 270.102C206.93 270.925 208.045 271.388 209.209 271.39H364.461C365.625 271.388 366.74 270.925 367.563 270.102C368.386 269.279 368.849 268.164 368.851 267V48.7706C368.849 47.607 368.386 46.4917 367.563 45.6689C366.74 44.8461 365.625 44.3829 364.461 44.3808H209.209Z" fill="#EBEBEB"/>
<path d="M50.9733 220.593L351.034 220.593V59.7452L50.9733 59.7452V220.593Z" fill="#FAFAFA"/>
<path d="M263.655 108.323C266.301 103.941 273.199 100.395 279.124 100.395C280.379 100.375 281.627 100.571 282.815 100.974C287.074 97.6171 292.3 95.7174 297.721 95.5554C303.944 95.5554 307.224 98.7714 305.962 103.113C311.638 103.394 314.139 107.004 311.526 111.41C308.808 116.009 301.588 119.732 295.397 119.732H259.74C255.358 119.732 253.356 117.095 255.286 113.838C256.773 111.322 260.166 109.175 263.655 108.323Z" fill="white"/>
<path d="M191.722 87.5154C193.33 84.8381 197.551 82.6914 201.161 82.6914C201.926 82.6756 202.688 82.7953 203.412 83.0451C206.014 80.9921 209.208 79.8307 212.521 79.7327C216.316 79.7327 218.318 81.7105 217.546 84.3476C221.012 84.5165 222.539 86.7596 220.947 89.4128C219.355 92.066 214.877 94.4941 211.098 94.4941H189.334C186.657 94.4941 185.435 92.8861 186.608 90.8922C187.83 89.1664 189.655 87.9615 191.722 87.5154Z" fill="white"/>
<path d="M87.2097 103.346C88.8177 100.669 93.0387 98.5221 96.6487 98.5221C97.4123 98.5126 98.1717 98.6378 98.8919 98.892C101.491 96.838 104.682 95.6764 107.993 95.5795C111.788 95.5795 113.79 97.5493 113.018 100.194C116.483 100.363 118.011 102.606 116.419 105.26C114.827 107.913 110.349 110.333 106.57 110.333H84.8219C82.1445 110.333 80.9225 108.725 82.1043 106.739C83.3231 105.011 85.1442 103.8 87.2097 103.346Z" fill="white"/>
<path d="M131.824 91.5032H107.012V205.856H131.824V91.5032Z" fill="#E6E6E6"/>
<path d="M151.425 205.864H129.042V114.457L151.425 136.752V205.864Z" fill="#E6E6E6"/>
<path d="M99.3583 129.275H74.5469V205.856H99.3583V129.275Z" fill="#E6E6E6"/>
<path d="M171.22 119.732H158.573V205.864H171.22V119.732Z" fill="#E6E6E6"/>
<path d="M189.246 141.729H176.599V205.856H189.246V141.729Z" fill="#E6E6E6"/>
<path d="M198.813 162.794H186.166V205.856H198.813V162.794Z" fill="#E6E6E6"/>
<path d="M251.298 162.794H238.651V205.856H251.298V162.794Z" fill="#E6E6E6"/>
<path d="M239.198 176.39H226.551V205.864H239.198V176.39Z" fill="#E6E6E6"/>
<path d="M71.0737 162.794H58.4268V205.856H71.0737V162.794Z" fill="#E6E6E6"/>
<path d="M180.177 155.638H65.687V205.864H180.177V155.638Z" fill="#E6E6E6"/>
<path d="M251.298 185.732H136.809V205.864H251.298V185.732Z" fill="#E6E6E6"/>
<path d="M236.062 220.593H274.494V106.241H236.062V220.593Z" fill="#F0F0F0"/>
<path d="M205.688 220.593H240.372V129.195L205.688 151.482V220.593Z" fill="#F0F0F0"/>
<path d="M286.361 220.593H324.792V144.012H286.361V220.593Z" fill="#F0F0F0"/>
<path d="M175.031 220.593H194.625V134.461H175.031V220.593Z" fill="#F0F0F0"/>
<path d="M147.092 220.593H166.685V163.124H147.092V220.593Z" fill="#F0F0F0"/>
<path d="M132.29 220.593H151.884V177.531H132.29V220.593Z" fill="#F0F0F0"/>
<path d="M50.9734 220.593H70.5669V177.531H50.9734V220.593Z" fill="#F0F0F0"/>
<path d="M69.7146 220.593H89.3081V191.119H69.7146V220.593Z" fill="#F0F0F0"/>
<path d="M330.178 220.593H349.772V177.531H330.178V220.593Z" fill="#F0F0F0"/>
<path d="M161.154 220.602L338.516 220.602V170.376L161.154 170.376V220.602Z" fill="#F0F0F0"/>
<path d="M50.9735 220.602L228.336 220.602V200.469L50.9735 200.469V220.602Z" fill="#F0F0F0"/>
<path d="M349.772 220.593H351.034V59.7452H349.772V220.593Z" fill="#EBEBEB"/>
<path d="M73.2845 286.473C72.8674 286.47 72.4631 286.328 72.1348 286.071C71.7506 285.765 71.5036 285.318 71.4479 284.83C71.3921 284.342 71.5321 283.851 71.8373 283.466C72.8905 282.14 70.3338 279.068 67.6324 275.812C61.8677 268.89 53.1604 258.414 65.0515 246.41C72.5528 238.828 72.392 235.693 71.974 234.696C71.2343 232.943 67.8092 232.557 66.6113 232.557C66.1187 232.557 65.6463 232.361 65.298 232.013C64.9497 231.665 64.754 231.192 64.754 230.7C64.754 230.207 64.9497 229.735 65.298 229.386C65.6463 229.038 66.1187 228.842 66.6113 228.842C67.3027 228.842 73.6061 228.899 75.4553 233.248C77.0633 237.019 74.5387 242.173 67.761 249.023C58.2416 258.631 64.7862 266.502 70.5589 273.44C74.2493 277.887 77.7386 282.083 74.8121 285.766C74.6321 285.997 74.3995 286.181 74.1339 286.304C73.8682 286.427 73.577 286.485 73.2845 286.473Z" fill="#E0E0E0"/>
<path d="M46.4473 269.758H86.0201L77.2565 307.45H55.2109L46.4473 269.758Z" fill="#F5F5F5"/>
<path d="M46.037 271.438H86.43C86.8764 271.438 87.3046 271.262 87.621 270.947C87.9374 270.632 88.1163 270.204 88.1184 269.758C88.1163 269.311 87.9377 268.883 87.6215 268.566C87.3054 268.25 86.8771 268.072 86.43 268.07H46.037C45.5899 268.072 45.1617 268.25 44.8455 268.566C44.5293 268.883 44.3507 269.311 44.3486 269.758C44.3508 270.204 44.5296 270.632 44.846 270.947C45.1624 271.262 45.5906 271.438 46.037 271.438Z" fill="#EBEBEB"/>
<path d="M80.1426 230.057L42.7486 242.406C42.7486 242.406 29.2012 233.256 39.0422 229.14C34.3629 221.156 33.7679 205.591 48.8268 201.072C63.8858 196.554 62.8325 218.559 62.8325 218.559C62.8325 218.559 81.3969 198.918 80.5205 222.25C84.0662 221.277 99.0929 224.831 80.1426 230.057Z" fill="#E0E0E0"/>
<path d="M48.9313 246.965H94.2769C94.2769 246.965 106.24 238.523 93.7141 238.925C96.1984 228.159 89.1875 216.364 73.3648 215.914C57.5421 215.464 63.1058 233.015 63.1058 233.015C63.1058 233.015 36.5255 226.68 44.6138 239.769C31.396 240.396 38.2139 243.797 48.9313 246.965Z" fill="#E6E6E6"/>
<path d="M85.1354 249.401L49.5182 250.687C48.5878 250.698 47.6697 250.474 46.8499 250.033C46.0302 249.593 45.3354 248.952 44.8308 248.171C43.4801 246.257 43.1344 243.885 48.8508 243.186C47.0258 237.558 51.0538 227.741 65.7831 226.985C80.5124 226.229 73.1236 239.849 73.1236 239.849C73.1236 239.849 95.4024 230.121 87.7966 244.585C91.2056 244.456 103.531 248.741 85.1354 249.401Z" fill="#E0E0E0"/>
<path d="M314.878 238.828H128.029V242.406H314.878V238.828Z" fill="#F0F0F0"/>
<path d="M314.879 242.406H335.091V238.828H314.879V242.406Z" fill="#E6E6E6"/>
<path d="M130.843 244.199L331.972 244.199V242.406L130.843 242.406V244.199Z" fill="#E0E0E0"/>
<path d="M130.835 243.306V307.45H132.813V243.306H130.835Z" fill="#E0E0E0"/>
<path d="M312.893 243.298V307.442H314.87V243.298H312.893Z" fill="#E0E0E0"/>
<path d="M329.986 243.306V307.45H331.964V243.306H329.986Z" fill="#E0E0E0"/>
<path d="M147.92 243.306V307.45H149.898V243.306H147.92Z" fill="#E0E0E0"/>
<path d="M201 343.758C287.094 343.758 356.887 339.683 356.887 334.657C356.887 329.63 287.094 325.556 201 325.556C114.906 325.556 45.1123 329.63 45.1123 334.657C45.1123 339.683 114.906 343.758 201 343.758Z" fill="#F5F5F5"/>
<path d="M317.267 204.682H195.629V208.123H317.267V204.682Z" fill="#12544D"/>
<path opacity="0.2" d="M317.267 204.682H289.038V208.123H317.267V204.682Z" fill="black"/>
<path d="M292.527 336.667L286.176 208.115H287.768L294.119 336.667H292.527Z" fill="#12544D"/>
<path opacity="0.7" d="M292.527 336.667L286.176 208.115H287.768L294.119 336.667H292.527Z" fill="white"/>
<path d="M320.756 336.667L314.396 208.115H315.996L322.348 336.667H320.756Z" fill="#12544D"/>
<path d="M320.756 336.667L314.396 208.115H315.996L322.348 336.667H320.756Z" fill="#12544D"/>
<path opacity="0.7" d="M320.756 336.667L314.396 208.115H315.996L322.348 336.667H320.756Z" fill="white"/>
<path d="M220.36 336.667L226.72 208.115H225.12L218.769 336.667H220.36Z" fill="#12544D"/>
<path opacity="0.7" d="M220.36 336.667L226.72 208.115H225.12L218.769 336.667H220.36Z" fill="white"/>
<path d="M192.14 336.667L198.492 208.115H196.9L190.54 336.667H192.14Z" fill="#12544D"/>
<path opacity="0.7" d="M192.14 336.667L198.492 208.115H196.9L190.54 336.667H192.14Z" fill="white"/>
<path d="M267.25 178.488H306.324C306.613 178.48 306.9 178.538 307.164 178.656C307.428 178.774 307.662 178.95 307.849 179.17C308.036 179.391 308.171 179.651 308.244 179.931C308.316 180.211 308.325 180.504 308.27 180.787L304.981 202.415C304.871 203.044 304.548 203.615 304.066 204.034C303.585 204.452 302.974 204.693 302.336 204.714H263.262C262.973 204.722 262.685 204.665 262.421 204.547C262.157 204.428 261.922 204.253 261.735 204.032C261.548 203.812 261.412 203.552 261.338 203.272C261.264 202.992 261.254 202.699 261.308 202.415L264.596 180.787C264.71 180.159 265.035 179.588 265.518 179.17C266 178.751 266.611 178.511 267.25 178.488Z" fill="#12544D"/>
<path d="M266.647 178.488H305.753C306.042 178.48 306.329 178.538 306.593 178.656C306.857 178.774 307.091 178.95 307.278 179.17C307.465 179.391 307.6 179.651 307.673 179.931C307.745 180.211 307.754 180.504 307.699 180.787L304.411 202.415C304.3 203.044 303.977 203.615 303.496 204.034C303.014 204.452 302.403 204.693 301.765 204.714H262.659C262.37 204.722 262.082 204.665 261.818 204.547C261.554 204.428 261.319 204.253 261.132 204.032C260.945 203.812 260.809 203.552 260.735 203.272C260.661 202.992 260.651 202.699 260.705 202.415L263.993 180.787C264.105 180.158 264.43 179.587 264.913 179.168C265.396 178.749 266.008 178.509 266.647 178.488Z" fill="#12544D"/>
<path opacity="0.2" d="M266.647 178.488H305.753C306.042 178.48 306.329 178.538 306.593 178.656C306.857 178.774 307.091 178.95 307.278 179.17C307.465 179.391 307.6 179.651 307.673 179.931C307.745 180.211 307.754 180.504 307.699 180.787L304.411 202.415C304.3 203.044 303.977 203.615 303.496 204.034C303.014 204.452 302.403 204.693 301.765 204.714H262.659C262.37 204.722 262.082 204.665 261.818 204.547C261.554 204.428 261.319 204.253 261.132 204.032C260.945 203.812 260.809 203.552 260.735 203.272C260.661 202.992 260.651 202.699 260.705 202.415L263.993 180.787C264.105 180.158 264.43 179.587 264.913 179.168C265.396 178.749 266.008 178.509 266.647 178.488Z" fill="white"/>
<path opacity="0.8" d="M262.659 203.991C262.473 203.996 262.288 203.961 262.117 203.887C261.947 203.813 261.794 203.703 261.67 203.565C261.547 203.417 261.459 203.243 261.41 203.057C261.361 202.871 261.354 202.677 261.389 202.487L264.677 180.9C264.765 180.435 265.007 180.013 265.365 179.702C265.722 179.391 266.174 179.21 266.647 179.187H305.753C305.939 179.182 306.124 179.218 306.295 179.291C306.466 179.365 306.618 179.475 306.742 179.614C306.863 179.762 306.951 179.936 306.998 180.122C307.045 180.308 307.051 180.502 307.016 180.691L303.735 202.319C303.647 202.784 303.405 203.206 303.048 203.517C302.69 203.827 302.239 204.009 301.765 204.031L262.659 203.991Z" fill="white"/>
<path d="M251.242 203.822H303.108C303.216 203.819 303.324 203.84 303.423 203.884C303.522 203.928 303.61 203.994 303.68 204.077C303.751 204.159 303.801 204.256 303.829 204.361C303.857 204.466 303.86 204.576 303.84 204.682H250.245C250.287 204.446 250.41 204.232 250.591 204.075C250.773 203.919 251.002 203.829 251.242 203.822Z" fill="#12544D"/>
<path d="M208.445 326.247L203.323 329.133L196.988 316.864L202.109 313.978L208.445 326.247Z" fill="#FFB573"/>
<path d="M202.704 328.12L208.67 325.186C208.718 325.159 208.772 325.142 208.827 325.136C208.882 325.13 208.937 325.135 208.99 325.151C209.044 325.167 209.093 325.193 209.136 325.228C209.179 325.263 209.214 325.306 209.241 325.355L211.846 329.929C211.969 330.177 211.991 330.464 211.905 330.727C211.819 330.99 211.633 331.209 211.387 331.336C209.289 332.317 208.236 332.687 205.615 333.974C204.007 334.778 200.155 336.747 197.928 337.849C195.701 338.95 194.712 336.707 195.516 336.04C199.311 333.065 201.016 330.814 201.948 328.892C202.104 328.556 202.371 328.283 202.704 328.12Z" fill="#263238"/>
<path opacity="0.2" d="M202.109 313.978L196.988 316.864L200.252 323.192L205.534 320.603L202.109 313.978Z" fill="black"/>
<path d="M197.936 193.708C197.936 193.708 181.398 226.953 176.438 243.186C171.011 260.962 196.795 321.126 196.795 321.126L206.21 317.001C206.21 317.001 189.326 257.417 192.26 250.808C200.3 232.557 219.082 194.094 219.082 194.094L197.936 193.708Z" fill="#263238"/>
<path opacity="0.3" d="M204.16 213.639C199.649 221.205 197.728 234.84 197.446 243.708C199.995 238.225 202.729 232.517 205.285 227.21C207.006 222.153 208.678 217.281 210.238 213.108C209.892 210.222 207.577 207.89 204.16 213.639Z" fill="black"/>
<path d="M207.424 317.701L197.141 323.087L194.19 319.606L206.363 313.126L207.424 317.701Z" fill="#12544D"/>
<path d="M201.273 329.97C201.743 329.722 202.185 329.426 202.592 329.085C202.614 329.069 202.631 329.047 202.64 329.021C202.648 328.995 202.648 328.967 202.64 328.941C202.633 328.915 202.619 328.892 202.599 328.874C202.579 328.857 202.554 328.847 202.527 328.844C202.302 328.804 200.292 328.514 199.77 329.093C199.71 329.159 199.668 329.238 199.647 329.323C199.626 329.409 199.627 329.498 199.649 329.584C199.674 329.716 199.733 329.84 199.818 329.944C199.904 330.048 200.014 330.129 200.139 330.179C200.53 330.252 200.934 330.177 201.273 329.97ZM202.165 329.069C201.305 329.728 200.598 330.042 200.228 329.921C200.146 329.888 200.074 329.833 200.02 329.762C199.967 329.691 199.933 329.608 199.922 329.519C199.909 329.478 199.906 329.435 199.915 329.392C199.923 329.35 199.942 329.311 199.971 329.278C200.252 328.973 201.353 328.981 202.165 329.069Z" fill="#12544D"/>
<path d="M202.608 329.101C202.627 329.092 202.644 329.079 202.656 329.061C202.67 329.041 202.677 329.017 202.677 328.993C202.677 328.968 202.67 328.945 202.656 328.924C202.656 328.86 202.005 327.276 201.209 327.019C201.108 326.985 201.001 326.976 200.897 326.991C200.792 327.007 200.692 327.046 200.606 327.107C200.5 327.161 200.415 327.249 200.367 327.358C200.319 327.466 200.309 327.588 200.34 327.702C200.501 328.338 201.836 329.061 202.519 329.117L202.608 329.101ZM200.823 327.308C200.873 327.285 200.928 327.273 200.984 327.273C201.039 327.273 201.094 327.285 201.144 327.308C201.619 327.461 202.085 328.313 202.318 328.82C201.667 328.659 200.71 328.08 200.622 327.654C200.622 327.574 200.622 327.469 200.766 327.365L200.823 327.308Z" fill="#12544D"/>
<path d="M209.12 149.134C208.091 151.216 207.054 153.049 205.904 154.931C204.754 156.812 203.589 158.621 202.302 160.406C201.675 161.307 201.008 162.183 200.356 163.067C199.705 163.952 198.99 164.812 198.25 165.656C196.8 167.397 195.245 169.048 193.595 170.601C193.193 171.003 192.718 171.405 192.284 171.767C191.848 172.168 191.392 172.546 190.918 172.9L189.462 173.978C189.301 174.082 189.342 174.074 188.851 174.396C188.466 174.637 188.057 174.837 187.629 174.991C186.768 175.297 185.85 175.406 184.941 175.31C184.032 175.214 183.157 174.916 182.379 174.436C181.984 174.188 181.617 173.896 181.286 173.568C181.122 173.4 180.969 173.223 180.827 173.037C180.709 172.895 180.602 172.744 180.506 172.587C180.137 171.96 179.815 171.307 179.541 170.633C179.071 169.475 178.695 168.281 178.415 167.063C177.93 164.865 177.604 162.635 177.442 160.39C177.275 158.205 177.232 156.012 177.314 153.821C177.337 153.199 177.583 152.605 178.009 152.149C178.434 151.694 179.009 151.407 179.629 151.341C180.249 151.276 180.871 151.436 181.382 151.793C181.893 152.149 182.259 152.678 182.411 153.283V153.371C183.309 157.235 184.462 161.035 185.86 164.748C186.17 165.538 186.544 166.302 186.978 167.031C187.138 167.313 187.321 167.582 187.525 167.835C187.581 167.915 187.525 167.763 187.436 167.698C187.377 167.617 187.312 167.539 187.243 167.465C187.101 167.312 186.939 167.18 186.761 167.071C186.433 166.854 186.058 166.716 185.667 166.669C185.289 166.623 184.905 166.659 184.542 166.774C184.204 166.846 183.649 167.272 184.019 166.959L184.984 166.042C185.619 165.415 186.262 164.74 186.881 164.056C189.398 161.093 191.701 157.955 193.772 154.665C194.833 152.993 195.886 151.289 196.899 149.576C197.912 147.864 198.941 146.063 199.842 144.439L199.906 144.326C200.546 143.108 201.643 142.195 202.956 141.786C204.27 141.378 205.692 141.508 206.909 142.147C208.127 142.787 209.04 143.884 209.449 145.197C209.857 146.511 209.728 147.932 209.088 149.15L209.12 149.134Z" fill="#263238"/>
<path opacity="0.3" d="M194.922 163.212C194.425 165.593 194.156 168.016 194.118 170.448C194.383 170.191 194.632 169.933 194.881 169.644C196.859 167.625 198.699 165.476 200.389 163.212C201.091 162.29 201.766 161.352 202.415 160.398C202.817 159.377 203.219 158.356 203.524 157.319C203.637 156.973 203.742 156.643 203.846 156.298C201.233 154.995 196.489 156.273 194.922 163.212Z" fill="black"/>
<path d="M181.752 151.208L181.101 147.052L175.931 149.464C176.321 150.835 176.844 152.165 177.491 153.435C177.64 153.734 177.857 153.992 178.125 154.19C178.393 154.388 178.705 154.519 179.034 154.573C179.362 154.628 179.699 154.603 180.017 154.502C180.334 154.4 180.623 154.225 180.86 153.99C181.224 153.635 181.496 153.195 181.652 152.71C181.807 152.225 181.842 151.71 181.752 151.208Z" fill="#FFB573"/>
<path d="M178.19 144.262L174.331 146.923L175.931 149.431L181.101 147.052L178.19 144.262Z" fill="#FFB573"/>
<path d="M192.027 334.046L186.263 332.727L188.578 319.196L194.343 320.515L192.027 334.046Z" fill="#FFB573"/>
<path d="M186.11 331.988L192.59 333.475C192.644 333.485 192.697 333.505 192.743 333.535C192.79 333.565 192.83 333.604 192.861 333.65C192.893 333.695 192.915 333.747 192.926 333.801C192.938 333.855 192.938 333.911 192.928 333.966L192.067 339.167C192.008 339.439 191.843 339.675 191.61 339.826C191.376 339.977 191.093 340.029 190.821 339.971C188.578 339.409 187.533 339.031 184.679 338.363C182.926 337.961 178.054 337.037 175.634 336.482C173.214 335.927 173.833 333.547 174.91 333.564C179.734 333.652 183.119 333.017 185.04 332.108C185.373 331.95 185.75 331.908 186.11 331.988Z" fill="#263238"/>
<path opacity="0.2" d="M194.343 320.523L188.57 319.196L187.38 326.175L193.153 327.493L194.343 320.523Z" fill="black"/>
<path d="M209.49 193.917C209.49 193.917 199.963 233.554 197.108 250.285C193.989 268.6 185.29 323.948 185.29 323.948L195.854 326.36C195.854 326.36 209.04 273.593 213.775 255.833C218.921 236.537 229.582 213.221 229.582 194.287C223.198 194.287 209.49 193.917 209.49 193.917Z" fill="#263238"/>
<path d="M196.28 326.464L183.4 323.514L183.69 319.357L197.607 323.208L196.28 326.464Z" fill="#12544D"/>
<path d="M183.835 332.526C184.364 332.631 184.903 332.68 185.443 332.671C185.469 332.671 185.495 332.663 185.518 332.649C185.541 332.635 185.559 332.615 185.571 332.591C185.586 332.568 185.594 332.542 185.594 332.514C185.594 332.487 185.586 332.461 185.571 332.438C185.418 332.269 184.044 330.782 183.272 330.894C183.184 330.909 183.101 330.945 183.031 331C182.96 331.054 182.905 331.126 182.87 331.208C182.802 331.324 182.766 331.455 182.766 331.59C182.766 331.724 182.802 331.856 182.87 331.972C183.115 332.265 183.457 332.462 183.835 332.526ZM185.097 332.39C184.019 332.39 183.264 332.157 183.055 331.827C183.011 331.75 182.988 331.662 182.988 331.574C182.988 331.485 183.011 331.398 183.055 331.32C183.072 331.281 183.099 331.247 183.132 331.22C183.166 331.194 183.205 331.176 183.248 331.168C183.674 331.103 184.526 331.811 185.097 332.39Z" fill="#12544D"/>
<path d="M185.394 332.671H185.458C185.481 332.666 185.502 332.656 185.519 332.64C185.536 332.625 185.548 332.605 185.555 332.583C185.555 332.518 186.086 330.886 185.627 330.171C185.57 330.082 185.494 330.007 185.403 329.952C185.312 329.898 185.21 329.865 185.105 329.857C184.989 329.832 184.868 329.848 184.762 329.903C184.657 329.957 184.573 330.046 184.526 330.155C184.244 330.75 184.831 332.149 185.33 332.623L185.394 332.671ZM185.137 330.147C185.191 330.158 185.243 330.181 185.288 330.212C185.334 330.244 185.372 330.285 185.402 330.331C185.602 330.956 185.602 331.628 185.402 332.253C184.957 331.695 184.747 330.986 184.815 330.275C184.815 330.203 184.912 330.114 185.113 330.139L185.137 330.147Z" fill="#12544D"/>
<path d="M201.306 145.677C201.63 144.692 202.213 143.813 202.994 143.131C203.775 142.449 204.724 141.99 205.744 141.801C207.209 141.479 208.694 141.254 210.19 141.126C214.674 140.949 219.165 141.03 223.641 141.367C225.98 141.528 228.368 141.858 230.274 142.171H230.338C230.836 142.253 231.313 142.435 231.739 142.704C232.166 142.974 232.534 143.327 232.822 143.741C233.11 144.156 233.312 144.624 233.416 145.118C233.519 145.612 233.522 146.122 233.425 146.617C231.788 154.514 230.668 162.51 230.073 170.553C229.397 182.251 229.856 191.457 229.582 194.279L197.937 193.7C196.53 165.093 199.255 152.149 201.306 145.677Z" fill="white"/>
<path d="M222.748 140.796C221.14 146.963 210.977 157.89 209.747 175.055C210.197 184.47 209.819 190.894 210.977 197.197L230.354 196.683C230.651 193.7 228.456 184.108 229.895 174.388C231.294 164.965 233.28 152.149 234.406 146.424C234.503 145.905 234.498 145.371 234.389 144.854C234.28 144.337 234.07 143.846 233.772 143.41C233.473 142.974 233.091 142.601 232.648 142.312C232.205 142.024 231.709 141.826 231.19 141.729H231.117C229.107 141.399 226.591 141.046 224.123 140.885L222.748 140.796Z" fill="#263238"/>
<path opacity="0.2" d="M227.267 187.412C227.236 187.412 227.205 187.404 227.177 187.39C227.149 187.376 227.125 187.357 227.106 187.332C225.093 184.673 223.514 181.713 222.427 178.56C222.418 178.535 222.414 178.508 222.416 178.481C222.418 178.455 222.425 178.429 222.437 178.405C222.449 178.381 222.465 178.359 222.486 178.342C222.506 178.324 222.53 178.311 222.555 178.303C222.608 178.288 222.664 178.294 222.712 178.319C222.76 178.345 222.796 178.388 222.813 178.44C223.881 181.551 225.439 184.471 227.428 187.091C227.459 187.133 227.473 187.187 227.466 187.24C227.458 187.293 227.43 187.34 227.387 187.372C227.351 187.396 227.31 187.41 227.267 187.412Z" fill="white"/>
<path opacity="0.3" d="M229.694 153.636C228.311 159.264 228.786 167.055 229.936 174.162C231.117 166.187 232.717 155.831 233.851 149.415C232.508 148.499 230.788 149.15 229.694 153.636Z" fill="black"/>
<path d="M199.681 145.789C200.04 144.692 200.677 143.706 201.531 142.93C202.385 142.153 203.427 141.612 204.554 141.359C206.668 141.066 208.796 140.886 210.929 140.821C209.128 146.658 210.182 163.743 210.977 177.226C208.565 184.028 208.75 189.02 208.71 197.197L195.452 196.039C194.005 166.042 197.695 151.24 199.681 145.789Z" fill="#263238"/>
<path d="M210.825 141.086C214.756 140.234 215.488 137.87 215.271 135.169C215.222 134.501 215.131 133.838 214.998 133.183L219.974 129.163L223.625 126.244C222.547 130.554 221.277 138.433 224.155 141.375C224.155 141.375 221.655 145.323 214.974 144.841C209.321 144.471 210.825 141.086 210.825 141.086Z" fill="#FFB573"/>
<path d="M216.694 143.884L215.584 144.913L219.009 146.207L218.599 144.897L216.694 143.884Z" fill="#E0E0E0"/>
<path d="M217.94 147.976C217.94 147.976 217.94 144.607 216.694 143.884C219.248 143.274 221.593 141.995 223.488 140.177L225.522 140.981C225.522 140.981 224.774 144.873 217.94 147.976Z" fill="#F5F5F5"/>
<path d="M214.805 143.619L215.585 144.913L211.942 145.227L212.698 144.077L214.805 143.619Z" fill="#E0E0E0"/>
<path d="M211.709 147.285C211.895 146.471 212.273 145.714 212.812 145.076C213.35 144.438 214.033 143.939 214.804 143.619C212.842 143.032 212.786 140.306 212.786 140.306L210.865 140.676C210.865 140.676 208.895 144.31 211.709 147.285Z" fill="#F5F5F5"/>
<path opacity="0.2" d="M214.998 133.183C215.131 133.838 215.223 134.501 215.271 135.168C217.104 134.831 219.58 132.933 219.87 131.068C219.975 130.452 220.01 129.827 219.974 129.203L214.998 133.183Z" fill="black"/>
<path d="M208.284 113.477C207.711 114.538 207.434 115.734 207.482 116.939C207.53 118.144 207.902 119.314 208.558 120.327L212.497 115.422L208.284 113.477Z" fill="#263238"/>
<path d="M224.179 118.92C223.898 124.805 224.034 128.246 221.116 131.406C220.178 132.439 218.977 133.197 217.64 133.597C216.304 133.998 214.884 134.026 213.533 133.678C212.181 133.331 210.951 132.621 209.973 131.625C208.996 130.63 208.309 129.386 207.987 128.029C206.66 122.819 207.335 114.072 213.036 111.459C214.255 110.861 215.611 110.595 216.966 110.686C218.321 110.777 219.628 111.223 220.757 111.979C221.885 112.734 222.796 113.773 223.396 114.992C223.997 116.21 224.267 117.564 224.179 118.92Z" fill="#FFB573"/>
<path d="M227.797 112.857C225.256 104.721 199.922 100.516 209.747 114.281L220.521 112.809L220.923 115.575C221.472 117.739 222.209 119.851 223.126 121.886L222.676 124.387L223.142 128.455C223.142 128.455 227.62 123.486 229.888 121.131C233.28 117.625 229.839 112.656 227.797 112.857Z" fill="#263238"/>
<path d="M208.493 114.465C211.307 116.54 218.664 116.934 218.664 116.934C218.161 115.847 217.389 114.906 216.421 114.2C219.371 116.114 221.992 118.317 226.921 118.502C226.262 116.681 225.239 115.014 223.915 113.601C222.59 112.189 220.993 111.06 219.219 110.285C213.285 107.623 203.211 110.582 208.493 114.465Z" fill="#263238"/>
<path d="M226.615 105.654C226.615 105.654 225.522 106.393 225.273 108.966C225.023 111.539 227.628 114.859 227.628 114.859L228.272 113.211C225.835 110.068 226.615 105.654 226.615 105.654Z" fill="#263238"/>
<path d="M225.827 123.358C225.325 124.53 224.433 125.493 223.303 126.083C221.863 126.791 221.1 125.488 221.47 123.896C221.799 122.465 222.957 120.375 224.42 120.327C225.884 120.278 226.454 121.878 225.827 123.358Z" fill="#FFB573"/>
<path d="M215.19 121.107C215.19 121.581 214.949 121.983 214.644 121.999C214.338 122.015 214.073 121.637 214.065 121.155C214.057 120.672 214.306 120.278 214.619 120.262C214.933 120.246 215.182 120.6 215.19 121.107Z" fill="#263238"/>
<path d="M209.844 121.404C209.844 121.886 209.603 122.28 209.289 122.296C208.976 122.313 208.718 121.935 208.718 121.492C208.718 121.05 208.959 120.616 209.265 120.6C209.57 120.584 209.796 120.889 209.844 121.404Z" fill="#263238"/>
<path d="M211.645 121.404C211.096 122.896 210.35 124.307 209.426 125.601C209.76 125.819 210.137 125.96 210.532 126.016C210.926 126.071 211.328 126.04 211.709 125.922L211.645 121.404Z" fill="#ED893E"/>
<path d="M213.671 127.112C214.218 127.029 214.743 126.835 215.213 126.542C215.683 126.249 216.088 125.863 216.404 125.408C216.423 125.377 216.43 125.339 216.422 125.304C216.415 125.268 216.394 125.236 216.364 125.215C216.348 125.205 216.331 125.198 216.312 125.195C216.294 125.192 216.275 125.193 216.257 125.197C216.239 125.202 216.222 125.21 216.207 125.221C216.193 125.233 216.18 125.247 216.171 125.263C215.812 125.742 215.351 126.135 214.821 126.414C214.291 126.692 213.706 126.848 213.108 126.871C213.07 126.875 213.035 126.893 213.01 126.921C212.985 126.95 212.971 126.986 212.971 127.024C212.975 127.06 212.992 127.092 213.019 127.116C213.046 127.14 213.08 127.153 213.116 127.153C213.302 127.152 213.487 127.139 213.671 127.112Z" fill="#263238"/>
<path d="M217.619 119.056C217.665 119.048 217.709 119.029 217.747 119C217.804 118.953 217.841 118.885 217.848 118.811C217.856 118.738 217.834 118.664 217.787 118.606C217.52 118.256 217.17 117.976 216.769 117.793C216.368 117.609 215.928 117.527 215.488 117.553C215.448 117.553 215.409 117.561 215.372 117.577C215.336 117.593 215.303 117.616 215.276 117.646C215.25 117.676 215.229 117.711 215.217 117.749C215.205 117.787 215.201 117.827 215.206 117.867C215.211 117.906 215.224 117.944 215.244 117.979C215.265 118.013 215.292 118.042 215.325 118.065C215.358 118.088 215.395 118.104 215.434 118.111C215.473 118.118 215.513 118.117 215.552 118.108C215.895 118.089 216.237 118.153 216.55 118.292C216.863 118.432 217.138 118.644 217.353 118.912C217.377 118.96 217.416 119 217.463 119.025C217.511 119.051 217.565 119.062 217.619 119.056Z" fill="#263238"/>
<path d="M207.432 119.691C207.477 119.684 207.52 119.665 207.557 119.637C207.593 119.609 207.622 119.573 207.641 119.531C207.785 119.196 208.006 118.899 208.285 118.665C208.564 118.43 208.894 118.264 209.249 118.18C209.285 118.174 209.32 118.161 209.351 118.142C209.382 118.122 209.409 118.097 209.43 118.067C209.451 118.037 209.465 118.003 209.473 117.967C209.481 117.931 209.481 117.894 209.474 117.858C209.462 117.785 209.422 117.719 209.362 117.675C209.301 117.632 209.226 117.614 209.153 117.625C208.716 117.732 208.311 117.939 207.967 118.229C207.624 118.519 207.353 118.885 207.175 119.298C207.154 119.344 207.146 119.394 207.152 119.444C207.157 119.495 207.176 119.542 207.207 119.583C207.237 119.623 207.278 119.654 207.325 119.673C207.371 119.693 207.422 119.699 207.472 119.691H207.432Z" fill="#263238"/>
<path d="M235.307 145.218C235.845 146.424 236.304 147.518 236.746 148.668C237.188 149.817 237.63 150.959 238.048 152.109C238.852 154.408 239.656 156.748 240.3 159.12C241.743 163.956 242.675 168.931 243.081 173.961C243.351 178.822 243.351 183.694 243.081 188.554C242.848 193.378 242.47 198.098 241.835 202.865C241.751 203.491 241.441 204.064 240.964 204.477C240.487 204.89 239.876 205.115 239.245 205.109C238.614 205.103 238.007 204.867 237.538 204.445C237.069 204.023 236.77 203.444 236.698 202.817C236.175 198.122 235.765 193.41 235.339 188.739C235.13 186.402 234.905 184.078 234.663 181.768C234.446 179.461 234.157 177.169 233.859 174.991C233.089 170.62 231.971 166.319 230.515 162.127C229.791 159.98 229.044 157.825 228.248 155.695C227.452 153.564 226.599 151.377 225.836 149.359L225.787 149.247C225.323 147.991 225.361 146.605 225.894 145.378C226.427 144.15 227.413 143.175 228.647 142.657C229.881 142.138 231.267 142.116 232.517 142.595C233.767 143.074 234.783 144.016 235.355 145.227L235.307 145.218Z" fill="#263238"/>
<path d="M236.778 202.463L233.425 204.071L239.11 206.105C239.11 206.105 242.961 204.891 241.152 202.769L240.139 202.447C238.49 201.892 237.678 201.949 236.778 202.463Z" fill="#FFB573"/>
<path d="M231.503 207.673L237.509 208.823L239.109 206.073L233.425 204.039L231.503 207.673Z" fill="#FFB573"/>
<path d="M140.555 68.4285H113.581V69.3289H140.555V68.4285Z" fill="#12544D"/>
<path d="M98.6671 73.164L98.0078 72.5449C99.2449 71.2285 100.74 70.1814 102.4 69.4689C104.06 68.7565 105.849 68.3941 107.656 68.4043V69.2968C105.972 69.2873 104.304 69.626 102.757 70.2914C101.211 70.9569 99.8181 71.9349 98.6671 73.164Z" fill="#12544D"/>
<path d="M107.688 71.556H159.256C162.162 71.6034 164.944 72.7332 167.061 74.7244C169.177 76.7155 170.473 79.4246 170.697 82.3215L172.651 113.195L173.278 123.213L162.633 113.203H110.325C107.422 113.156 104.641 112.027 102.527 110.037C100.412 108.048 99.116 105.34 98.8921 102.446L97.6218 82.3457C97.5136 80.9623 97.6942 79.5716 98.1522 78.2618C98.6101 76.952 99.3354 75.7517 100.282 74.7371C101.228 73.7225 102.376 72.9158 103.651 72.3682C104.925 71.8205 106.3 71.544 107.688 71.556Z" fill="#12544D"/>
<path d="M110.413 86.3094H159.144C159.375 86.3111 159.603 86.265 159.815 86.174C160.027 86.083 160.218 85.9491 160.376 85.7807C160.534 85.6123 160.655 85.413 160.732 85.1954C160.81 84.9779 160.841 84.7467 160.824 84.5165C160.784 84.0335 160.566 83.5826 160.213 83.2513C159.859 82.92 159.395 82.7319 158.911 82.7236H110.188C109.957 82.7218 109.729 82.7679 109.517 82.8589C109.304 82.9499 109.113 83.0838 108.956 83.2522C108.798 83.4207 108.676 83.6199 108.599 83.8375C108.522 84.0551 108.491 84.2863 108.508 84.5165C108.546 84.9987 108.762 85.4495 109.114 85.781C109.466 86.1125 109.93 86.3009 110.413 86.3094Z" fill="white"/>
<path d="M110.952 94.5745H159.682C159.913 94.5762 160.142 94.5301 160.354 94.4391C160.566 94.3481 160.757 94.2142 160.915 94.0458C161.073 93.8774 161.194 93.6781 161.271 93.4606C161.348 93.243 161.379 93.0118 161.363 92.7816C161.325 92.298 161.107 91.846 160.753 91.5143C160.399 91.1827 159.934 90.9952 159.449 90.9887H110.711C110.48 90.9857 110.25 91.031 110.038 91.1216C109.825 91.2121 109.633 91.346 109.475 91.5147C109.317 91.6834 109.196 91.8832 109.119 92.1013C109.043 92.3194 109.012 92.5511 109.03 92.7816C109.069 93.2666 109.287 93.7196 109.643 94.0515C109.998 94.3834 110.465 94.57 110.952 94.5745Z" fill="white"/>
<path d="M128.053 102.84H160.213C160.445 102.841 160.674 102.795 160.887 102.704C161.1 102.612 161.291 102.478 161.449 102.308C161.607 102.139 161.728 101.939 161.804 101.72C161.881 101.502 161.911 101.27 161.894 101.039C161.857 100.556 161.642 100.104 161.289 99.7721C160.936 99.4402 160.472 99.2525 159.988 99.2458H127.836C127.605 99.2441 127.377 99.2902 127.164 99.3811C126.952 99.4721 126.761 99.606 126.603 99.7745C126.446 99.9429 126.324 100.142 126.247 100.36C126.17 100.577 126.139 100.808 126.156 101.039C126.19 101.522 126.403 101.974 126.755 102.308C127.106 102.641 127.569 102.831 128.053 102.84Z" fill="white"/>
<path d="M125.979 123.221H74.4104C73.0234 123.205 71.6482 123.477 70.3722 124.021C69.0962 124.565 67.9472 125.368 66.9983 126.38C66.0494 127.391 65.3213 128.589 64.8602 129.898C64.3992 131.206 64.2152 132.595 64.3202 133.979L65.7674 156.619L66.3945 166.629L75.7772 156.619H128.085C129.472 156.633 130.846 156.359 132.122 155.814C133.397 155.269 134.545 154.464 135.492 153.452C136.44 152.44 137.168 151.242 137.628 149.934C138.089 148.626 138.272 147.236 138.168 145.854L137.42 133.979C137.196 131.082 135.899 128.374 133.782 126.384C131.666 124.395 128.883 123.266 125.979 123.221Z" fill="#12544D"/>
<path opacity="0.5" d="M125.979 123.221H74.4104C73.0234 123.205 71.6482 123.477 70.3722 124.021C69.0962 124.565 67.9472 125.368 66.9983 126.38C66.0494 127.391 65.3213 128.589 64.8602 129.898C64.3992 131.206 64.2152 132.595 64.3202 133.979L65.7674 156.619L66.3945 166.629L75.7772 156.619H128.085C129.472 156.633 130.846 156.359 132.122 155.814C133.397 155.269 134.545 154.464 135.492 153.452C136.44 152.44 137.168 151.242 137.628 149.934C138.089 148.626 138.272 147.236 138.168 145.854L137.42 133.979C137.196 131.082 135.899 128.374 133.782 126.384C131.666 124.395 128.883 123.266 125.979 123.221Z" fill="white"/>
<path d="M125.119 137.966H76.3801C75.8964 137.958 75.4333 137.77 75.081 137.438C74.7287 137.107 74.5125 136.656 74.4746 136.173C74.4579 135.943 74.4891 135.712 74.5662 135.494C74.6432 135.277 74.7645 135.078 74.9223 134.909C75.0802 134.741 75.2712 134.607 75.4833 134.516C75.6955 134.425 75.9241 134.379 76.1549 134.381H124.877C125.362 134.387 125.828 134.575 126.181 134.906C126.535 135.238 126.753 135.69 126.791 136.173C126.807 136.403 126.776 136.633 126.7 136.851C126.623 137.068 126.503 137.266 126.346 137.435C126.189 137.603 125.999 137.737 125.788 137.829C125.576 137.92 125.349 137.967 125.119 137.966Z" fill="white"/>
<path d="M109.047 146.248H76.8866C76.4021 146.239 75.938 146.051 75.5844 145.72C75.2308 145.389 75.0129 144.938 74.9731 144.455C74.9565 144.224 74.9876 143.993 75.0647 143.776C75.1418 143.558 75.263 143.359 75.4209 143.19C75.5787 143.022 75.7697 142.888 75.9818 142.797C76.194 142.706 76.4226 142.66 76.6535 142.662H108.813C109.298 142.667 109.763 142.854 110.116 143.186C110.47 143.518 110.685 143.971 110.719 144.455C110.736 144.684 110.705 144.915 110.628 145.132C110.551 145.349 110.431 145.548 110.274 145.716C110.117 145.884 109.927 146.018 109.716 146.11C109.505 146.201 109.277 146.248 109.047 146.248Z" fill="white"/>
<path d="M113.702 166.629H165.262C168.168 166.675 170.952 167.804 173.068 169.795C175.185 171.787 176.481 174.497 176.703 177.395L178.231 201.515L178.866 211.524L168.221 201.515H115.905C112.999 201.467 110.217 200.337 108.1 198.346C105.984 196.355 104.688 193.646 104.464 190.749L103.619 177.362C103.519 175.982 103.707 174.596 104.169 173.292C104.632 171.988 105.36 170.794 106.307 169.785C107.255 168.776 108.401 167.975 109.674 167.432C110.946 166.889 112.318 166.615 113.702 166.629Z" fill="#12544D"/>
<path d="M136.72 182.797C136.795 183.817 137.249 184.772 137.993 185.473C138.737 186.174 139.718 186.571 140.74 186.584C141.229 186.59 141.713 186.494 142.162 186.303C142.611 186.112 143.016 185.829 143.35 185.473C143.684 185.117 143.941 184.695 144.103 184.234C144.266 183.774 144.331 183.284 144.294 182.797C144.216 181.779 143.761 180.826 143.017 180.126C142.273 179.425 141.295 179.028 140.274 179.011C139.785 179.004 139.3 179.098 138.85 179.289C138.401 179.48 137.995 179.763 137.661 180.119C137.326 180.476 137.07 180.898 136.908 181.359C136.746 181.82 136.682 182.31 136.72 182.797Z" fill="white"/>
<path d="M124.089 184.068C124.164 185.088 124.618 186.042 125.362 186.744C126.107 187.445 127.087 187.841 128.109 187.855C128.597 187.861 129.081 187.765 129.53 187.573C129.979 187.382 130.383 187.099 130.717 186.743C131.05 186.387 131.306 185.965 131.468 185.504C131.629 185.044 131.693 184.554 131.655 184.068C131.577 183.049 131.122 182.097 130.378 181.396C129.635 180.696 128.656 180.298 127.635 180.281C127.147 180.275 126.663 180.371 126.214 180.562C125.765 180.754 125.361 181.037 125.027 181.393C124.694 181.749 124.438 182.171 124.277 182.631C124.115 183.092 124.051 183.581 124.089 184.068Z" fill="white"/>
<path d="M149.625 185.973C149.703 186.992 150.158 187.945 150.902 188.645C151.645 189.345 152.623 189.743 153.645 189.76C154.133 189.766 154.617 189.67 155.066 189.479C155.515 189.287 155.919 189.005 156.252 188.648C156.586 188.292 156.842 187.87 157.003 187.41C157.165 186.949 157.228 186.46 157.19 185.973C157.116 184.953 156.662 183.999 155.917 183.297C155.173 182.596 154.193 182.2 153.17 182.186C152.683 182.182 152.199 182.278 151.751 182.47C151.303 182.662 150.899 182.945 150.566 183.301C150.232 183.657 149.977 184.078 149.815 184.538C149.653 184.998 149.588 185.487 149.625 185.973Z" fill="white"/>
</svg>
