<svg width="14" height="14" viewBox="0 0 14 14" fill="none" xmlns="http://www.w3.org/2000/svg">
<path fill-rule="evenodd" clip-rule="evenodd" d="M4 0C1.79086 0 0 1.79086 0 4V10C0 12.2091 1.79086 14 4 14H10C12.2091 14 14 12.2091 14 10V4C14 1.79086 12.2091 0 10 0H4ZM5.24784 9.9345C5.4134 10.0274 5.57685 10.0215 5.73821 9.91659L9.68338 7.41153C9.8286 7.31471 9.90121 7.17756 9.90121 7.00007C9.90121 6.82258 9.8286 6.68542 9.68338 6.58861L5.73821 4.08355C5.57685 3.97866 5.4134 3.97253 5.24784 4.06515C5.08261 4.15809 5 4.30138 5 4.49501V9.50513C5 9.69876 5.08261 9.84188 5.24784 9.9345Z" fill="#DF475C"/>
</svg>
