<svg width="16" height="17" viewBox="0 0 16 17" fill="none" xmlns="http://www.w3.org/2000/svg">
    <g clip-path="url(#clip0_784_43347)">
        <path
            d="M9.88536 5.67142L6.1147 9.44275C6.05102 9.50425 6.00023 9.57782 5.96529 9.65915C5.93036 9.74049 5.91196 9.82797 5.9112 9.91649C5.91043 10.005 5.92729 10.0928 5.96081 10.1747C5.99433 10.2567 6.04384 10.3311 6.10643 10.3937C6.16903 10.4563 6.24346 10.5058 6.32539 10.5393C6.40732 10.5728 6.49511 10.5897 6.58363 10.5889C6.67215 10.5882 6.75963 10.5698 6.84096 10.5348C6.9223 10.4999 6.99586 10.4491 7.05736 10.3854L10.8287 6.61475C11.2038 6.23965 11.4145 5.7309 11.4145 5.20042C11.4145 4.66994 11.2038 4.16119 10.8287 3.78609C10.4536 3.41098 9.94484 3.20025 9.41436 3.20025C8.88388 3.20025 8.37513 3.41098 8.00003 3.78609L4.2287 7.55742C3.91275 7.86551 3.66111 8.23326 3.4884 8.63935C3.31569 9.04544 3.22533 9.48179 3.22256 9.92307C3.2198 10.3644 3.30468 10.8018 3.47229 11.21C3.63991 11.6182 3.88691 11.9891 4.19897 12.3011C4.51104 12.6132 4.88195 12.8601 5.2902 13.0277C5.69845 13.1952 6.1359 13.2801 6.57719 13.2772C7.01847 13.2744 7.4548 13.184 7.86087 13.0112C8.26694 12.8384 8.63465 12.5867 8.9427 12.2708L12.714 8.50009L13.6567 9.44275L9.88536 13.2141C9.452 13.6474 8.93752 13.9912 8.37131 14.2257C7.80509 14.4603 7.19823 14.581 6.58536 14.581C5.9725 14.581 5.36563 14.4603 4.79941 14.2257C4.2332 13.9912 3.71872 13.6474 3.28536 13.2141C2.852 12.7807 2.50824 12.2663 2.2737 11.7C2.03917 11.1338 1.91846 10.527 1.91846 9.91409C1.91846 9.30122 2.03917 8.69436 2.2737 8.12814C2.50824 7.56193 2.852 7.04745 3.28536 6.61409L7.05736 2.84342C7.68604 2.23623 8.52804 1.90025 9.40203 1.90784C10.276 1.91544 11.1121 2.266 11.7301 2.88403C12.3481 3.50205 12.6987 4.33809 12.7063 5.21208C12.7139 6.08607 12.3779 6.92808 11.7707 7.55675L8.00003 11.3294C7.81425 11.5152 7.59371 11.6625 7.351 11.763C7.10829 11.8635 6.84816 11.9152 6.58546 11.9152C6.32276 11.9151 6.06264 11.8634 5.81996 11.7628C5.57727 11.6622 5.35676 11.5149 5.17103 11.3291C4.9853 11.1433 4.83797 10.9228 4.73747 10.6801C4.63697 10.4373 4.58526 10.1772 4.58529 9.91452C4.58532 9.65182 4.63709 9.3917 4.73765 9.14901C4.83821 8.90633 4.98559 8.68582 5.17136 8.50009L8.9427 4.72875L9.88536 5.67142Z"
            fill="#2A2939" />
    </g>
    <defs>
        <clipPath id="clip0_784_43347">
            <rect width="16" height="16" fill="white" transform="translate(0 0.5)" />
        </clipPath>
    </defs>
</svg>
    