<svg width="24" height="24" viewBox="0 0 24 24" fill="none" xmlns="http://www.w3.org/2000/svg">
    <path
        d="M14.7 11.0926C15.4275 10.5901 15.9375 9.76506 15.9375 9.00006C15.9375 7.30506 14.625 6.00006 12.9375 6.00006H8.25V16.5001H13.53C15.0975 16.5001 16.3125 15.2251 16.3125 13.6576C16.3125 12.5176 15.6675 11.5426 14.7 11.0926ZM10.5 7.87506H12.75C13.3725 7.87506 13.875 8.37756 13.875 9.00006C13.875 9.62256 13.3725 10.1251 12.75 10.1251H10.5V7.87506ZM13.125 14.6251H10.5V12.3751H13.125C13.7475 12.3751 14.25 12.8776 14.25 13.5001C14.25 14.1226 13.7475 14.6251 13.125 14.6251Z"
        fill="#94949C" />
</svg>
    