<svg width="32" height="32" viewBox="0 0 32 32" fill="none" xmlns="http://www.w3.org/2000/svg">
    <g clip-path="url(#clip0_697_37957)">
    <path fill-rule="evenodd" clip-rule="evenodd" d="M16 32C24.8366 32 32 24.8366 32 16C32 7.16344 24.8366 0 16 0C7.16344 0 0 7.16344 0 16C0 24.8366 7.16344 32 16 32Z" fill="white"/>
    <mask id="mask0_697_37957" style="mask-type:luminance" maskUnits="userSpaceOnUse" x="0" y="0" width="32" height="32">
    <path fill-rule="evenodd" clip-rule="evenodd" d="M16 32C24.8366 32 32 24.8366 32 16C32 7.16344 24.8366 0 16 0C7.16344 0 0 7.16344 0 16C0 24.8366 7.16344 32 16 32Z" fill="white"/>
    </mask>
    <g mask="url(#mask0_697_37957)">
    <g opacity="0.2">
    <path fill-rule="evenodd" clip-rule="evenodd" d="M16 32C24.8366 32 32 24.8366 32 16C32 7.16344 24.8366 0 16 0C7.16344 0 0 7.16344 0 16C0 24.8366 7.16344 32 16 32Z" fill="#D63649"/>
    </g>
    <path fill-rule="evenodd" clip-rule="evenodd" d="M22.4441 13.2884C22.0735 12.4226 21.5767 11.6767 20.9537 11.0509C20.3311 10.425 19.5866 9.92664 18.7206 9.556C17.855 9.18535 16.9479 9 16.0001 9C15.0522 9 14.1453 9.18545 13.2794 9.556C12.4134 9.92664 11.6691 10.4249 11.0463 11.0509C10.4235 11.6767 9.92661 12.4226 9.55597 13.2884C9.18535 14.1543 9 15.0643 9 16.0182C9 16.9722 9.18535 17.8837 9.55597 18.7525C9.92671 19.6216 10.4234 20.3688 11.0463 20.9948C11.6691 21.6207 12.4134 22.1191 13.2794 22.4894C14.1453 22.8602 15.0522 23.0456 16.0001 23.0456C16.948 23.0456 17.855 22.8602 18.7206 22.4894C19.5866 22.1189 20.3311 21.6207 20.9537 20.9948C21.5767 20.3688 22.0734 19.6216 22.4441 18.7525C22.8148 17.8836 23 16.9722 23 16.0182C22.9999 15.0643 22.8148 14.1543 22.4441 13.2884ZM11.8529 18.7433C11.3121 17.9112 11.0417 17.0024 11.0418 16.0181C11.0418 15.1189 11.2636 14.2864 11.7072 13.5208C12.1507 12.7551 12.7524 12.1506 13.5118 11.7069C14.2713 11.2633 15.1008 11.0416 16.0001 11.0416C17.0029 11.0416 17.9141 11.3181 18.7345 11.871L11.8529 18.7433ZM20.5662 17.9552C20.3049 18.5719 19.9527 19.1022 19.5091 19.5458C19.0654 19.9894 18.5383 20.3433 17.9276 20.6074C17.3169 20.8716 16.6743 21.004 15.9999 21.004C15.0278 21.004 14.1254 20.7337 13.2929 20.1927L20.1654 13.3294C20.6943 14.1436 20.9584 15.0399 20.9584 16.0181C20.9582 16.6927 20.8275 17.3383 20.5662 17.9552Z" fill="#D63649"/>
    </g>
    </g>
    <defs>
    <clipPath id="clip0_697_37957">
    <rect width="32" height="32" fill="white"/>
    </clipPath>
    </defs>
    </svg>
    