<svg width="24" height="24" viewBox="0 0 24 24" fill="none" xmlns="http://www.w3.org/2000/svg">
    <path
        d="M5.925 12.0001C5.925 10.7176 6.9675 9.67506 8.25 9.67506H11.25V8.25006H8.25C6.18 8.25006 4.5 9.93006 4.5 12.0001C4.5 14.0701 6.18 15.7501 8.25 15.7501H11.25V14.3251H8.25C6.9675 14.3251 5.925 13.2826 5.925 12.0001ZM9 12.7501H15V11.2501H9V12.7501ZM15.75 8.25006H12.75V9.67506H15.75C17.0325 9.67506 18.075 10.7176 18.075 12.0001C18.075 13.2826 17.0325 14.3251 15.75 14.3251H12.75V15.7501H15.75C17.82 15.7501 19.5 14.0701 19.5 12.0001C19.5 9.93006 17.82 8.25006 15.75 8.25006Z"
        fill="#94949C" />
</svg>
    