<svg width="32" height="32" viewBox="0 0 32 32" fill="none" xmlns="http://www.w3.org/2000/svg">
    <g clip-path="url(#clip0_697_37977)">
    <path fill-rule="evenodd" clip-rule="evenodd" d="M16 32C24.8366 32 32 24.8366 32 16C32 7.16344 24.8366 0 16 0C7.16344 0 0 7.16344 0 16C0 24.8366 7.16344 32 16 32Z" fill="white"/>
    <mask id="mask0_697_37977" style="mask-type:luminance" maskUnits="userSpaceOnUse" x="0" y="0" width="32" height="32">
    <path fill-rule="evenodd" clip-rule="evenodd" d="M16 32C24.8366 32 32 24.8366 32 16C32 7.16344 24.8366 0 16 0C7.16344 0 0 7.16344 0 16C0 24.8366 7.16344 32 16 32Z" fill="white"/>
    </mask>
    <g mask="url(#mask0_697_37977)">
    <g opacity="0.2">
    <path fill-rule="evenodd" clip-rule="evenodd" d="M16 32C24.8366 32 32 24.8366 32 16C32 7.16344 24.8366 0 16 0C7.16344 0 0 7.16344 0 16C0 24.8366 7.16344 32 16 32Z" fill="#94949C"/>
    </g>
    </g>
    </g>
    <g clip-path="url(#clip1_697_37977)">
    <path d="M20.0833 14.8333H20.6667C20.8214 14.8333 20.9697 14.8948 21.0791 15.0042C21.1885 15.1136 21.25 15.2619 21.25 15.4167V21.25C21.25 21.4047 21.1885 21.5531 21.0791 21.6625C20.9697 21.7719 20.8214 21.8333 20.6667 21.8333H11.3333C11.1786 21.8333 11.0303 21.7719 10.9209 21.6625C10.8115 21.5531 10.75 21.4047 10.75 21.25V15.4167C10.75 15.2619 10.8115 15.1136 10.9209 15.0042C11.0303 14.8948 11.1786 14.8333 11.3333 14.8333H11.9167V14.25C11.9167 13.7138 12.0223 13.1828 12.2275 12.6874C12.4327 12.192 12.7335 11.7418 13.1126 11.3626C13.4918 10.9835 13.942 10.6827 14.4374 10.4775C14.9328 10.2723 15.4638 10.1667 16 10.1667C16.5362 10.1667 17.0672 10.2723 17.5626 10.4775C18.058 10.6827 18.5082 10.9835 18.8874 11.3626C19.2665 11.7418 19.5673 12.192 19.7725 12.6874C19.9777 13.1828 20.0833 13.7138 20.0833 14.25V14.8333ZM11.9167 16V20.6667H20.0833V16H11.9167ZM15.4167 17.1667H16.5833V19.5H15.4167V17.1667ZM18.9167 14.8333V14.25C18.9167 13.4764 18.6094 12.7346 18.0624 12.1876C17.5154 11.6406 16.7735 11.3333 16 11.3333C15.2265 11.3333 14.4846 11.6406 13.9376 12.1876C13.3906 12.7346 13.0833 13.4764 13.0833 14.25V14.8333H18.9167Z" fill="#94949C"/>
    </g>
    <defs>
    <clipPath id="clip0_697_37977">
    <rect width="32" height="32" fill="white"/>
    </clipPath>
    <clipPath id="clip1_697_37977">
    <rect width="14" height="14" fill="white" transform="translate(9 9)"/>
    </clipPath>
    </defs>
    </svg>
    