<svg width="25" height="24" viewBox="0 0 25 24" fill="none" xmlns="http://www.w3.org/2000/svg">
    <path
        d="M20.1779 3.3641L2.89332 8.29104C2.74791 8.33249 2.61848 8.4178 2.52233 8.53558C2.42618 8.65336 2.3679 8.79799 2.35526 8.95015C2.34263 9.1023 2.37624 9.25473 2.45162 9.38706C2.527 9.51939 2.64055 9.62531 2.77709 9.69068L10.7187 13.4925C10.8736 13.5666 10.9984 13.6927 11.0717 13.8492L14.8336 21.8752C14.8982 22.0132 15.0031 22.128 15.134 22.2041C15.2649 22.2803 15.4158 22.3143 15.5663 22.3015C15.7169 22.2888 15.86 22.2299 15.9765 22.1327C16.0931 22.0355 16.1775 21.9047 16.2185 21.7578L21.0936 4.28953C21.1294 4.16122 21.1308 4.02558 21.0975 3.89658C21.0642 3.76758 20.9974 3.64988 20.9041 3.55561C20.8109 3.46134 20.6944 3.3939 20.5668 3.36024C20.4391 3.32658 20.3049 3.32791 20.1779 3.3641Z"
        stroke="#94949C" stroke-width="2" stroke-linecap="round" stroke-linejoin="round" />
    <path d="M10.958 13.6059L15.1561 9.36328" stroke="#94949C" stroke-width="2" stroke-linecap="round"
        stroke-linejoin="round" />
</svg>
    