<svg width="80" height="81" viewBox="0 0 80 81" fill="none" xmlns="http://www.w3.org/2000/svg">
    <g clip-path="url(#clip0_1172_68459)">
    <path fill-rule="evenodd" clip-rule="evenodd" d="M10 0.5C5.58172 0.5 2 4.08172 2 8.5V60C2 64.4183 5.58172 68 10 68H30.6851C29.5951 65.0392 29 61.8391 29 58.5C29 43.3122 41.3122 31 56.5 31C58.5608 31 60.5687 31.2267 62.5 31.6565V8.5C62.5 4.08172 58.9183 0.5 54.5 0.5H10Z" fill="#EAEAEB"/>
    <rect x="11" y="10" width="40.5" height="8" rx="4" fill="white"/>
    <rect x="11" y="29" width="23.5" height="8" rx="4" fill="white"/>
    <path fill-rule="evenodd" clip-rule="evenodd" d="M56.5 80.5C68.6503 80.5 78.5 70.6503 78.5 58.5C78.5 46.3497 68.6503 36.5 56.5 36.5C44.3497 36.5 34.5 46.3497 34.5 58.5C34.5 70.6503 44.3497 80.5 56.5 80.5ZM56.5 72.5C54.2909 72.5 52.5 70.7091 52.5 68.5V62.5H46.5C44.2909 62.5 42.5 60.7091 42.5 58.5C42.5 56.2909 44.2909 54.5 46.5 54.5H52.5V48.5C52.5 46.2909 54.2909 44.5 56.5 44.5C58.7091 44.5 60.5 46.2909 60.5 48.5V54.5H66.5C68.7091 54.5 70.5 56.2909 70.5 58.5C70.5 60.7091 68.7091 62.5 66.5 62.5H60.5V68.5C60.5 70.7091 58.7091 72.5 56.5 72.5Z" fill="#DF475C"/>
    <rect x="11" y="48" width="12.5" height="8" rx="4" fill="white"/>
    </g>
    <defs>
    <clipPath id="clip0_1172_68459">
    <rect width="80" height="80" fill="white" transform="translate(0 0.5)"/>
    </clipPath>
    </defs>
    </svg>
    