<svg width="80" height="80" viewBox="0 0 80 80" fill="none" xmlns="http://www.w3.org/2000/svg">
<path d="M21.5107 24.7722C34.4664 37.2657 43.9326 50.4167 53.4899 67.0704C58.5159 61.6081 59.7724 59.7657 55.8727 51.9141C50.0914 40.2735 34.1018 23.5613 24.6878 20.0782C23.5615 19.6615 22.5263 19.4532 21.6474 19.4792C21.1331 19.4988 20.4365 20.0001 19.9677 20.6576C18.9196 22.129 20.0459 23.3594 21.5107 24.7722Z" fill="#FF0000"/>
<path d="M57.7736 9.8765C44.1668 28.6525 29.8634 46.9598 12.0835 63.8869C18.5288 69.6161 20.9832 69.3622 27.5718 63.6851C38.8804 53.9325 55.5926 30.5731 61.3999 17.383C62.37 15.1825 63.3661 11.6083 60.8726 10.189C59.8569 9.60958 58.5223 9.32963 57.7736 9.8765Z" fill="#FF0000"/>
<path d="M33.3399 0.566488L33.6264 0.520915L33.8542 0.481852L33.9193 0.475342L34.2058 0.429769L34.3685 0.410238L34.4922 0.390706L34.7787 0.351644L34.8764 0.338623L35.0652 0.312581L35.3516 0.280029L35.3842 0.273519L35.6381 0.247477L35.892 0.221436H35.918L36.2045 0.195394L36.3998 0.175863L36.4909 0.169352L36.7774 0.143311L36.9076 0.13029L37.0639 0.117269L37.3438 0.0977376L37.4154 0.0912272L37.6303 0.0782064L37.9167 0.0651856H37.9232L38.1967 0.0521647L38.4245 0.0391439H38.4766L38.7631 0.026123L38.9258 0.0196126L39.043 0.0131022L39.323 0.0065918H39.4271H39.6094H39.8894H39.9284H40.1693H40.4297H40.4493L40.7292 0.0131022H40.9245H41.0092L41.2891 0.0196126L41.4258 0.026123L41.5691 0.0326335L41.849 0.0456543H41.9271L42.129 0.0586751L42.4089 0.071696H42.4219L42.6888 0.0847168L42.7409 0.0912272L42.9688 0.110758L43.2487 0.13029L43.418 0.143311L43.5287 0.149821L43.9128 0.188883L44.0821 0.208415L44.3555 0.234456L44.4011 0.240967L44.629 0.267008L44.8894 0.299561H44.9024L45.1758 0.332113L45.3711 0.358154L45.4428 0.371175L45.7162 0.410238L45.8529 0.429769L45.9896 0.4493L46.2631 0.494873L46.3412 0.507894L46.5365 0.540446L46.8099 0.586019H46.8295L47.0834 0.631592L47.3112 0.670654L47.3568 0.677165L47.6237 0.729248L47.793 0.7618L47.8972 0.781331L48.7045 0.950602L48.75 0.963623L48.9714 1.01571L49.2253 1.0743H49.2383L49.7006 1.19149L49.7722 1.20451C50.2149 1.31519 50.6511 1.43237 51.0873 1.56258C49.2513 3.59383 47.5586 5.53394 45.9961 7.3894C44.9545 7.2006 43.8998 7.05737 42.8386 6.96623C42.0183 6.89461 41.198 6.85555 40.3711 6.84904H40.3386C39.9349 6.84904 39.5313 6.84904 39.1277 6.86206H39.0756L38.8933 6.86857L38.711 6.87508L38.5287 6.88159L38.3464 6.8881L38.2878 6.89461L38.1641 6.90112L37.8711 6.92065L37.7995 6.92717L37.448 6.95321H37.4349L37.2527 6.96623L37.0704 6.97925L37.0313 6.98576L36.7058 7.01831L36.5886 7.03133L36.504 7.03784L36.1784 7.07039H36.1654L36.1329 7.0769L35.9506 7.09644L35.7683 7.11597L35.7422 7.12248L35.5795 7.14201L35.3972 7.16805L35.3191 7.18107L35.2149 7.19409L35.0326 7.22013L34.8959 7.23966L34.8438 7.24618L34.6615 7.27873L34.4792 7.31128H34.4727L34.056 7.38289H34.0495L33.6394 7.46102H33.6329L33.2227 7.54565H33.2162L32.806 7.6368H32.7995L32.3959 7.72795H32.3894L31.9857 7.8256H31.9792L31.5756 7.92977H31.5691L31.1654 8.04045H31.1589L30.7618 8.15112H30.7553L30.3581 8.26831H30.3516L29.961 8.39201H29.9545L29.5638 8.52222H29.5573L29.1732 8.65242H29.1667L28.7826 8.78914H28.7761L28.392 8.93237H28.3855L28.0079 9.0756H28.0013L27.2396 9.38159H27.2331C21.4063 11.8035 16.5105 15.8009 12.9818 20.7748C8.07296 27.7084 5.79432 36.491 7.31775 45.5144C7.68234 47.6563 8.24223 49.7266 8.97791 51.6928C7.6563 54.1863 6.28911 56.6863 4.88937 59.1667L4.79171 58.991L4.77218 58.9519L4.32947 58.099L4.32296 58.086L4.31645 58.0795L4.23182 57.9037L4.10161 57.6368L4.04952 57.5391L3.95838 57.3569L3.88025 57.1941L3.86723 57.168L3.7826 56.9858L3.69796 56.8035L3.67192 56.7514L3.52869 56.4324L3.4701 56.3022L3.44406 56.2501L3.2813 55.8725L3.26827 55.8464L2.96229 55.1108L2.89067 54.9285L2.88416 54.9154L2.73442 54.5378L2.70838 54.4662L2.5326 54.004L2.51958 53.9649L2.37635 53.5743L2.36333 53.5352L2.31124 53.379L2.20057 53.06L2.17452 52.9818L2.10942 52.7865L2.04432 52.5912V52.5847L1.97921 52.3959L1.79041 51.797L1.73833 51.6277L1.73182 51.6016L1.67322 51.3998L1.61463 51.198L1.5951 51.1459L1.54952 50.9962L1.49093 50.7943L1.44536 50.6511L1.43234 50.586L1.38025 50.3842L1.32817 50.1824L1.32166 50.1628L1.27609 49.9805L1.224 49.7787L1.19796 49.6746L1.17192 49.5769L1.11984 49.3751L1.07426 49.1863V49.1733L1.02869 48.9714L0.976608 48.7436L0.957077 48.672L0.924525 48.5352L0.878952 48.3269L0.8464 48.1707L0.833379 48.1186L0.787806 47.9102L0.748743 47.7019L0.742233 47.6694L0.716191 47.4936L0.677129 47.2852L0.651087 47.1615L0.638066 47.0769L0.599004 46.8686L0.559941 46.6602C-1.276 35.7748 1.4714 25.1628 7.40239 16.8295C13.3399 8.48316 22.4545 2.40243 33.3399 0.566488ZM37.181 73.0274C38.405 73.1316 39.6485 73.1707 40.8985 73.1316H40.9506L41.1329 73.1251L41.3152 73.1186L41.4974 73.1121L41.6797 73.1056L41.7383 73.099L41.862 73.0925L42.155 73.073L42.2266 73.0665L42.5782 73.0405H42.5912L42.7735 73.0274L42.9558 73.0079L42.9948 73.0014L43.3204 72.9688L43.418 72.9558L43.5027 72.9493L43.8282 72.9167H43.8412L43.8737 72.9102L44.056 72.8907L44.2383 72.8712L44.2644 72.8647L44.4271 72.8451L44.6094 72.8191L44.6875 72.8061L44.7917 72.7931L44.974 72.767L45.1107 72.7475L45.1628 72.741L45.3451 72.7149L45.5274 72.6824H45.5339L45.9506 72.6108H45.9571L46.3672 72.5326H46.3737L46.7839 72.448H46.7904L47.2006 72.3634H47.2071L47.6107 72.2722H47.6172L48.0209 72.1746H48.0274L48.431 72.0704H48.4375L48.8412 71.9597H48.8477L49.2448 71.849H49.2514L49.6485 71.7318H49.655L50.0456 71.6082H50.0521L50.4428 71.478H50.4493L50.8334 71.3477H50.8399L51.224 71.211H51.2305L51.6146 71.0743H51.6211L51.9987 70.9311H52.0053L52.767 70.6251H52.7735C58.5938 68.2032 63.4961 64.2058 67.0248 59.2319C71.9401 52.3178 74.2188 43.5352 72.6954 34.5118C72.3308 32.3699 71.7709 30.2996 71.0352 28.3334C72.3568 25.8399 73.724 23.3399 75.1237 20.8595L75.2214 21.0352L75.2409 21.0743L75.6836 21.9272L75.6902 21.9402L75.6967 21.9467L75.7813 22.1225L75.9115 22.3894L75.9636 22.4871L76.0547 22.6694L76.1329 22.8321L76.1459 22.8582L76.2305 23.0404L76.3152 23.2227L76.3412 23.2748L76.4844 23.5938L76.543 23.724L76.5691 23.7761L76.7318 24.1537L76.7448 24.1798L77.0508 24.9154L77.1224 25.0977L77.129 25.1108L77.2787 25.4949L77.3047 25.5665L77.4805 26.0287L77.4935 26.0743L77.6368 26.4649L77.6498 26.504L77.7019 26.6602L77.8125 26.9792L77.8386 27.0574L77.9037 27.2527L77.9688 27.448V27.4545L78.0339 27.6498L78.2227 28.2488L78.2748 28.4181L78.2813 28.4441L78.3399 28.6459L78.3985 28.8477L78.418 28.8998L78.4571 29.0496L78.5157 29.2514L78.5547 29.3881L78.5743 29.4532L78.6263 29.655L78.6784 29.8569L78.6849 29.8764L78.7305 30.0587L78.7826 30.2605L78.8086 30.3647L78.8347 30.4623L78.8868 30.6641L78.9323 30.8529V30.866L78.9779 31.0678L79.0235 31.2761L79.043 31.3477L79.0756 31.4845L79.1211 31.6928L79.1537 31.849L79.1667 31.9011L79.2123 32.1095L79.2514 32.3178L79.2579 32.3503L79.2904 32.5261L79.3295 32.7345L79.3555 32.8582L79.3685 32.9493L79.4076 33.1576L79.4401 33.366C81.2761 44.2514 78.5287 54.8569 72.5977 63.1967C66.6667 71.5365 57.5521 77.6173 46.6667 79.4532L46.3803 79.4988L46.1589 79.5313L46.0938 79.5443L45.8073 79.5899L45.6446 79.616L45.5209 79.6355L45.2344 79.6746L45.1368 79.6876L44.948 79.7136L44.6615 79.7462L44.629 79.7527L44.375 79.7787L44.1211 79.8048H44.0951L43.8086 79.8308L43.6133 79.8503L43.5222 79.8569L43.2357 79.8829L43.1055 79.8959L42.9493 79.9089L42.6693 79.9285L42.5977 79.935L42.3829 79.948L42.0964 79.961H42.0899L41.8165 79.974L41.5886 79.9871H41.5365L41.2566 80.0001L41.0938 80.0066L40.9766 80.0131L40.6967 80.0196H40.5925H40.4102H40.1303H40.0912H39.8503H39.5899H39.5704L39.2904 80.0131L39.0951 80.0066H39.0105L38.7305 80.0001L38.5938 79.9936L38.4506 79.9871L38.1706 79.974H38.0925L37.8907 79.961L37.6107 79.948H37.5977L37.3308 79.9285H37.2787L37.0508 79.9089L36.7709 79.8894L36.6016 79.8764L36.4909 79.8699L36.1068 79.8373L35.9375 79.8178L35.6641 79.7917L35.6185 79.7852L35.3907 79.7592L35.1303 79.7266H35.1172L34.8438 79.6941L34.6485 79.6681L34.5769 79.655L34.3034 79.616L34.1667 79.5964L34.03 79.5769L33.7566 79.5313L33.6784 79.5183L33.4831 79.4858L33.2097 79.4402H33.1902L32.9362 79.3946L32.7084 79.3556L32.6628 79.349L32.3959 79.297L32.2266 79.2644L32.1224 79.2449L31.3152 79.0756L31.2696 79.0626L31.0482 79.0105L30.7943 78.9519H30.7813L30.3191 78.8347L30.254 78.8152C29.8112 78.7045 29.375 78.5808 28.9389 78.4571C30.7748 76.4259 32.4675 74.4858 34.03 72.6303C35.0586 72.7931 36.1133 72.9363 37.181 73.0274Z" fill="#3C3C3C"/>
</svg>
