<svg width="81" height="81" viewBox="0 0 81 81" fill="none" xmlns="http://www.w3.org/2000/svg">
<path fill-rule="evenodd" clip-rule="evenodd" d="M18.5065 35.4572L29.2656 35.3188C33.4199 37.7116 37.1384 40.8032 40.3416 44.7187C48.6239 31.0143 58.1347 19.7885 68.5899 10.4282H76.7864C62.1636 26.644 50.2289 44.0002 40.6851 62.3847C35.5863 51.4621 28.4466 42.2731 18.5065 35.4572ZM78.6687 26.9406L72.2027 29.4125C72.4999 30.2431 72.7773 31.1198 73.0217 32.102C73.8737 35.4177 74.2039 38.8059 74.0388 42.1545C73.8737 45.5361 73.2066 48.8583 72.0508 52.0224C70.9148 55.1403 69.3098 58.0869 67.269 60.7434C65.2942 63.3142 62.9033 65.6279 60.1227 67.5659H60.1161C59.0858 68.2844 58.0422 68.9436 56.9855 69.5368C55.9089 70.1367 54.8191 70.6838 53.7095 71.1716C51.2328 72.2592 48.7164 73.0436 46.1934 73.5183C43.6176 74.0061 41.0351 74.184 38.4791 74.0588L37.6469 74.0126L35.8306 80.789L37.0723 80.8813C40.3284 81.1318 43.6308 80.967 46.9265 80.3935C50.1496 79.8266 53.3661 78.8642 56.5099 77.4733C57.8045 76.8998 59.0858 76.2604 60.3605 75.5419C61.6022 74.8432 62.8372 74.0654 64.0723 73.2019C67.4605 70.842 70.3666 68.0339 72.7707 64.9094C75.2607 61.6794 77.1958 58.1132 78.563 54.3559C79.95 50.5458 80.7624 46.538 80.9539 42.4643C81.1521 38.4433 80.7492 34.3696 79.7188 30.3684C79.4348 29.2082 79.0716 28.0876 78.6687 26.9406ZM16.0165 72.7536C18.3876 74.5993 20.9304 76.1484 23.5855 77.3811L24.7017 77.9018L26.518 71.1452L25.7585 70.7629C23.8299 69.8071 21.974 68.6403 20.2303 67.2824C18.5131 65.9509 16.9082 64.4216 15.4419 62.7143L14.8805 62.0683L8.82403 65.5554L9.60338 66.498C11.532 68.8513 13.6851 70.9343 16.0165 72.7536ZM0.376622 45.8327C0.786113 48.7792 1.53244 51.6862 2.61561 54.5009L3.05152 55.6347L9.10803 52.1477L8.81742 51.3369C8.07109 49.2473 7.54272 47.0983 7.2323 44.9296C6.92188 42.7609 6.84262 40.5593 6.98132 38.3642L7.03416 37.5139L0.270947 35.6945L0.158667 36.9206C-0.112125 39.8869 -0.0394736 42.873 0.376622 45.8327ZM5.53489 20.4147C4.93386 21.4365 4.37907 22.4648 3.88372 23.5129L3.34213 24.6335L10.1119 26.4462L10.495 25.7014C10.8781 24.9565 11.281 24.2314 11.7103 23.5327C12.1396 22.8207 12.6019 22.122 13.0907 21.4431C13.8898 20.3159 14.755 19.2282 15.6665 18.1933C16.5713 17.165 17.5224 16.196 18.5065 15.3061L19.1208 14.7392L15.6137 8.66816L14.6626 9.49213C13.3482 10.6391 12.0801 11.8784 10.8715 13.2165C9.66283 14.5546 8.52682 15.9653 7.47007 17.4418C6.76997 18.424 6.12271 19.4128 5.53489 20.4147ZM33.3142 0.514107C30.996 0.903023 28.7504 1.50947 26.5973 2.32026L25.448 2.74873L28.9485 8.8L29.7543 8.51655C31.3989 7.94965 33.1029 7.52119 34.8531 7.25092C36.5704 6.98066 38.3272 6.8686 40.1237 6.90815C40.9229 6.92792 41.7683 6.98066 42.6269 7.07954C43.4591 7.17182 44.2846 7.29707 45.097 7.46186C45.9424 7.63325 46.7812 7.831 47.6068 8.0749C48.4258 8.31879 49.258 8.60224 50.11 8.93183H50.1166C51.0082 9.2746 51.9527 9.22846 52.7651 8.87251C53.5774 8.51655 54.2511 7.85078 54.5946 6.96088C54.938 6.07099 54.8918 5.12836 54.5351 4.31757C54.1785 3.50678 53.5114 2.83442 52.6198 2.49165C51.6092 2.10273 50.5855 1.75336 49.542 1.44355C48.4984 1.14033 47.4813 0.883247 46.4708 0.685493C45.4471 0.481148 44.4299 0.322945 43.426 0.210884C42.4023 0.0988235 41.3588 0.0263138 40.2888 -5.34058e-05C37.9111 -0.0396042 35.5797 0.131783 33.3142 0.514107Z" fill="#12544D"/>
</svg>
