<svg width="22" height="20" viewBox="0 0 22 20" fill="none" xmlns="http://www.w3.org/2000/svg">
<path d="M7.33314 13.6666C6.82715 13.6666 6.4165 14.0773 6.4165 14.5833C6.4165 15.0893 6.82715 15.4999 7.33314 15.4999C7.83913 15.4999 8.24978 15.0893 8.24978 14.5833C8.24978 14.0773 7.83913 13.6666 7.33314 13.6666Z" fill="black"/>
<path d="M14.6664 13.6666C14.1604 13.6666 13.7498 14.0773 13.7498 14.5833C13.7498 15.0893 14.1604 15.4999 14.6664 15.4999C15.1724 15.4999 15.583 15.0893 15.583 14.5833C15.583 14.0773 15.1724 13.6666 14.6664 13.6666Z" fill="black"/>
<path d="M11.0002 0.833496C11.0001 0.833496 11 0.833496 10.9999 0.833496C10.9999 0.833496 10.9999 0.833496 10.9998 0.833496C10.9998 0.833496 10.9997 0.833496 10.9997 0.833496C7.96309 0.833625 5.21412 2.06397 3.22389 4.0533C3.2232 4.05399 3.22243 4.05455 3.22174 4.05524C3.22101 4.05597 3.22045 4.05674 3.21972 4.05747C1.23267 6.04573 0.0030937 8.791 0.000472648 11.8236C0.000472648 11.8269 0 11.83 0 11.8333C0 11.8364 0.00042968 11.8394 0.000472648 11.8425C0.00262105 14.4293 0.901168 16.8801 2.51474 18.8336C2.68889 19.0445 2.94803 19.1665 3.22148 19.1665H18.778C19.0514 19.1665 19.3105 19.0445 19.4847 18.8336C21.1006 16.8773 22 14.4229 22 11.8333C22 5.7584 17.0751 0.833496 11.0002 0.833496ZM18.3336 17.3332H3.66586C2.66552 16.0022 2.04545 14.426 1.87912 12.7499H4.58327C5.08952 12.7499 5.4999 12.3396 5.4999 11.8333C5.4999 11.3271 5.08952 10.9167 4.58327 10.9167H1.87916C2.06216 9.07313 2.79137 7.39046 3.90257 6.03245L4.51787 6.64775C4.87584 7.00572 5.45625 7.00572 5.81421 6.64775C6.17218 6.28979 6.17218 5.70938 5.81421 5.35141L5.19887 4.73606C6.55687 3.62474 8.2395 2.89544 10.0831 2.71236V5.41681C10.0831 5.92306 10.4935 6.33344 10.9998 6.33344C11.506 6.33344 11.9164 5.92306 11.9164 5.41681V2.71227C13.76 2.89527 15.4427 3.62457 16.8008 4.73589L16.1853 5.35141C15.8273 5.70938 15.8273 6.28979 16.1853 6.64775C16.5433 7.00572 17.1237 7.00572 17.4817 6.64775L18.0972 6.03219C19.2087 7.39028 19.9381 9.07308 20.1211 10.9167H17.4163C16.9101 10.9167 16.4997 11.3271 16.4997 11.8333C16.4997 12.3396 16.9101 12.7499 17.4163 12.7499H20.1211C19.9547 14.4256 19.3343 16.0018 18.3336 17.3332Z" fill="black"/>
<path d="M11.157 13.6666L13.7493 8.48114L8.5647 11.0743L11.157 13.6666Z" fill="black"/>
</svg>
