<svg width="16" height="17" viewBox="0 0 16 17" fill="none" xmlns="http://www.w3.org/2000/svg">
<g clip-path="url(#clip0_1600_75097)">
<path d="M0.787109 8.5C1.41378 5.08667 4.40511 2.5 7.99978 2.5C11.5944 2.5 14.5851 5.08667 15.2124 8.5C14.5858 11.9133 11.5944 14.5 7.99978 14.5C4.40511 14.5 1.41444 11.9133 0.787109 8.5ZM7.99978 11.8333C8.88383 11.8333 9.73168 11.4821 10.3568 10.857C10.9819 10.2319 11.3331 9.38406 11.3331 8.5C11.3331 7.61595 10.9819 6.7681 10.3568 6.14298C9.73168 5.51786 8.88383 5.16667 7.99978 5.16667C7.11572 5.16667 6.26788 5.51786 5.64275 6.14298C5.01763 6.7681 4.66644 7.61595 4.66644 8.5C4.66644 9.38406 5.01763 10.2319 5.64275 10.857C6.26788 11.4821 7.11572 11.8333 7.99978 11.8333ZM7.99978 10.5C7.46934 10.5 6.96064 10.2893 6.58556 9.91421C6.21049 9.53914 5.99978 9.03043 5.99978 8.5C5.99978 7.96957 6.21049 7.46086 6.58556 7.08579C6.96064 6.71071 7.46934 6.5 7.99978 6.5C8.53021 6.5 9.03892 6.71071 9.41399 7.08579C9.78906 7.46086 9.99978 7.96957 9.99978 8.5C9.99978 9.03043 9.78906 9.53914 9.41399 9.91421C9.03892 10.2893 8.53021 10.5 7.99978 10.5Z" fill="#DF475C"/>
</g>
<defs>
<clipPath id="clip0_1600_75097">
<rect width="16" height="16" fill="white" transform="translate(0 0.5)"/>
</clipPath>
</defs>
</svg>
