<svg width="12" height="12" viewBox="0 0 12 12" fill="none" xmlns="http://www.w3.org/2000/svg">
    <path fill-rule="evenodd" clip-rule="evenodd"
        d="M4 0C1.79086 0 0 1.79086 0 4V8C0 10.2091 1.79086 12 4 12H8C10.2091 12 12 10.2091 12 8V4C12 1.79086 10.2091 0 8 0H4ZM7.84799 3.70958H7.20342C6.696 3.70958 6.6 3.94273 6.6 4.30273V5.08101H7.80685L7.64914 6.30158H6.6V9.42843H5.33828V6.30158H4.28571V5.08101H5.33828V4.18273C5.33828 3.14044 5.976 2.5713 6.90857 2.5713C7.22233 2.57082 7.53591 2.58685 7.84799 2.6193V3.70958Z"
        fill="#DF475C" />
</svg>
    

