<svg width="12" height="12" viewBox="0 0 12 12" fill="none" xmlns="http://www.w3.org/2000/svg">
    <g clip-path="url(#clip0_782_39358)">
        <path
            d="M6 4.00543e-05C7.6302 4.00543e-05 7.8336 0.00604002 8.4732 0.03604C9.1122 0.06604 9.5472 0.16624 9.93 0.31504C10.326 0.46744 10.6596 0.67384 10.9932 1.00684C11.2983 1.30678 11.5344 1.66959 11.685 2.07004C11.8332 2.45224 11.934 2.88784 11.964 3.52684C11.9922 4.16644 12 4.36984 12 6.00004C12 7.63024 11.994 7.83364 11.964 8.47324C11.934 9.11224 11.8332 9.54724 11.685 9.93004C11.5348 10.3307 11.2987 10.6936 10.9932 10.9932C10.6932 11.2982 10.3304 11.5343 9.93 11.685C9.5478 11.8332 9.1122 11.934 8.4732 11.964C7.8336 11.9922 7.6302 12 6 12C4.3698 12 4.1664 11.994 3.5268 11.964C2.8878 11.934 2.4528 11.8332 2.07 11.685C1.6694 11.5347 1.30652 11.2986 1.0068 10.9932C0.701644 10.6934 0.465559 10.3305 0.315 9.93004C0.1662 9.54784 0.066 9.11224 0.036 8.47324C0.00779997 7.83364 0 7.63024 0 6.00004C0 4.36984 0.00599997 4.16644 0.036 3.52684C0.066 2.88724 0.1662 2.45284 0.315 2.07004C0.465142 1.66935 0.701282 1.30643 1.0068 1.00684C1.3066 0.701579 1.66946 0.465478 2.07 0.31504C2.4528 0.16624 2.8872 0.06604 3.5268 0.03604C4.1664 0.00784002 4.3698 4.00543e-05 6 4.00543e-05ZM6 3.00004C5.20435 3.00004 4.44129 3.31611 3.87868 3.87872C3.31607 4.44133 3 5.20439 3 6.00004C3 6.79569 3.31607 7.55875 3.87868 8.12136C4.44129 8.68397 5.20435 9.00004 6 9.00004C6.79565 9.00004 7.55871 8.68397 8.12132 8.12136C8.68393 7.55875 9 6.79569 9 6.00004C9 5.20439 8.68393 4.44133 8.12132 3.87872C7.55871 3.31611 6.79565 3.00004 6 3.00004ZM9.9 2.85004C9.9 2.65113 9.82098 2.46036 9.68033 2.31971C9.53968 2.17906 9.34891 2.10004 9.15 2.10004C8.95109 2.10004 8.76032 2.17906 8.61967 2.31971C8.47902 2.46036 8.4 2.65113 8.4 2.85004C8.4 3.04895 8.47902 3.23972 8.61967 3.38037C8.76032 3.52102 8.95109 3.60004 9.15 3.60004C9.34891 3.60004 9.53968 3.52102 9.68033 3.38037C9.82098 3.23972 9.9 3.04895 9.9 2.85004ZM6 4.20004C6.47739 4.20004 6.93523 4.38968 7.27279 4.72725C7.61036 5.06481 7.8 5.52265 7.8 6.00004C7.8 6.47743 7.61036 6.93527 7.27279 7.27283C6.93523 7.6104 6.47739 7.80004 6 7.80004C5.52261 7.80004 5.06477 7.6104 4.72721 7.27283C4.38964 6.93527 4.2 6.47743 4.2 6.00004C4.2 5.52265 4.38964 5.06481 4.72721 4.72725C5.06477 4.38968 5.52261 4.20004 6 4.20004Z"
            fill="#DF475C" />
    </g>
    <defs>
        <clipPath id="clip0_782_39358">
            <rect width="12" height="12" fill="white" />
        </clipPath>
    </defs>
</svg>
    