<svg width="12" height="12" viewBox="0 0 12 12" fill="none" xmlns="http://www.w3.org/2000/svg">
    <g clip-path="url(#clip0_782_39365)">
        <path fill-rule="evenodd" clip-rule="evenodd"
            d="M4 0C1.79086 0 0 1.79086 0 4V8C0 10.2091 1.79086 12 4 12H8C10.2091 12 12 10.2091 12 8V4C12 1.79086 10.2091 0 8 0H4ZM7.76381 2.57143C7.7637 2.96664 7.90721 3.34843 8.16762 3.64571C8.68571 4.24381 9.4019 4.20952 9.4019 4.20952V5.38667C8.81423 5.38767 8.24114 5.20375 7.76381 4.86095V7.25714C7.76381 8.45714 6.79238 9.42857 5.59619 9.42857C4.48 9.42857 3.42857 8.52571 3.42857 7.25714C3.42857 5.95429 4.57905 4.93333 5.89333 5.10857V6.31238C5.2419 6.11048 4.60952 6.6019 4.60952 7.25714C4.60952 7.80571 5.05905 8.24762 5.6 8.24762C5.85579 8.24758 6.10158 8.14829 6.28562 7.97064C6.46966 7.793 6.57759 7.55087 6.58667 7.29524V2.57143H7.76381Z"
            fill="#DF475C" />
    </g>
    <defs>
        <clipPath id="clip0_782_39365">
            <rect width="12" height="12" fill="white" />
        </clipPath>
    </defs>
</svg>
    