<svg width="12" height="12" viewBox="0 0 12 12" fill="none" xmlns="http://www.w3.org/2000/svg">
    <g clip-path="url(#clip0_782_39361)">
        <path fill-rule="evenodd" clip-rule="evenodd"
            d="M4 0C1.79086 0 0 1.79086 0 4V8C0 10.2091 1.79086 12 4 12H8C10.2091 12 12 10.2091 12 8V4C12 1.79086 10.2091 0 8 0H4ZM8.18488 4.7552C8.42391 4.7269 8.65734 4.66294 8.87741 4.56544C8.71558 4.80769 8.51176 5.01906 8.27556 5.18959C8.27785 5.24141 8.27907 5.29355 8.27907 5.34575C8.27907 6.93904 7.0662 8.77636 4.84824 8.77636C4.19289 8.77701 3.55121 8.58898 2.99986 8.23473C3.09428 8.24595 3.19022 8.25159 3.28754 8.25159C3.83051 8.25241 4.35797 8.07059 4.78512 7.73538C4.25745 7.72561 3.81215 7.37687 3.65873 6.8979C3.83946 6.93242 4.02566 6.92537 4.20326 6.87729C3.65171 6.76639 3.2361 6.27903 3.2361 5.69496C3.2361 5.68977 3.2361 5.68481 3.23625 5.67977C3.40369 5.77281 3.59093 5.82451 3.78238 5.8306C3.61723 5.72042 3.48184 5.57116 3.38826 5.39607C3.29467 5.22098 3.24579 5.02548 3.24594 4.82695C3.24563 4.61395 3.30198 4.4047 3.40921 4.22067C4.00397 4.95029 4.89243 5.4304 5.89463 5.4807C5.87402 5.39239 5.86334 5.30026 5.86334 5.20584C5.86334 4.5398 6.40329 4 7.06918 4C7.23414 3.99982 7.39737 4.03352 7.54877 4.09901C7.70017 4.16451 7.8365 4.26039 7.94933 4.38073C8.21937 4.32765 8.47833 4.22872 8.71498 4.08824C8.62505 4.36751 8.43665 4.60456 8.18488 4.7552Z"
            fill="#DF475C" />
    </g>
    <defs>
        <clipPath id="clip0_782_39361">
            <rect width="12" height="12" fill="white" />
        </clipPath>
    </defs>
</svg>
    