<svg width="12" height="12" viewBox="0 0 12 12" fill="none" xmlns="http://www.w3.org/2000/svg">
    <path fill-rule="evenodd" clip-rule="evenodd"
        d="M4 0C1.79086 0 0 1.79086 0 4V8C0 10.2091 1.79086 12 4 12H8C10.2091 12 12 10.2091 12 8V4C12 1.79086 10.2091 0 8 0H4ZM4.49815 8.51543C4.64005 8.59509 4.78016 8.58997 4.91846 8.50007L8.30004 6.35288C8.42451 6.26989 8.48675 6.15233 8.48675 6.0002C8.48675 5.84806 8.42451 5.7305 8.30004 5.64752L4.91846 3.50032C4.78016 3.41042 4.64005 3.40517 4.49815 3.48455C4.35653 3.56422 4.28571 3.68703 4.28571 3.853V8.1474C4.28571 8.31336 4.35653 8.43604 4.49815 8.51543Z"
        fill="#DF475C" />
</svg>
    